<svg width="190" height="48" viewBox="0 0 190 48" fill="none" xmlns="http://www.w3.org/2000/svg">
<path d="M57.9858 21.4538L59.1418 20.3785C59.9748 21.4367 60.9608 21.9829 62.0828 21.9829C63.3748 21.9829 64.1228 21.1637 64.1228 20.0713C64.1228 17.511 58.4958 17.8183 58.4958 14.0121C58.4958 12.2711 59.9238 10.8032 61.9468 10.8032C63.6298 10.8032 64.8538 11.5713 65.7378 12.749L64.5478 13.7902C63.8508 12.7831 63.0008 12.237 61.9638 12.237C60.8588 12.237 60.1278 12.988 60.1278 13.9779C60.1278 16.5552 65.7548 16.2309 65.7548 20.0542C65.7548 22.0853 64.1738 23.4167 62.0998 23.4167C60.3318 23.4167 59.0228 22.751 57.9858 21.4538ZM68.8028 15.7189H67.4598L68.9048 11.1446H70.5538L68.8028 15.7189ZM73.6208 12.254C73.0608 12.254 72.6008 11.7932 72.6008 11.2299C72.6053 10.9613 72.7147 10.7052 72.9055 10.5168C73.0963 10.3284 73.3532 10.2229 73.6208 10.2229C74.1818 10.2229 74.6238 10.6837 74.6238 11.2299C74.6238 11.7932 74.1818 12.254 73.6208 12.254ZM72.8908 23.0924V14.49H74.3348V23.0924H72.8908ZM76.6578 18.7912C76.6578 16.2821 78.3748 14.1486 81.0608 14.1486C82.3018 14.1486 83.3218 14.6094 84.1038 15.4458V10.2912H85.5488V23.0924H84.1038V22.1365C83.3218 22.9729 82.3018 23.4337 81.0608 23.4337C78.3748 23.4337 76.6578 21.3002 76.6578 18.7912ZM78.1878 18.7912C78.1878 20.6175 79.4118 22.0683 81.2308 22.0683C82.4208 22.0683 83.4408 21.4879 84.1038 20.4639V17.1185C83.4238 16.0773 82.4038 15.5141 81.2308 15.5141C79.4118 15.5141 78.1878 16.9649 78.1878 18.7912ZM96.2108 21.6757C95.4118 22.751 94.1368 23.4337 92.5388 23.4337C89.6488 23.4337 87.8638 21.3002 87.8638 18.7912C87.8638 16.1797 89.5298 14.1486 92.1818 14.1486C94.5108 14.1486 96.0238 15.7359 96.0238 17.8865C96.0238 18.2279 95.9728 18.5693 95.9218 18.8082H89.3598V18.8424C89.3598 20.7369 90.6518 22.1195 92.5728 22.1195C93.6608 22.1195 94.5788 21.6074 95.1398 20.8394L96.2108 21.6757ZM92.1988 15.3946C90.8048 15.3946 89.8188 16.1797 89.4788 17.6647H94.5618C94.5108 16.4187 93.6098 15.3946 92.1988 15.3946ZM98.4728 23.0924V14.49H99.9178V15.4629C100.615 14.6948 101.499 14.1486 102.774 14.1486C104.695 14.1486 106.123 15.4458 106.123 17.8865V23.0924H104.661V17.9378C104.661 16.4016 103.811 15.5141 102.485 15.5141C101.244 15.5141 100.462 16.2309 99.9178 17.1355V23.0924H98.4728ZM109.525 20.2078V15.8213H107.91V14.49H109.525V12.3394H110.987V14.49H113.962V15.8213H110.987V20.2078C110.987 21.5562 111.667 21.9317 112.704 21.9317C113.265 21.9317 113.656 21.8634 113.979 21.7269V23.0241C113.571 23.1948 113.112 23.263 112.5 23.263C110.596 23.263 109.525 22.3072 109.525 20.2078ZM116.902 12.254C116.341 12.254 115.882 11.7932 115.882 11.2299C115.886 10.9613 115.996 10.7052 116.187 10.5168C116.377 10.3284 116.634 10.2229 116.902 10.2229C117.463 10.2229 117.905 10.6837 117.905 11.2299C117.905 11.7932 117.463 12.254 116.902 12.254ZM116.171 23.0924V14.49H117.616V23.0924H116.171ZM119.548 14.49H121.163V13.4317C121.163 11.5884 122.37 10.2912 124.206 10.2912C125.158 10.2912 125.906 10.6325 126.416 11.1275L125.515 12.1857C125.357 11.9979 125.158 11.8482 124.935 11.7477C124.711 11.6473 124.468 11.5986 124.223 11.6054C123.288 11.6054 122.625 12.2882 122.625 13.3976V14.49H125.6V15.8213H122.625V23.0924H121.163V15.8213H119.548V14.49ZM128.091 12.254C127.53 12.254 127.071 11.7932 127.071 11.2299C127.075 10.9613 127.185 10.7052 127.376 10.5168C127.566 10.3284 127.823 10.2229 128.091 10.2229C128.652 10.2229 129.094 10.6837 129.094 11.2299C129.094 11.7932 128.652 12.254 128.091 12.254ZM127.36 23.0924V14.49H128.805V23.0924H127.36ZM139.475 21.6757C138.676 22.751 137.401 23.4337 135.803 23.4337C132.913 23.4337 131.128 21.3002 131.128 18.7912C131.128 16.1797 132.794 14.1486 135.446 14.1486C137.775 14.1486 139.288 15.7359 139.288 17.8865C139.288 18.2279 139.237 18.5693 139.186 18.8082H132.624V18.8424C132.624 20.7369 133.916 22.1195 135.837 22.1195C136.925 22.1195 137.843 21.6074 138.404 20.8394L139.475 21.6757ZM135.463 15.3946C134.069 15.3946 133.083 16.1797 132.743 17.6647H137.826C137.775 16.4187 136.874 15.3946 135.463 15.3946ZM141.737 23.0924V14.49H143.182V15.5653C143.811 14.8143 144.593 14.3193 145.681 14.3193C145.953 14.3193 146.208 14.3534 146.412 14.4217V15.9237C146.135 15.8446 145.849 15.8043 145.562 15.8042C144.44 15.8042 143.709 16.3845 143.182 17.255V23.0924H141.737ZM155.422 23.4337C153.739 23.4337 152.6 22.4779 152.6 20.9759C152.6 19.6446 153.586 18.6888 155.422 18.3986L158.295 17.9207V17.3233C158.295 16.1285 157.445 15.4458 156.238 15.4458C155.235 15.4458 154.402 15.8896 153.909 16.6406L152.821 15.8042C153.569 14.7801 154.776 14.1486 156.272 14.1486C158.448 14.1486 159.74 15.4287 159.74 17.3233V23.0924H158.295V22C157.649 22.9046 156.578 23.4337 155.422 23.4337ZM154.045 20.9247C154.045 21.6586 154.674 22.2219 155.66 22.2219C156.799 22.2219 157.7 21.6245 158.295 20.6345V18.996L155.762 19.4398C154.572 19.6275 154.045 20.1737 154.045 20.9247ZM161.297 14.49H162.861L165.598 21.5733L168.335 14.49H169.899L166.55 23.0924H164.646L161.297 14.49ZM179.153 21.6757C178.354 22.751 177.079 23.4337 175.481 23.4337C172.591 23.4337 170.806 21.3002 170.806 18.7912C170.806 16.1797 172.472 14.1486 175.124 14.1486C177.453 14.1486 178.966 15.7359 178.966 17.8865C178.966 18.2279 178.915 18.5693 178.864 18.8082H172.302V18.8424C172.302 20.7369 173.594 22.1195 175.515 22.1195C176.603 22.1195 177.521 21.6074 178.082 20.8394L179.153 21.6757ZM175.141 15.3946C173.747 15.3946 172.761 16.1797 172.421 17.6647H177.504C177.453 16.4187 176.552 15.3946 175.141 15.3946ZM185.326 22.0683C186.38 22.0683 187.23 21.5562 187.757 20.7881L188.913 21.6757C188.114 22.751 186.873 23.4337 185.309 23.4337C182.47 23.4337 180.651 21.3002 180.651 18.7912C180.651 16.2821 182.47 14.1486 185.309 14.1486C186.856 14.1486 188.114 14.8484 188.913 15.9066L187.757 16.7942C187.485 16.395 187.12 16.0693 186.693 15.846C186.266 15.6227 185.79 15.5087 185.309 15.5141C183.473 15.5141 182.164 16.9649 182.164 18.7912C182.164 20.6345 183.473 22.0683 185.326 22.0683ZM58.8538 40.1606V27.51H63.0118C65.7838 27.51 67.4758 28.9377 67.4758 31.2871C67.4758 33.6185 65.7838 35.0462 63.0118 35.0462H61.4098V40.1606H58.8538ZM63.1198 29.6968H61.4098V32.8594H63.1198C64.1998 32.8594 64.8478 32.2811 64.8478 31.251C64.8478 30.2932 64.1998 29.6968 63.1198 29.6968ZM69.2488 40.1606V31.0522H71.5348V31.9558C72.1288 31.3414 72.9028 30.8715 73.9288 30.8715C74.2348 30.8715 74.5048 30.9257 74.7208 30.998V33.4016C74.3917 33.3159 74.0529 33.2734 73.7128 33.2751C72.5968 33.2751 71.8768 33.8895 71.5348 34.4498V40.1606H69.2488ZM80.6348 30.6908C83.5868 30.6908 85.6028 32.8775 85.6028 35.6064C85.6028 38.3353 83.5868 40.5221 80.6348 40.5221C77.6828 40.5221 75.6668 38.3353 75.6668 35.6064C75.6668 32.8775 77.6828 30.6908 80.6348 30.6908ZM80.6708 38.3534C82.1288 38.3534 83.2268 37.1787 83.2268 35.6064C83.2268 34.016 82.1288 32.8594 80.6708 32.8594C79.1588 32.8594 78.0428 34.016 78.0428 35.6064C78.0428 37.1968 79.1588 38.3534 80.6708 38.3534ZM93.8428 38.1185C95.2828 38.1185 96.4168 37.4136 97.1368 36.3835L99.1528 37.9377C98.0008 39.51 96.1288 40.5221 93.8428 40.5221C89.8648 40.5221 87.1468 37.4498 87.1468 33.8353C87.1468 30.2209 89.8648 27.1486 93.8428 27.1486C96.1288 27.1486 98.0008 28.1787 99.1528 29.7148L97.1368 31.2871C96.4168 30.257 95.2828 29.5522 93.8428 29.5522C91.4668 29.5522 89.7748 31.4136 89.7748 33.8353C89.7748 36.257 91.4668 38.1185 93.8428 38.1185ZM105.209 30.6908C108.161 30.6908 110.177 32.8775 110.177 35.6064C110.177 38.3353 108.161 40.5221 105.209 40.5221C102.257 40.5221 100.241 38.3353 100.241 35.6064C100.241 32.8775 102.257 30.6908 105.209 30.6908ZM105.245 38.3534C106.703 38.3534 107.801 37.1787 107.801 35.6064C107.801 34.016 106.703 32.8594 105.245 32.8594C103.733 32.8594 102.617 34.016 102.617 35.6064C102.617 37.1968 103.733 38.3534 105.245 38.3534ZM112.263 40.1606V31.0522H114.549V31.7751C115.179 31.1606 116.025 30.6908 117.231 30.6908C119.193 30.6908 120.759 32.0462 120.759 34.7389V40.1606H118.437V34.8293C118.437 33.6185 117.771 32.8594 116.655 32.8594C115.503 32.8594 114.891 33.6365 114.549 34.2148V40.1606H112.263ZM123.354 40.1606V31.0522H125.64V31.7751C126.27 31.1606 127.116 30.6908 128.322 30.6908C130.284 30.6908 131.85 32.0462 131.85 34.7389V40.1606H129.528V34.8293C129.528 33.6185 128.862 32.8594 127.746 32.8594C126.594 32.8594 125.982 33.6365 125.64 34.2148V40.1606H123.354ZM142.798 38.6787C141.952 39.8172 140.548 40.5221 138.838 40.5221C135.616 40.5221 133.798 38.263 133.798 35.6064C133.798 32.9136 135.49 30.6908 138.46 30.6908C140.98 30.6908 142.636 32.3895 142.636 34.7751C142.636 35.2811 142.564 35.7691 142.492 36.0763H136.138C136.282 37.5763 137.326 38.4618 138.874 38.4618C139.864 38.4618 140.674 38.0281 141.16 37.3775L142.798 38.6787ZM138.46 32.6064C137.344 32.6064 136.588 33.1486 136.282 34.3413H140.368C140.332 33.4377 139.666 32.6064 138.46 32.6064ZM149.156 38.3534C150.038 38.3534 150.74 37.9197 151.172 37.2871L152.99 38.6787C152.144 39.7992 150.812 40.5221 149.156 40.5221C146.024 40.5221 144.152 38.263 144.152 35.6064C144.152 32.9498 146.024 30.6908 149.156 30.6908C150.812 30.6908 152.144 31.4136 152.99 32.5341L151.172 33.9257C150.74 33.2932 150.056 32.8594 149.12 32.8594C147.626 32.8594 146.528 34.016 146.528 35.6064C146.528 37.2148 147.626 38.3534 149.156 38.3534ZM155.36 36.8353V33.1486H153.668V31.0522H155.36V28.7751H157.664V31.0522H160.436V33.1486H157.664V36.8353C157.664 37.8474 158.204 38.245 159.104 38.245C159.734 38.245 160.148 38.1727 160.454 38.0462V40.0522C160.004 40.251 159.464 40.3413 158.708 40.3413C156.44 40.3413 155.36 39.0582 155.36 36.8353Z" fill="#929292"/>
<path d="M34.9922 14.1545L19.9982 5.44165L5.00424 14.2368C4.91153 14.2899 4.83441 14.3665 4.78068 14.4591C4.72695 14.5516 4.69851 14.6568 4.69824 14.7639V31.78C4.7041 31.8857 4.7349 31.9886 4.7881 32.08C4.8413 32.1715 4.91538 32.249 5.00424 32.3061L19.9962 40.9406L34.9902 32.1997C35.0791 32.1426 35.1532 32.0651 35.2064 31.9736C35.2596 31.8822 35.2904 31.7793 35.2962 31.6736V14.6846C35.2969 14.5771 35.2691 14.4714 35.2157 14.3782C35.1623 14.2851 35.0852 14.2079 34.9922 14.1545Z" fill="#7C7C7C"/>
<path d="M14.6412 14.6565L9.61217 23.3191L5.05518 14.1073L10.4452 10.9818L14.9342 14.1545L14.6412 14.6565ZM35.2972 31.7047V14.6786C35.2972 14.5717 35.2688 14.4667 35.215 14.3744C35.1613 14.2821 35.084 14.2059 34.9912 14.1535L19.9982 5.44165" fill="#F6F6F6"/>
<path d="M4.70024 31.7047L20.0002 5.44165V40.9456L5.00424 32.3061C4.91532 32.249 4.8412 32.1716 4.78799 32.0801C4.73478 31.9886 4.70402 31.8858 4.69824 31.78V14.7649L4.70024 31.7047ZM29.3692 10.8864L34.8272 14.0541L30.3382 23.2408L24.9512 13.9677L29.3692 10.8854V10.8864Z" fill="#929292"/>
<path d="M39.606 11.3483L20.416 0.28406C20.2868 0.21943 20.1444 0.185791 20 0.185791C19.8556 0.185791 19.7132 0.21943 19.584 0.28406L0.394 11.3483C0.278544 11.4256 0.182752 11.529 0.114324 11.6501C0.0458949 11.7713 0.00673776 11.9069 0 12.0461V34.1344C0.00580737 34.2745 0.0445312 34.4111 0.113008 34.5333C0.181484 34.6554 0.27777 34.7596 0.394 34.8372L19.583 45.9015C19.7122 45.9662 19.8546 45.9999 19.999 45.9999C20.1434 45.9999 20.2858 45.9662 20.415 45.9015L39.606 34.8372C39.7222 34.7595 39.8184 34.6554 39.8869 34.5332C39.9554 34.4111 39.9941 34.2745 40 34.1344V12.0461C39.9933 11.9069 39.9541 11.7713 39.8857 11.6501C39.8172 11.529 39.7215 11.4256 39.606 11.3483ZM10.789 29.1756H10.868C10.826 29.1756 10.789 29.1826 10.789 29.2258C10.789 29.3262 10.94 29.2258 10.989 29.3262C10.7514 29.3327 10.5257 29.4322 10.36 29.6033C10.36 29.6535 10.46 29.6535 10.511 29.6535C10.436 29.7539 10.285 29.7037 10.234 29.8061C10.261 29.8333 10.2961 29.8509 10.334 29.8563C10.284 29.8563 10.234 29.8563 10.234 29.9065V30.0591C10.108 30.0591 10.058 30.1595 9.957 30.2097C10.157 30.3623 10.284 30.2097 10.485 30.2097C9.957 30.4105 9.529 30.6907 9.001 30.8423C8.901 30.8423 9.001 30.9929 8.901 30.9929C9.052 31.0933 9.128 30.9427 9.278 30.9427C8.624 31.3222 7.945 31.6455 7.241 32.0802C7.18675 32.1344 7.15164 32.2049 7.141 32.281H6.941C6.841 32.3312 6.891 32.4577 6.79 32.5591C7.016 32.7097 7.29 32.3583 7.444 32.5591C7.494 32.5591 7.344 32.6093 7.244 32.6093C7.194 32.6093 7.194 32.7097 7.144 32.7097H6.99C6.89 32.785 6.79 32.8362 6.79 32.9868C6.74665 32.9789 6.70193 32.9843 6.66163 33.0022C6.62134 33.0201 6.58732 33.0497 6.564 33.0872C7.63803 33.083 8.70271 32.8865 9.708 32.5069C10.4878 32.108 11.1939 31.5783 11.796 30.9407C11.8231 30.9678 11.8406 31.003 11.846 31.0411C11.699 31.4798 11.416 31.8603 11.04 32.1254C10.763 32.278 10.562 32.5049 10.34 32.6063C10.1917 32.6896 10.0487 32.7821 9.912 32.8834C9.28 33.0812 8.631 33.2198 7.973 33.2971L7.668 33.3413C7.443 33.3744 7.219 33.4105 6.997 33.4497L5.004 32.3071C4.93104 32.2611 4.86798 32.2008 4.81853 32.13C4.76907 32.0591 4.73421 31.979 4.716 31.8945C4.74935 31.8766 4.78083 31.8554 4.81 31.8312C4.77898 31.7982 4.74009 31.7737 4.697 31.7599V31.1073C5.74494 30.9203 6.7655 30.6026 7.735 30.1615C6.81772 29.5215 5.78681 29.0638 4.698 28.8131V27.2921C5.25307 27.3834 5.80083 27.515 6.337 27.6856C6.74976 27.8379 7.14583 28.0324 7.519 28.266C7.666 28.4065 7.826 28.534 7.997 28.6445C8.11768 28.7136 8.25253 28.7541 8.3912 28.7628C8.52987 28.7715 8.66869 28.7482 8.797 28.6947H9.127C9.84341 28.5758 10.5135 28.2614 11.064 27.786C11.064 27.8362 11.114 27.8362 11.164 27.8362C11.0857 28.2365 10.941 28.6207 10.736 28.9728C10.739 29.023 10.688 29.1254 10.789 29.1756ZM13.606 32.7599C13.857 32.6595 14.006 32.4828 14.235 32.3824C14.185 32.4326 14.185 32.533 14.135 32.5832C13.9474 32.701 13.7707 32.8354 13.607 32.9848C13.0413 33.4854 12.5116 34.0256 12.022 34.6013C11.77 34.9025 11.494 35.1816 11.222 35.4597C11.126 35.5501 11.022 35.6324 10.912 35.7057L8.385 34.2499C8.745 34.28 9.106 34.2629 9.461 34.1967C9.755 34.1133 10.041 34.0039 10.316 33.8684V33.9688C11.016 33.6907 11.548 33.0591 12.253 32.8322C12.278 32.8322 12.379 32.9326 12.479 32.8824C12.6601 32.6571 12.8904 32.4765 13.152 32.3546C13.4136 32.2328 13.6997 32.1729 13.988 32.1796C13.988 32.2298 13.988 32.28 14.038 32.28H14.063C13.912 32.4065 13.736 32.531 13.563 32.6585C13.506 32.7107 13.556 32.7599 13.606 32.7599ZM4.698 26.5722V26.3854C5.21615 26.2494 5.75054 26.1859 6.286 26.1967C6.44434 26.1714 6.60566 26.1714 6.764 26.1967C6.05843 26.196 5.35854 26.3232 4.698 26.5722ZM35.298 31.6806C35.2922 31.7864 35.2615 31.8893 35.2083 31.9807C35.155 32.0722 35.0809 32.1497 34.992 32.2067L24.913 38.0802C23.7558 37.748 22.6181 37.3511 21.505 36.8914C21.3437 36.5391 21.256 36.1573 21.2474 35.7696C21.2388 35.382 21.3095 34.9966 21.455 34.6374C21.535 34.3282 21.653 34.03 21.807 33.7509C21.832 33.7258 21.857 33.7007 21.857 33.6746C21.8636 33.6746 21.87 33.6719 21.8747 33.6672C21.8794 33.6625 21.882 33.6561 21.882 33.6495C21.9931 33.4542 22.1191 33.2679 22.259 33.0923L22.274 33.0772L22.294 33.0561L22.309 33.0411C22.309 33.016 22.334 32.9909 22.359 32.9647C22.384 32.9135 22.434 32.8884 22.459 32.8382C22.635 32.6515 22.829 32.4828 23.038 32.3362C23.251 32.2589 23.469 32.1997 23.692 32.1585C24.503 32.2188 25.309 32.3292 26.107 32.4878C26.205 32.5027 26.2992 32.5368 26.384 32.5882C26.685 32.6475 26.996 32.6294 27.289 32.538C27.4799 32.503 27.6587 32.4194 27.8084 32.2954C27.9581 32.1713 28.0736 32.0108 28.144 31.8292C28.2322 31.6672 28.2825 31.4873 28.2912 31.3029C28.2998 31.1185 28.2666 30.9345 28.194 30.7649C28.016 30.4888 28.181 30.3272 28.375 30.1726L28.443 30.1184C28.529 30.0571 28.607 29.9838 28.674 29.9015C28.8 29.6485 28.574 29.4999 28.523 29.269C28.473 29.1686 28.297 29.2188 28.196 29.0682C28.548 28.9166 29.051 28.6364 28.825 28.2077C28.674 27.9798 28.448 27.5752 28.725 27.3473C29.077 27.1465 29.58 27.1957 29.731 26.8654C29.7803 26.6741 29.7793 26.4732 29.7281 26.2825C29.6769 26.0917 29.5773 25.9175 29.439 25.777L29.364 25.6686C29.2894 25.5644 29.219 25.4572 29.153 25.3473C28.9941 25.0824 28.8177 24.8285 28.625 24.5872C28.4049 24.2743 28.2274 23.9332 28.097 23.5732C27.946 23.1947 28.147 22.8654 28.147 22.4858C28.1618 21.7548 28.0512 21.0266 27.82 20.3332C27.694 19.9788 27.644 19.5993 27.493 19.269C27.474 19.0573 27.3956 18.8554 27.267 18.6867C27.2422 18.6355 27.2294 18.5794 27.2294 18.5225C27.2294 18.4656 27.2422 18.4095 27.267 18.3583C27.472 18.2128 27.666 18.0521 27.846 17.8764C27.9015 17.7537 27.9118 17.6153 27.8752 17.4857C27.8386 17.3561 27.7574 17.2437 27.646 17.1686C27.319 17.017 27.346 17.4979 27.118 17.5993H26.967C26.917 17.4728 27.017 17.4216 27.118 17.3212C27.118 17.271 27.118 17.1696 27.068 17.1696C26.868 17.1696 26.691 17.1184 26.64 17.018C26.158 16.4149 25.5113 15.9662 24.779 15.7268C24.967 15.785 25.161 15.8182 25.358 15.8272C25.696 15.8985 26.048 15.8634 26.364 15.7268C26.591 15.6505 26.641 15.2449 26.741 15.018C26.7613 14.9076 26.7583 14.7943 26.7323 14.6852C26.7063 14.576 26.6578 14.4736 26.59 14.3844C26.3629 14.053 26.0495 13.7904 25.684 13.6254C25.4528 13.5169 25.2263 13.3986 25.005 13.271C24.928 13.2166 24.8434 13.174 24.754 13.1445C21.789 11.6535 15.685 12.9437 15.22 13.1445H15.211C14.7825 13.2693 14.3648 13.4288 13.962 13.6214C13.4074 13.8281 12.9066 14.1581 12.497 14.5867C12.0875 15.0153 11.7798 15.5314 11.597 16.0963C11.026 16.4729 10.5658 16.996 10.264 17.6114C9.836 18.4146 9.208 19.1264 9.308 20.035C9.408 20.8182 9.585 21.525 9.736 22.3332C9.779 22.6063 9.846 22.8754 9.936 23.1364C10.036 23.4136 9.936 23.768 10.087 23.9949C10.162 24.1455 10.112 24.3232 10.314 24.4246V24.6254C10.364 24.6756 10.364 24.7258 10.465 24.7258V24.9266C10.9 25.3513 11.272 25.8362 11.572 26.3664C11.672 26.6435 11.094 26.517 10.872 26.4166C10.4565 26.145 10.0762 25.8226 9.74 25.4567C9.71254 25.4837 9.69463 25.519 9.689 25.5571C9.889 25.9105 10.595 26.3403 10.217 26.5672C10.017 26.6676 9.789 26.4156 9.588 26.6174C9.538 26.6937 9.588 26.7951 9.588 26.8955C9.311 26.6947 9.01 26.7951 8.733 26.6947C8.533 26.6445 8.481 26.266 8.255 26.266C7.6585 26.1199 7.05372 26.0102 6.444 25.9376C5.86789 25.8506 5.28726 25.7969 4.705 25.777V14.766C4.70545 14.659 4.73397 14.5541 4.78769 14.4617C4.84141 14.3693 4.91844 14.2928 5.011 14.2399L19.998 5.44369L34.992 14.1555C35.0846 14.2084 35.1617 14.2849 35.2154 14.3773C35.2692 14.4697 35.2977 14.5747 35.298 14.6816V31.6806ZM27.344 23.3864C27.3138 23.4336 27.2719 23.4722 27.2225 23.4984C27.1731 23.5246 27.1178 23.5375 27.062 23.536C26.9618 23.6208 26.8676 23.7124 26.78 23.8101C26.88 23.8101 26.78 23.9597 26.88 23.9597C26.675 24.1836 26.957 24.6565 26.675 24.7559C26.305 24.8553 25.917 24.8553 25.548 24.7559C25.6029 24.7441 25.6589 24.7387 25.715 24.7399H25.8C25.8627 24.7475 25.9263 24.7393 25.9851 24.7162C26.0439 24.6931 26.0961 24.6557 26.137 24.6073V24.4065C26.137 24.3563 26.086 24.3563 26.037 24.3563C26.0108 24.3846 25.9753 24.4024 25.937 24.4065C25.9345 24.3613 25.9185 24.318 25.891 24.2821C25.8635 24.2463 25.8259 24.2196 25.783 24.2057C25.6501 24.2236 25.5148 24.2079 25.3894 24.1601C25.264 24.1122 25.1525 24.0337 25.065 23.9316C25.2006 23.8662 25.3542 23.8485 25.501 23.8814C25.629 23.8814 25.578 23.6575 25.732 23.5581H25.886C26.193 23.1846 26.757 23.0852 26.86 22.7117C26.86 22.6113 26.578 22.6113 26.373 22.5611C26.0989 22.5274 25.821 22.5445 25.553 22.6113C25.193 22.6615 24.841 22.7539 24.502 22.8864C24.782 22.6796 25.094 22.52 25.425 22.4136C25.657 22.3232 25.898 22.2559 26.143 22.2128L26.275 22.1866L26.408 22.1595C26.5894 22.1051 26.7826 22.1051 26.964 22.1595C27.195 22.2599 27.579 22.2599 27.63 22.4085C27.73 22.6826 27.476 22.9557 27.195 23.1555C27.138 23.2358 27.344 23.2911 27.344 23.3864Z" fill="#CECECE"/>
<path d="M52.56 0H27C25.8954 0 25 0.899026 25 2.00803V11.3474C25 12.4564 25.8954 13.3554 27 13.3554H52.56C53.6646 13.3554 54.56 12.4564 54.56 11.3474V2.00803C54.56 0.899026 53.6646 0 52.56 0Z" fill="#DDDDDD"/>
<path d="M27.562 11.2129V2.32535H30.483C31.453 2.32535 32.215 2.5623 32.772 3.0362C33.337 3.51009 33.619 4.15768 33.619 4.97897C33.619 5.79222 33.337 6.43479 32.772 6.90868C32.215 7.38258 31.452 7.61952 30.483 7.61952H29.358V11.2129H27.562ZM30.559 3.8615H29.358V6.08338H30.558C30.938 6.08338 31.233 5.98599 31.444 5.79222C31.664 5.59644 31.773 5.31732 31.773 4.95286C31.773 4.61451 31.663 4.34844 31.444 4.15367C31.234 3.95889 30.938 3.8615 30.559 3.8615ZM35.23 11.2129V2.32535H37.937C38.907 2.32535 39.673 2.5623 40.238 3.0362C40.803 3.51009 41.085 4.15768 41.085 4.97897C41.085 5.51109 40.959 5.97796 40.706 6.37455C40.462 6.76511 40.116 7.06531 39.669 7.27716L42.451 11.2129H40.301L37.949 7.61952H37.026V11.2129H35.23ZM38.038 3.8615H37.026V6.08338H38.038C38.418 6.08338 38.712 5.98599 38.923 5.79222C39.133 5.59644 39.239 5.31732 39.239 4.95286C39.239 4.61451 39.134 4.34844 38.923 4.15367C38.713 3.95889 38.417 3.8615 38.038 3.8615ZM47.549 2.07134C48.239 2.07134 48.872 2.19784 49.445 2.45286C50.027 2.70588 50.525 3.04523 50.937 3.46792C51.351 3.89061 51.671 4.39061 51.899 4.96591C52.126 5.53318 52.24 6.13459 52.24 6.76912C52.24 7.40366 52.126 8.00908 51.899 8.58438C51.6795 9.13879 51.3526 9.64388 50.937 10.0703C50.524 10.493 50.027 10.8314 49.445 11.0854C48.8466 11.3446 48.2007 11.4746 47.549 11.4669C46.9179 11.4734 46.2918 11.3531 45.7076 11.1133C45.1234 10.8735 44.5928 10.5189 44.147 10.0703C43.7318 9.64381 43.4052 9.13872 43.186 8.58438C42.9578 8.00672 42.8417 7.39057 42.844 6.76912C42.844 6.13358 42.958 5.53318 43.186 4.96591C43.413 4.39061 43.734 3.89162 44.147 3.46792C44.56 3.04423 45.057 2.70588 45.639 2.45186C46.2426 2.19359 46.893 2.06401 47.549 2.07134ZM47.549 9.77816C47.9401 9.78249 48.3278 9.70451 48.687 9.54924C49.041 9.3886 49.34 9.17776 49.585 8.9147C49.837 8.64362 50.035 8.32635 50.179 7.96189C50.3238 7.58115 50.3967 7.17667 50.394 6.76912C50.3976 6.36542 50.3246 5.96472 50.179 5.5884C50.0468 5.23369 49.8444 4.90956 49.584 4.63559C49.3345 4.36118 49.0284 4.14465 48.687 4.00106C48.3299 3.83785 47.9414 3.75558 47.549 3.76009C47.136 3.76009 46.752 3.84041 46.398 4.00106C46.0539 4.14657 45.744 4.3627 45.488 4.63559C45.2345 4.91246 45.0369 5.23603 44.906 5.5884C44.7604 5.96472 44.6874 6.36542 44.691 6.76912C44.691 7.19181 44.762 7.58941 44.906 7.96189C45.049 8.32635 45.243 8.64362 45.487 8.9147C45.74 9.17675 46.044 9.3886 46.397 9.54924C46.752 9.70185 47.136 9.77816 47.549 9.77816Z" fill="#929292"/>
</svg>
