<svg xmlns="http://www.w3.org/2000/svg" width="102" height="40" fill="none"><g fill="#686B6F" clip-path="url(#a)"><path d="M3.314 12.532c.677.058 1.511.54 3.178 1.504l3.943 2.28c1.326.767 1.99 1.15 2.675 1.365a6.51 6.51 0 0 0 3.896.003c.686-.214 1.35-.599 2.677-1.365l3.928-2.268c1.667-.963 2.502-1.446 3.178-1.502a3.04 3.04 0 0 1 3.003 1.733c.29.614.288 1.579.288 3.504v4.53c0 1.532 0 2.297-.157 2.998a6.509 6.509 0 0 1-1.945 3.371c-.53.487-1.193.87-2.52 1.636l-5.785 3.34c-1.326.765-1.989 1.149-2.674 1.364a6.51 6.51 0 0 1-3.892 0c-.686-.215-1.35-.597-2.675-1.362l-5.79-3.342c-1.326-.766-1.99-1.148-2.52-1.635a6.512 6.512 0 0 1-1.947-3.373C.018 24.612.02 23.846.02 22.315v-4.546c0-1.926.001-2.89.29-3.504a3.038 3.038 0 0 1 3.004-1.733ZM15.225 2.778a4.428 4.428 0 1 1 0 8.856 4.428 4.428 0 0 1 0-8.856ZM44.814 25.098c0 1.503.4 2.664 1.198 3.482.8.818 1.884 1.227 3.254 1.227s2.455-.409 3.254-1.227c.799-.818 1.198-1.98 1.198-3.482V13.54a1 1 0 0 1 1-1H56.2a1 1 0 0 1 1 1v11.272c0 1.731-.323 3.216-.97 4.453a6.616 6.616 0 0 1-2.74 2.853c-1.18.647-2.588.97-4.224.971-1.617 0-3.025-.324-4.223-.97a6.792 6.792 0 0 1-2.77-2.854c-.647-1.237-.97-2.722-.97-4.453V13.54a1 1 0 0 1 1-1h1.511a1 1 0 0 1 1 1v11.557Zm52.213-7.963a1 1 0 0 0 1 1h2.652a1 1 0 0 1 1 1v.825a1 1 0 0 1-1 1h-2.652a1 1 0 0 0-1 1v5.48c0 .627.104 1.122.314 1.483.209.361.505.628.885.799.38.152.828.228 1.341.228.495 0 .914-.028 1.256-.086.433-.096.884.22.884.665v1.197c0 .395-.231.763-.615.86-.175.044-.361.08-.555.105a8.436 8.436 0 0 1-1.485.113c-1.14 0-2.1-.2-2.88-.6a4.182 4.182 0 0 1-1.743-1.798c-.38-.798-.57-1.787-.57-2.966v-5.48a1 1 0 0 0-1-1h-.684a1 1 0 0 1-1-1v-.825a1 1 0 0 1 1-1h.684a1 1 0 0 0 1-1v-1.597a1 1 0 0 1 1-1h1.168a1 1 0 0 1 1 1v1.597ZM64.123 31.519a1 1 0 0 1-1 1h-1.511a1 1 0 0 1-1-1V13.54a1 1 0 0 1 1-1h1.51a1 1 0 0 1 1 1V31.52Zm10.21-9.82c0 .896 1.088 1.34 1.715.698l3.87-3.961a1 1 0 0 1 .716-.301h1.158c.887 0 1.335 1.069.713 1.701l-3.684 3.744a1 1 0 0 0-.1 1.284l4.352 6.072a1 1 0 0 1-.812 1.583h-1.394a1 1 0 0 1-.812-.416l-3.368-4.685a1 1 0 0 0-1.525-.117l-.542.55a1 1 0 0 0-.287.702v2.966a1 1 0 0 1-1 1h-1.168a1 1 0 0 1-1-1V12.113a1 1 0 0 1 1-1h1.168a1 1 0 0 1 1 1v9.585Zm14.861 9.82a1 1 0 0 1-1 1h-1.139a1 1 0 0 1-1-1V19.135a1 1 0 0 1 1-1h1.139a1 1 0 0 1 1 1v12.384Zm-1.541-20.575c.38 0 .723.095 1.027.285.324.19.571.447.742.77.19.304.286.647.286 1.027 0 .38-.095.733-.285 1.056-.172.323-.42.58-.743.77a2.06 2.06 0 0 1-1.027.258c-.38 0-.732-.086-1.056-.257a2.138 2.138 0 0 1-.77-.77 2.045 2.045 0 0 1-.285-1.056c0-.571.2-1.056.6-1.456a2.06 2.06 0 0 1 1.511-.627Z"/></g><defs><clipPath id="a"><rect width="102" height="40" fill="#fff" rx="8"/></clipPath></defs></svg>
