<svg width="16" height="17" viewBox="0 0 16 17" fill="none" xmlns="http://www.w3.org/2000/svg">
<rect y="0.5" width="16" height="16" rx="4" fill="#AE6257"/>
<path d="M4.7875 6.95H11.3594C11.4469 6.95 11.5219 6.92031 11.5844 6.86094C11.6469 6.79844 11.6781 6.72031 11.6781 6.62656C11.6781 6.53906 11.6469 6.46562 11.5844 6.40625C11.5219 6.34375 11.4469 6.3125 11.3594 6.3125H4.7875C4.69375 6.3125 4.61563 6.34375 4.55313 6.40625C4.49375 6.46562 4.46406 6.53906 4.46406 6.62656C4.46406 6.72031 4.49375 6.79844 4.55313 6.86094C4.61563 6.92031 4.69375 6.95 4.7875 6.95ZM4.7875 8.81562H8.125C8.21562 8.81562 8.29063 8.78437 8.35 8.72187C8.4125 8.65937 8.44375 8.58281 8.44375 8.49219C8.44375 8.40469 8.4125 8.33125 8.35 8.27187C8.29063 8.20937 8.21562 8.17812 8.125 8.17812H4.7875C4.69375 8.17812 4.61563 8.20937 4.55313 8.27187C4.49375 8.33125 4.46406 8.40469 4.46406 8.49219C4.46406 8.58281 4.49375 8.65937 4.55313 8.72187C4.61563 8.78437 4.69375 8.81562 4.7875 8.81562ZM4.08906 12.9406C3.57031 12.9406 3.175 12.8062 2.90313 12.5375C2.63438 12.2687 2.5 11.8797 2.5 11.3703V5.675C2.5 5.15937 2.63438 4.76875 2.90313 4.50312C3.175 4.23437 3.57031 4.1 4.08906 4.1H12.0531C12.5719 4.1 12.9656 4.23437 13.2344 4.50312C13.5031 4.77187 13.6375 5.1625 13.6375 5.675V11.3703C13.6375 11.8797 13.5031 12.2687 13.2344 12.5375C12.9656 12.8062 12.5719 12.9406 12.0531 12.9406H4.08906Z" fill="#F6F8F9" fill-opacity="0.95"/>
</svg>
