<svg width="16" height="17" viewBox="0 0 16 17" fill="none" xmlns="http://www.w3.org/2000/svg">
<rect y="0.5" width="16" height="16" rx="4" fill="#6D778C"/>
<path d="M3.1276 7.29055C3.1276 7.40788 3.16454 7.50782 3.23841 7.59038C3.31662 7.67294 3.41657 7.74681 3.53823 7.81199C3.6599 7.87282 3.79461 7.93366 3.94235 7.99449C4.09443 8.05533 4.24435 8.12485 4.39209 8.20307C4.53983 8.27694 4.67453 8.37036 4.7962 8.48334C4.91787 8.59197 5.01564 8.7245 5.08951 8.88093C5.16772 9.03302 5.20683 9.22204 5.20683 9.44799C5.20248 9.73478 5.13079 9.98029 4.99174 10.1845C4.85703 10.3887 4.67453 10.5474 4.44423 10.6603C4.21827 10.769 3.96625 10.8233 3.68815 10.8233C3.30576 10.8233 2.97986 10.7581 2.71046 10.6277C2.4915 10.5183 2.29407 10.3729 2.11817 10.1917C2.04938 10.1208 2.05711 10.008 2.12971 9.94104L2.52375 9.57761C2.60323 9.5043 2.72767 9.5154 2.80291 9.59304C2.90707 9.70052 3.01964 9.78905 3.14064 9.85862C3.31445 9.95856 3.49261 10.0085 3.67511 10.0085C3.80547 10.0085 3.9141 9.98681 4.00101 9.94336C4.08791 9.8999 4.15309 9.83907 4.19655 9.76085C4.24435 9.68264 4.26824 9.58921 4.26824 9.48058C4.26824 9.35891 4.23131 9.2568 4.15744 9.17424C4.08357 9.09168 3.98363 9.01781 3.85761 8.95263C3.73595 8.88745 3.60124 8.82444 3.4535 8.76361C3.30576 8.69843 3.15802 8.6289 3.01028 8.55503C2.86254 8.47682 2.72566 8.38557 2.59965 8.28128C2.47798 8.17265 2.38021 8.04012 2.30634 7.88369C2.23247 7.72726 2.19554 7.54041 2.19554 7.32314C2.19554 7.14064 2.2303 6.97117 2.29983 6.81474C2.3737 6.65397 2.47581 6.51274 2.60617 6.39108C2.73653 6.26941 2.89079 6.17381 3.06894 6.10429C3.25145 6.03476 3.45133 6 3.66859 6C4.01187 6 4.31387 6.06952 4.57459 6.20857C4.78684 6.31992 4.97681 6.46052 5.14448 6.63038C5.21466 6.70148 5.2066 6.81582 5.1325 6.88281L4.73378 7.24318C4.6546 7.31475 4.53206 7.30393 4.45898 7.22615C4.36258 7.12356 4.26206 7.0364 4.15744 6.96466C4.00535 6.86037 3.84458 6.80823 3.67511 6.80823C3.56648 6.80823 3.47088 6.82995 3.38832 6.8734C3.31011 6.91251 3.2471 6.969 3.1993 7.04287C3.1515 7.1124 3.1276 7.19496 3.1276 7.29055Z" fill="#F6F8F9" fill-opacity="0.95"/>
<path d="M10.0176 10.5756C10.1957 10.7364 10.363 10.8494 10.5195 10.9145C10.6759 10.9797 10.828 11.0123 10.9757 11.0123C11.0279 11.0123 11.0822 11.008 11.1387 10.9993C11.2194 10.9877 11.3016 11.0464 11.3016 11.128V11.6115C11.3016 11.6899 11.2525 11.761 11.1765 11.7802C11.1443 11.7884 11.1122 11.7953 11.08 11.801C11.0061 11.8184 10.9192 11.827 10.8193 11.827C10.5673 11.827 10.3218 11.7749 10.0828 11.6706C9.84811 11.5707 9.61781 11.4208 9.39186 11.2209L8.71779 10.6279C8.62297 10.5445 8.6378 10.3927 8.74698 10.3292L9.24729 10.0383C9.31767 9.9974 9.40654 10.0073 9.46616 10.0628L10.0176 10.5756ZM9.69168 8.41164C9.69168 8.19437 9.65475 7.99232 9.58088 7.80547C9.51135 7.61862 9.40924 7.45567 9.27454 7.31662C9.14418 7.17323 8.98992 7.06243 8.81176 6.98421C8.63361 6.90599 8.43807 6.86689 8.22515 6.86689C8.00788 6.86689 7.81017 6.90599 7.63201 6.98421C7.45386 7.06243 7.29743 7.17323 7.16272 7.31662C7.03236 7.45567 6.93025 7.61862 6.85638 7.80547C6.78685 7.99232 6.75209 8.19437 6.75209 8.41164C6.75209 8.6289 6.78685 8.83096 6.85638 9.01781C6.93025 9.20466 7.03236 9.36978 7.16272 9.51317C7.29743 9.65222 7.45386 9.76085 7.63201 9.83907C7.81017 9.91728 8.00788 9.95639 8.22515 9.95639C8.43807 9.95639 8.63361 9.91728 8.81176 9.83907C8.98992 9.76085 9.14418 9.65222 9.27454 9.51317C9.40924 9.36978 9.51135 9.20466 9.58088 9.01781C9.65475 8.83096 9.69168 8.6289 9.69168 8.41164ZM5.80047 8.41164C5.80047 8.08574 5.85913 7.77723 5.97646 7.48609C6.09378 7.19496 6.2589 6.93858 6.47182 6.71697C6.68908 6.49536 6.94546 6.32155 7.24094 6.19554C7.53642 6.06518 7.86449 6 8.22515 6C8.58581 6 8.91388 6.06518 9.20936 6.19554C9.50484 6.32155 9.75904 6.49536 9.97196 6.71697C10.1892 6.93858 10.3543 7.19496 10.4673 7.48609C10.5846 7.77723 10.6433 8.08574 10.6433 8.41164C10.6433 8.73754 10.5846 9.04605 10.4673 9.33719C10.3543 9.62832 10.1892 9.8847 9.97196 10.1063C9.75904 10.3279 9.50484 10.5039 9.20936 10.6343C8.91388 10.7603 8.58581 10.8233 8.22515 10.8233C7.86449 10.8233 7.53642 10.7603 7.24094 10.6343C6.94546 10.5039 6.68908 10.3279 6.47182 10.1063C6.2589 9.8847 6.09378 9.62832 5.97646 9.33719C5.85913 9.04605 5.80047 8.73754 5.80047 8.41164Z" fill="#F6F8F9" fill-opacity="0.95"/>
<path d="M11.7805 10.6929C11.6784 10.6929 11.5956 10.6101 11.5956 10.508V6.31527C11.5956 6.21315 11.6784 6.13036 11.7805 6.13036H12.3362C12.4383 6.13036 12.5211 6.21315 12.5211 6.31527V9.66719C12.5211 9.76932 12.6039 9.85211 12.706 9.85211H14.07C14.1721 9.85211 14.2549 9.93489 14.2549 10.037V10.508C14.2549 10.6101 14.1721 10.6929 14.07 10.6929H11.7805Z" fill="#F6F8F9" fill-opacity="0.95"/>
</svg>
