<svg width="16" height="17" viewBox="0 0 16 17" fill="none" xmlns="http://www.w3.org/2000/svg">
<rect y="0.5" width="16" height="16" rx="4" fill="#6D778C"/>
<path d="M1.9561 11C1.84565 11 1.7561 10.9105 1.7561 10.8V6.06089C1.7561 5.95044 1.84565 5.86089 1.9561 5.86089H3.45201C4.58261 5.86089 5.27272 6.44088 5.27272 7.39528C5.27272 8.34235 4.58261 8.92233 3.45201 8.92233H2.89861C2.84338 8.92233 2.79861 8.9671 2.79861 9.02233V10.8C2.79861 10.9105 2.70907 11 2.59861 11H1.9561ZM3.49606 6.7272H2.89861C2.84338 6.7272 2.79861 6.77197 2.79861 6.8272V7.95603C2.79861 8.01125 2.84338 8.05603 2.89861 8.05603H3.49606C3.93655 8.05603 4.20085 7.79907 4.20085 7.3806C4.20085 6.9915 3.93655 6.7272 3.49606 6.7272Z" fill="#F6F8F9" fill-opacity="0.95"/>
<path d="M6.18812 11C6.07767 11 5.98812 10.9105 5.98812 10.8V6.06089C5.98812 5.95044 6.07767 5.86089 6.18812 5.86089H8.00706C9.63689 5.86089 10.7381 7.04289 10.7381 8.43045C10.7381 9.81801 9.63689 11 8.00706 11H6.18812ZM8.02174 6.80796H7.13063C7.0754 6.80796 7.03063 6.85273 7.03063 6.90796V9.95294C7.03063 10.0082 7.0754 10.0529 7.13063 10.0529H8.02174C8.97615 10.0529 9.66626 9.3408 9.66626 8.43045C9.66626 7.51275 8.97615 6.80796 8.02174 6.80796Z" fill="#F6F8F9" fill-opacity="0.95"/>
<path d="M11.7967 11C11.6862 11 11.5967 10.9105 11.5967 10.8V6.06089C11.5967 5.95044 11.6862 5.86089 11.7967 5.86089H14.3921C14.5025 5.86089 14.5921 5.95044 14.5921 6.06089V6.5272C14.5921 6.63766 14.5025 6.7272 14.3921 6.7272H12.7392C12.684 6.7272 12.6392 6.77197 12.6392 6.8272V7.8459C12.6392 7.90113 12.684 7.9459 12.7392 7.9459H14.0984C14.2088 7.9459 14.2984 8.03545 14.2984 8.1459V8.61221C14.2984 8.72267 14.2088 8.81221 14.0984 8.81221H12.7392C12.684 8.81221 12.6392 8.85698 12.6392 8.91221V10.8C12.6392 10.9105 12.5497 11 12.4392 11H11.7967Z" fill="#F6F8F9" fill-opacity="0.95"/>
</svg>
