<svg width="16" height="17" viewBox="0 0 16 17" fill="none" xmlns="http://www.w3.org/2000/svg">
<rect y="0.5" width="16" height="16" rx="4" fill="#6D778C"/>
<path d="M4.12859 12.625C3.67467 12.625 3.36361 12.4951 3.19541 12.2352C3.02643 11.9785 3.00398 11.5998 3.12806 11.0989L3.99754 7.58892C4.10415 7.15857 4.54998 6.80971 4.99334 6.80971H13.0211C13.4644 6.80971 13.7374 7.15858 13.6308 7.58893L12.7613 11.0989C12.6372 11.5998 12.4313 11.9785 12.1436 12.2352C11.8551 12.4951 11.5105 12.625 11.1098 12.625H4.12859Z" fill="#F6F8F9" fill-opacity="0.95"/>
<path d="M12.3787 6.14735H5.15739C4.33718 6.14735 3.51239 6.79276 3.31516 7.5889L2.75 9.87038V5.44331C2.75 4.96673 2.85928 4.60779 3.07783 4.36648C3.29919 4.12216 3.60601 4 3.99829 4H5.18774C5.33344 4 5.45953 4.01056 5.56601 4.03167C5.67248 4.05279 5.77055 4.08898 5.86022 4.14026C5.94988 4.18852 6.04375 4.25639 6.14182 4.34386L6.38139 4.55651C6.49907 4.65605 6.60975 4.72693 6.71342 4.76916C6.8171 4.81139 6.94459 4.8325 7.0959 4.8325H11.0047C11.4558 4.8325 11.7976 4.95768 12.0302 5.20803C12.2388 5.42992 12.355 5.74303 12.3787 6.14735Z" fill="#F6F8F9" fill-opacity="0.95"/>
</svg>
