<svg width="37" height="38" viewBox="0 0 37 38" fill="none" xmlns="http://www.w3.org/2000/svg">
<g filter="url(#filter0_d_2456_1581)">
<rect x="7.85" y="2.85" width="24.3" height="27.3" rx="3.42778" fill="white"/>
<rect x="7.85" y="2.85" width="24.3" height="27.3" rx="3.42778" stroke="#5A8228" stroke-width="0.7"/>
<rect x="7.85" y="2.85" width="24.3" height="27.3" rx="3.42778" stroke="#F6F8F9" stroke-opacity="0.8" stroke-width="0.7"/>
<path fill-rule="evenodd" clip-rule="evenodd" d="M10.5557 6.5C10.5557 5.9784 10.9785 5.55556 11.5001 5.55556L14.5001 5.55556C15.0217 5.55556 15.4446 5.9784 15.4446 6.5C15.4446 7.0216 15.0217 7.44445 14.5001 7.44445L11.5001 7.44445C10.9785 7.44445 10.5557 7.0216 10.5557 6.5Z" fill="#5A8228"/>
<path fill-rule="evenodd" clip-rule="evenodd" d="M10.5557 6.5C10.5557 5.9784 10.9785 5.55556 11.5001 5.55556L14.5001 5.55556C15.0217 5.55556 15.4446 5.9784 15.4446 6.5C15.4446 7.0216 15.0217 7.44445 14.5001 7.44445L11.5001 7.44445C10.9785 7.44445 10.5557 7.0216 10.5557 6.5Z" fill="#F6F8F9" fill-opacity="0.15"/>
<path fill-rule="evenodd" clip-rule="evenodd" d="M10.5557 10.5C10.5557 9.9784 10.9785 9.55556 11.5001 9.55556L14.5001 9.55556C15.0217 9.55556 15.4446 9.9784 15.4446 10.5C15.4446 11.0216 15.0217 11.4444 14.5001 11.4444H11.5001C10.9785 11.4444 10.5557 11.0216 10.5557 10.5Z" fill="#5A8228"/>
<path fill-rule="evenodd" clip-rule="evenodd" d="M10.5557 10.5C10.5557 9.9784 10.9785 9.55556 11.5001 9.55556L14.5001 9.55556C15.0217 9.55556 15.4446 9.9784 15.4446 10.5C15.4446 11.0216 15.0217 11.4444 14.5001 11.4444H11.5001C10.9785 11.4444 10.5557 11.0216 10.5557 10.5Z" fill="#F6F8F9" fill-opacity="0.8"/>
<path fill-rule="evenodd" clip-rule="evenodd" d="M10.5557 14.5C10.5557 13.9784 10.9785 13.5556 11.5001 13.5556L14.5001 13.5556C15.0217 13.5556 15.4446 13.9784 15.4446 14.5C15.4446 15.0216 15.0217 15.4444 14.5001 15.4444H11.5001C10.9785 15.4444 10.5557 15.0216 10.5557 14.5Z" fill="#5A8228"/>
<path fill-rule="evenodd" clip-rule="evenodd" d="M10.5557 14.5C10.5557 13.9784 10.9785 13.5556 11.5001 13.5556L14.5001 13.5556C15.0217 13.5556 15.4446 13.9784 15.4446 14.5C15.4446 15.0216 15.0217 15.4444 14.5001 15.4444H11.5001C10.9785 15.4444 10.5557 15.0216 10.5557 14.5Z" fill="#F6F8F9" fill-opacity="0.8"/>
<path fill-rule="evenodd" clip-rule="evenodd" d="M10.5557 18.5C10.5557 17.9784 10.9785 17.5556 11.5001 17.5556H14.5001C15.0217 17.5556 15.4446 17.9784 15.4446 18.5C15.4446 19.0216 15.0217 19.4444 14.5001 19.4444H11.5001C10.9785 19.4444 10.5557 19.0216 10.5557 18.5Z" fill="#5A8228"/>
<path fill-rule="evenodd" clip-rule="evenodd" d="M10.5557 18.5C10.5557 17.9784 10.9785 17.5556 11.5001 17.5556H14.5001C15.0217 17.5556 15.4446 17.9784 15.4446 18.5C15.4446 19.0216 15.0217 19.4444 14.5001 19.4444H11.5001C10.9785 19.4444 10.5557 19.0216 10.5557 18.5Z" fill="#F6F8F9" fill-opacity="0.8"/>
<path fill-rule="evenodd" clip-rule="evenodd" d="M10.5557 22.5C10.5557 21.9784 10.9785 21.5556 11.5001 21.5556H14.5001C15.0217 21.5556 15.4446 21.9784 15.4446 22.5C15.4446 23.0216 15.0217 23.4444 14.5001 23.4444H11.5001C10.9785 23.4444 10.5557 23.0216 10.5557 22.5Z" fill="#5A8228"/>
<path fill-rule="evenodd" clip-rule="evenodd" d="M10.5557 22.5C10.5557 21.9784 10.9785 21.5556 11.5001 21.5556H14.5001C15.0217 21.5556 15.4446 21.9784 15.4446 22.5C15.4446 23.0216 15.0217 23.4444 14.5001 23.4444H11.5001C10.9785 23.4444 10.5557 23.0216 10.5557 22.5Z" fill="#F6F8F9" fill-opacity="0.8"/>
<path fill-rule="evenodd" clip-rule="evenodd" d="M10.5557 26.5C10.5557 25.9784 10.9785 25.5556 11.5001 25.5556H14.5001C15.0217 25.5556 15.4446 25.9784 15.4446 26.5C15.4446 27.0216 15.0217 27.4444 14.5001 27.4444H11.5001C10.9785 27.4444 10.5557 27.0216 10.5557 26.5Z" fill="#5A8228"/>
<path fill-rule="evenodd" clip-rule="evenodd" d="M10.5557 26.5C10.5557 25.9784 10.9785 25.5556 11.5001 25.5556H14.5001C15.0217 25.5556 15.4446 25.9784 15.4446 26.5C15.4446 27.0216 15.0217 27.4444 14.5001 27.4444H11.5001C10.9785 27.4444 10.5557 27.0216 10.5557 26.5Z" fill="#F6F8F9" fill-opacity="0.8"/>
<path fill-rule="evenodd" clip-rule="evenodd" d="M17.4443 6.49999C17.4443 5.97838 17.8672 5.55554 18.3888 5.55554H21.3888C21.9104 5.55554 22.3332 5.97838 22.3332 6.49999C22.3332 7.02159 21.9104 7.44443 21.3888 7.44443H18.3888C17.8672 7.44443 17.4443 7.02159 17.4443 6.49999Z" fill="#5A8228"/>
<path fill-rule="evenodd" clip-rule="evenodd" d="M17.4443 6.49999C17.4443 5.97838 17.8672 5.55554 18.3888 5.55554H21.3888C21.9104 5.55554 22.3332 5.97838 22.3332 6.49999C22.3332 7.02159 21.9104 7.44443 21.3888 7.44443H18.3888C17.8672 7.44443 17.4443 7.02159 17.4443 6.49999Z" fill="#F6F8F9" fill-opacity="0.15"/>
<path fill-rule="evenodd" clip-rule="evenodd" d="M17.4443 10.5C17.4443 9.97838 17.8672 9.55554 18.3888 9.55554H21.3888C21.9104 9.55554 22.3332 9.97838 22.3332 10.5C22.3332 11.0216 21.9104 11.4444 21.3888 11.4444H18.3888C17.8672 11.4444 17.4443 11.0216 17.4443 10.5Z" fill="#5A8228"/>
<path fill-rule="evenodd" clip-rule="evenodd" d="M17.4443 10.5C17.4443 9.97838 17.8672 9.55554 18.3888 9.55554H21.3888C21.9104 9.55554 22.3332 9.97838 22.3332 10.5C22.3332 11.0216 21.9104 11.4444 21.3888 11.4444H18.3888C17.8672 11.4444 17.4443 11.0216 17.4443 10.5Z" fill="#F6F8F9" fill-opacity="0.8"/>
<path fill-rule="evenodd" clip-rule="evenodd" d="M17.4443 14.5C17.4443 13.9784 17.8672 13.5555 18.3888 13.5555H21.3888C21.9104 13.5555 22.3332 13.9784 22.3332 14.5C22.3332 15.0216 21.9104 15.4444 21.3888 15.4444H18.3888C17.8672 15.4444 17.4443 15.0216 17.4443 14.5Z" fill="#5A8228"/>
<path fill-rule="evenodd" clip-rule="evenodd" d="M17.4443 14.5C17.4443 13.9784 17.8672 13.5555 18.3888 13.5555H21.3888C21.9104 13.5555 22.3332 13.9784 22.3332 14.5C22.3332 15.0216 21.9104 15.4444 21.3888 15.4444H18.3888C17.8672 15.4444 17.4443 15.0216 17.4443 14.5Z" fill="#F6F8F9" fill-opacity="0.8"/>
<path fill-rule="evenodd" clip-rule="evenodd" d="M17.4443 18.5C17.4443 17.9784 17.8672 17.5555 18.3888 17.5555H21.3888C21.9104 17.5555 22.3332 17.9784 22.3332 18.5C22.3332 19.0216 21.9104 19.4444 21.3888 19.4444H18.3888C17.8672 19.4444 17.4443 19.0216 17.4443 18.5Z" fill="#5A8228"/>
<path fill-rule="evenodd" clip-rule="evenodd" d="M17.4443 18.5C17.4443 17.9784 17.8672 17.5555 18.3888 17.5555H21.3888C21.9104 17.5555 22.3332 17.9784 22.3332 18.5C22.3332 19.0216 21.9104 19.4444 21.3888 19.4444H18.3888C17.8672 19.4444 17.4443 19.0216 17.4443 18.5Z" fill="#F6F8F9" fill-opacity="0.8"/>
<path fill-rule="evenodd" clip-rule="evenodd" d="M17.4443 22.5C17.4443 21.9784 17.8672 21.5555 18.3888 21.5555H21.3888C21.9104 21.5555 22.3332 21.9784 22.3332 22.5C22.3332 23.0216 21.9104 23.4444 21.3888 23.4444H18.3888C17.8672 23.4444 17.4443 23.0216 17.4443 22.5Z" fill="#5A8228"/>
<path fill-rule="evenodd" clip-rule="evenodd" d="M17.4443 22.5C17.4443 21.9784 17.8672 21.5555 18.3888 21.5555H21.3888C21.9104 21.5555 22.3332 21.9784 22.3332 22.5C22.3332 23.0216 21.9104 23.4444 21.3888 23.4444H18.3888C17.8672 23.4444 17.4443 23.0216 17.4443 22.5Z" fill="#F6F8F9" fill-opacity="0.8"/>
<path fill-rule="evenodd" clip-rule="evenodd" d="M17.4443 26.5C17.4443 25.9784 17.8672 25.5555 18.3888 25.5555H21.3888C21.9104 25.5555 22.3332 25.9784 22.3332 26.5C22.3332 27.0216 21.9104 27.4444 21.3888 27.4444H18.3888C17.8672 27.4444 17.4443 27.0216 17.4443 26.5Z" fill="#5A8228"/>
<path fill-rule="evenodd" clip-rule="evenodd" d="M17.4443 26.5C17.4443 25.9784 17.8672 25.5555 18.3888 25.5555H21.3888C21.9104 25.5555 22.3332 25.9784 22.3332 26.5C22.3332 27.0216 21.9104 27.4444 21.3888 27.4444H18.3888C17.8672 27.4444 17.4443 27.0216 17.4443 26.5Z" fill="#F6F8F9" fill-opacity="0.8"/>
<path fill-rule="evenodd" clip-rule="evenodd" d="M24.333 6.49999C24.333 5.97838 24.7558 5.55554 25.2775 5.55554H28.2775C28.7991 5.55554 29.2219 5.97838 29.2219 6.49999C29.2219 7.02159 28.7991 7.44443 28.2775 7.44443H25.2775C24.7558 7.44443 24.333 7.02159 24.333 6.49999Z" fill="#5A8228"/>
<path fill-rule="evenodd" clip-rule="evenodd" d="M24.333 6.49999C24.333 5.97838 24.7558 5.55554 25.2775 5.55554H28.2775C28.7991 5.55554 29.2219 5.97838 29.2219 6.49999C29.2219 7.02159 28.7991 7.44443 28.2775 7.44443H25.2775C24.7558 7.44443 24.333 7.02159 24.333 6.49999Z" fill="#F6F8F9" fill-opacity="0.15"/>
<path fill-rule="evenodd" clip-rule="evenodd" d="M24.333 10.5C24.333 9.97838 24.7558 9.55554 25.2775 9.55554H28.2775C28.7991 9.55554 29.2219 9.97838 29.2219 10.5C29.2219 11.0216 28.7991 11.4444 28.2775 11.4444H25.2775C24.7558 11.4444 24.333 11.0216 24.333 10.5Z" fill="#5A8228"/>
<path fill-rule="evenodd" clip-rule="evenodd" d="M24.333 10.5C24.333 9.97838 24.7558 9.55554 25.2775 9.55554H28.2775C28.7991 9.55554 29.2219 9.97838 29.2219 10.5C29.2219 11.0216 28.7991 11.4444 28.2775 11.4444H25.2775C24.7558 11.4444 24.333 11.0216 24.333 10.5Z" fill="#F6F8F9" fill-opacity="0.8"/>
<path fill-rule="evenodd" clip-rule="evenodd" d="M24.333 14.5C24.333 13.9784 24.7558 13.5555 25.2775 13.5555H28.2775C28.7991 13.5555 29.2219 13.9784 29.2219 14.5C29.2219 15.0216 28.7991 15.4444 28.2775 15.4444H25.2775C24.7558 15.4444 24.333 15.0216 24.333 14.5Z" fill="#5A8228"/>
<path fill-rule="evenodd" clip-rule="evenodd" d="M24.333 14.5C24.333 13.9784 24.7558 13.5555 25.2775 13.5555H28.2775C28.7991 13.5555 29.2219 13.9784 29.2219 14.5C29.2219 15.0216 28.7991 15.4444 28.2775 15.4444H25.2775C24.7558 15.4444 24.333 15.0216 24.333 14.5Z" fill="#F6F8F9" fill-opacity="0.8"/>
<path fill-rule="evenodd" clip-rule="evenodd" d="M24.333 18.5C24.333 17.9784 24.7558 17.5555 25.2775 17.5555H28.2775C28.7991 17.5555 29.2219 17.9784 29.2219 18.5C29.2219 19.0216 28.7991 19.4444 28.2775 19.4444H25.2775C24.7558 19.4444 24.333 19.0216 24.333 18.5Z" fill="#5A8228"/>
<path fill-rule="evenodd" clip-rule="evenodd" d="M24.333 18.5C24.333 17.9784 24.7558 17.5555 25.2775 17.5555H28.2775C28.7991 17.5555 29.2219 17.9784 29.2219 18.5C29.2219 19.0216 28.7991 19.4444 28.2775 19.4444H25.2775C24.7558 19.4444 24.333 19.0216 24.333 18.5Z" fill="#F6F8F9" fill-opacity="0.8"/>
<path fill-rule="evenodd" clip-rule="evenodd" d="M24.333 22.5C24.333 21.9784 24.7558 21.5555 25.2775 21.5555H28.2775C28.7991 21.5555 29.2219 21.9784 29.2219 22.5C29.2219 23.0216 28.7991 23.4444 28.2775 23.4444H25.2775C24.7558 23.4444 24.333 23.0216 24.333 22.5Z" fill="#5A8228"/>
<path fill-rule="evenodd" clip-rule="evenodd" d="M24.333 22.5C24.333 21.9784 24.7558 21.5555 25.2775 21.5555H28.2775C28.7991 21.5555 29.2219 21.9784 29.2219 22.5C29.2219 23.0216 28.7991 23.4444 28.2775 23.4444H25.2775C24.7558 23.4444 24.333 23.0216 24.333 22.5Z" fill="#F6F8F9" fill-opacity="0.8"/>
<path fill-rule="evenodd" clip-rule="evenodd" d="M24.333 26.5C24.333 25.9784 24.7558 25.5555 25.2775 25.5555H28.2775C28.7991 25.5555 29.2219 25.9784 29.2219 26.5C29.2219 27.0216 28.7991 27.4444 28.2775 27.4444H25.2775C24.7558 27.4444 24.333 27.0216 24.333 26.5Z" fill="#5A8228"/>
<path fill-rule="evenodd" clip-rule="evenodd" d="M24.333 26.5C24.333 25.9784 24.7558 25.5555 25.2775 25.5555H28.2775C28.7991 25.5555 29.2219 25.9784 29.2219 26.5C29.2219 27.0216 28.7991 27.4444 28.2775 27.4444H25.2775C24.7558 27.4444 24.333 27.0216 24.333 26.5Z" fill="#F6F8F9" fill-opacity="0.8"/>
<g filter="url(#filter1_d_2456_1581)">
<rect x="4" y="16" width="16" height="16" rx="4" fill="#5A8228"/>
<path d="M7.09546 22.1884C6.84644 22.1884 6.65161 22.1181 6.51099 21.9774C6.37036 21.8339 6.30005 21.6332 6.30005 21.3754V20.413C6.30005 20.1581 6.37036 19.9589 6.51099 19.8153C6.65161 19.6718 6.84644 19.6 7.09546 19.6H8.89282C9.14185 19.6 9.33667 19.6718 9.4773 19.8153C9.61792 19.9589 9.68823 20.1581 9.68823 20.413V21.3754C9.68823 21.6332 9.61792 21.8339 9.4773 21.9774C9.33667 22.1181 9.14185 22.1884 8.89282 22.1884H7.09546ZM11.0637 22.1884C10.8147 22.1884 10.6199 22.1181 10.4792 21.9774C10.3386 21.8339 10.2683 21.6332 10.2683 21.3754V20.413C10.2683 20.1581 10.3386 19.9589 10.4792 19.8153C10.6199 19.6718 10.8147 19.6 11.0637 19.6H12.8611C13.1101 19.6 13.3035 19.6718 13.4412 19.8153C13.5818 19.9589 13.6521 20.1581 13.6521 20.413V21.3754C13.6521 21.6332 13.5818 21.8339 13.4412 21.9774C13.3035 22.1181 13.1101 22.1884 12.8611 22.1884H11.0637ZM15.0408 22.1884C14.7888 22.1884 14.5925 22.1181 14.4519 21.9774C14.3113 21.8339 14.241 21.6332 14.241 21.3754V20.413C14.241 20.1581 14.3113 19.9589 14.4519 19.8153C14.5925 19.6718 14.7888 19.6 15.0408 19.6H16.8337C17.0828 19.6 17.2776 19.6718 17.4182 19.8153C17.5588 19.9589 17.6292 20.1581 17.6292 20.413V21.3754C17.6292 21.6332 17.5588 21.8339 17.4182 21.9774C17.2776 22.1181 17.0828 22.1884 16.8337 22.1884H15.0408ZM7.09546 25.2733C6.84644 25.2733 6.65161 25.203 6.51099 25.0624C6.37036 24.9188 6.30005 24.7196 6.30005 24.4647V23.4979C6.30005 23.2401 6.37036 23.0409 6.51099 22.9003C6.65161 22.7567 6.84644 22.685 7.09546 22.685H8.89282C9.14185 22.685 9.33667 22.7567 9.4773 22.9003C9.61792 23.0409 9.68823 23.2401 9.68823 23.4979V24.4647C9.68823 24.7196 9.61792 24.9188 9.4773 25.0624C9.33667 25.203 9.14185 25.2733 8.89282 25.2733H7.09546ZM11.0637 25.2733C10.8147 25.2733 10.6199 25.203 10.4792 25.0624C10.3386 24.9188 10.2683 24.7196 10.2683 24.4647V23.4979C10.2683 23.2401 10.3386 23.0409 10.4792 22.9003C10.6199 22.7567 10.8147 22.685 11.0637 22.685H12.8611C13.1101 22.685 13.3035 22.7567 13.4412 22.9003C13.5818 23.0409 13.6521 23.2401 13.6521 23.4979V24.4647C13.6521 24.7196 13.5818 24.9188 13.4412 25.0624C13.3035 25.203 13.1101 25.2733 12.8611 25.2733H11.0637ZM15.0408 25.2733C14.7888 25.2733 14.5925 25.203 14.4519 25.0624C14.3113 24.9188 14.241 24.7196 14.241 24.4647V23.4979C14.241 23.2401 14.3113 23.0409 14.4519 22.9003C14.5925 22.7567 14.7888 22.685 15.0408 22.685H16.8337C17.0828 22.685 17.2776 22.7567 17.4182 22.9003C17.5588 23.0409 17.6292 23.2401 17.6292 23.4979V24.4647C17.6292 24.7196 17.5588 24.9188 17.4182 25.0624C17.2776 25.203 17.0828 25.2733 16.8337 25.2733H15.0408ZM7.09546 28.3627C6.84644 28.3627 6.65161 28.2909 6.51099 28.1474C6.37036 28.0067 6.30005 27.8061 6.30005 27.5453V26.5873C6.30005 26.3266 6.37036 26.1259 6.51099 25.9853C6.65161 25.8417 6.84644 25.7699 7.09546 25.7699H8.89282C9.14185 25.7699 9.33667 25.8417 9.4773 25.9853C9.61792 26.1259 9.68823 26.3266 9.68823 26.5873V27.5453C9.68823 27.8061 9.61792 28.0067 9.4773 28.1474C9.33667 28.2909 9.14185 28.3627 8.89282 28.3627H7.09546ZM11.0637 28.3627C10.8147 28.3627 10.6199 28.2909 10.4792 28.1474C10.3386 28.0067 10.2683 27.8061 10.2683 27.5453V26.5873C10.2683 26.3266 10.3386 26.1259 10.4792 25.9853C10.6199 25.8417 10.8147 25.7699 11.0637 25.7699H12.8611C13.1101 25.7699 13.3035 25.8417 13.4412 25.9853C13.5818 26.1259 13.6521 26.3266 13.6521 26.5873V27.5453C13.6521 27.8061 13.5818 28.0067 13.4412 28.1474C13.3035 28.2909 13.1101 28.3627 12.8611 28.3627H11.0637ZM15.0408 28.3627C14.7888 28.3627 14.5925 28.2909 14.4519 28.1474C14.3113 28.0067 14.241 27.8061 14.241 27.5453V26.5873C14.241 26.3266 14.3113 26.1259 14.4519 25.9853C14.5925 25.8417 14.7888 25.7699 15.0408 25.7699H16.8337C17.0828 25.7699 17.2776 25.8417 17.4182 25.9853C17.5588 26.1259 17.6292 26.3266 17.6292 26.5873V27.5453C17.6292 27.8061 17.5588 28.0067 17.4182 28.1474C17.2776 28.2909 17.0828 28.3627 16.8337 28.3627H15.0408Z" fill="#F6F8F9" fill-opacity="0.95"/>
</g>
</g>
<defs>
<filter id="filter0_d_2456_1581" x="0" y="-2" width="40" height="40" filterUnits="userSpaceOnUse" color-interpolation-filters="sRGB">
<feFlood flood-opacity="0" result="BackgroundImageFix"/>
<feColorMatrix in="SourceAlpha" type="matrix" values="0 0 0 0 0 0 0 0 0 0 0 0 0 0 0 0 0 0 127 0" result="hardAlpha"/>
<feOffset dy="2"/>
<feGaussianBlur stdDeviation="2"/>
<feComposite in2="hardAlpha" operator="out"/>
<feColorMatrix type="matrix" values="0 0 0 0 0.0941176 0 0 0 0 0.105882 0 0 0 0 0.141176 0 0 0 0.05 0"/>
<feBlend mode="normal" in2="BackgroundImageFix" result="effect1_dropShadow_2456_1581"/>
<feBlend mode="normal" in="SourceGraphic" in2="effect1_dropShadow_2456_1581" result="shape"/>
</filter>
<filter id="filter1_d_2456_1581" x="4" y="14" width="18" height="18" filterUnits="userSpaceOnUse" color-interpolation-filters="sRGB">
<feFlood flood-opacity="0" result="BackgroundImageFix"/>
<feColorMatrix in="SourceAlpha" type="matrix" values="0 0 0 0 0 0 0 0 0 0 0 0 0 0 0 0 0 0 127 0" result="hardAlpha"/>
<feOffset dx="1" dy="-1"/>
<feGaussianBlur stdDeviation="0.5"/>
<feComposite in2="hardAlpha" operator="out"/>
<feColorMatrix type="matrix" values="0 0 0 0 0 0 0 0 0 0 0 0 0 0 0 0 0 0 0.04 0"/>
<feBlend mode="normal" in2="BackgroundImageFix" result="effect1_dropShadow_2456_1581"/>
<feBlend mode="normal" in="SourceGraphic" in2="effect1_dropShadow_2456_1581" result="shape"/>
</filter>
</defs>
</svg>
