<svg width="32" height="32" viewBox="0 0 32 32" fill="none" xmlns="http://www.w3.org/2000/svg">
<g clip-path="url(#clip0_6656_9589)">
<mask id="mask0_6656_9589" style="mask-type:alpha" maskUnits="userSpaceOnUse" x="4" y="0" width="24" height="32">
<path d="M4.38802 1.94379C4 2.70532 4 3.70221 4 5.696V26.304C4 28.2978 4 29.2947 4.38802 30.0562C4.72933 30.7261 5.27394 31.2707 5.94379 31.612C6.70532 32 7.70221 32 9.696 32H22.304C24.2978 32 25.2947 32 26.0562 31.612C26.7261 31.2707 27.2707 30.7261 27.612 30.0562C28 29.2947 28 28.2978 28 26.304V8.98822C28 8.25445 28 7.88757 27.9171 7.5423C27.8436 7.2362 27.7224 6.94356 27.5579 6.67515C27.3724 6.3724 27.113 6.11297 26.5941 5.59411L22.4059 1.40589C21.887 0.887032 21.6276 0.627605 21.3249 0.442079C21.0564 0.277593 20.7638 0.15638 20.4577 0.0828902C20.1124 0 19.7455 0 19.0118 0H9.696C7.70221 0 6.70532 0 5.94379 0.388017C5.27394 0.729326 4.72933 1.27394 4.38802 1.94379Z" fill="#D9D9D9"/>
</mask>
<g mask="url(#mask0_6656_9589)">
<path d="M4.38802 1.94379C4 2.70532 4 3.70221 4 5.696V26.304C4 28.2978 4 29.2947 4.38802 30.0562C4.72933 30.7261 5.27394 31.2707 5.94379 31.612C6.70532 32 7.70221 32 9.696 32H22.304C24.2978 32 25.2947 32 26.0562 31.612C26.7261 31.2707 27.2707 30.7261 27.612 30.0562C28 29.2947 28 28.2978 28 26.304V8.98822C28 8.25445 28 7.88757 27.9171 7.5423C27.8436 7.2362 27.7224 6.94356 27.5579 6.67515C27.3724 6.3724 27.113 6.11297 26.5941 5.59411L22.4059 1.40589C21.887 0.887032 21.6276 0.627605 21.3249 0.442079C21.0564 0.277593 20.7638 0.15638 20.4577 0.0828902C20.1124 0 19.7455 0 19.0118 0H9.696C7.70221 0 6.70532 0 5.94379 0.388017C5.27394 0.729326 4.72933 1.27394 4.38802 1.94379Z" fill="white"/>
<g filter="url(#filter0_d_6656_9589)">
<mask id="path-4-inside-1_6656_9589" fill="white">
<path d="M20.0964 4.44V0H28.0964V8H23.6564C21.6903 8 20.0964 6.40613 20.0964 4.44Z"/>
</mask>
<path d="M20.0964 4.44V0H28.0964V8H23.6564C21.6903 8 20.0964 6.40613 20.0964 4.44Z" fill="#6D778C"/>
<path d="M20.0964 4.44V0H28.0964V8H23.6564C21.6903 8 20.0964 6.40613 20.0964 4.44Z" fill="#F6F8F9" fill-opacity="0.9"/>
<path d="M20.0964 0V-0.7H19.3964V0H20.0964ZM28.0964 8V8.7H28.7964V8H28.0964ZM28.0964 0H28.7964V-0.7H28.0964V0ZM20.0964 0H19.3964V4.44H20.0964H20.7964V0H20.0964ZM23.6564 8V8.7H28.0964V8V7.3H23.6564V8ZM20.0964 0V0.7H28.0964V0V-0.7H20.0964V0ZM28.0964 0H27.3964V8H28.0964H28.7964V0H28.0964ZM20.0964 4.44H19.3964C19.3964 6.79273 21.3037 8.7 23.6564 8.7V8V7.3C22.0769 7.3 20.7964 6.01953 20.7964 4.44H20.0964Z" fill="#6D778C" mask="url(#path-4-inside-1_6656_9589)"/>
<path d="M20.0964 0V-0.7H19.3964V0H20.0964ZM28.0964 8V8.7H28.7964V8H28.0964ZM28.0964 0H28.7964V-0.7H28.0964V0ZM20.0964 0H19.3964V4.44H20.0964H20.7964V0H20.0964ZM23.6564 8V8.7H28.0964V8V7.3H23.6564V8ZM20.0964 0V0.7H28.0964V0V-0.7H20.0964V0ZM28.0964 0H27.3964V8H28.0964H28.7964V0H28.0964ZM20.0964 4.44H19.3964C19.3964 6.79273 21.3037 8.7 23.6564 8.7V8V7.3C22.0769 7.3 20.7964 6.01953 20.7964 4.44H20.0964Z" fill="#F6F8F9" fill-opacity="0.8" mask="url(#path-4-inside-1_6656_9589)"/>
</g>
<path d="M9.69629 0.349609H19.0117C19.7621 0.349609 20.0804 0.351904 20.376 0.422852C20.6462 0.487732 20.9046 0.595062 21.1416 0.740234C21.4008 0.899068 21.6277 1.12278 22.1582 1.65332L26.3467 5.8418C26.8772 6.37234 27.1009 6.5992 27.2598 6.8584C27.4049 7.09539 27.5123 7.35378 27.5771 7.62402C27.6481 7.91961 27.6504 8.23793 27.6504 8.98828V26.3037C27.6504 27.3061 27.6496 28.0373 27.6025 28.6133C27.5558 29.1853 27.4645 29.5743 27.2998 29.8975C26.9921 30.5013 26.5013 30.9921 25.8975 31.2998C25.5743 31.4645 25.1853 31.5558 24.6133 31.6025C24.0373 31.6496 23.3061 31.6504 22.3037 31.6504H9.69629C8.69386 31.6504 7.96274 31.6496 7.38672 31.6025C6.81473 31.5558 6.42574 31.4645 6.10254 31.2998C5.49874 30.9921 5.00791 30.5013 4.7002 29.8975C4.53552 29.5743 4.44419 29.1853 4.39746 28.6133C4.35043 28.0373 4.34961 27.3061 4.34961 26.3037V5.69629C4.34961 4.69386 4.35043 3.96274 4.39746 3.38672C4.44419 2.81473 4.53552 2.42574 4.7002 2.10254C5.00791 1.49874 5.49874 1.00791 6.10254 0.700195C6.42574 0.535517 6.81473 0.444195 7.38672 0.397461C7.96274 0.350426 8.69386 0.349609 9.69629 0.349609Z" stroke="#6D778C" stroke-width="0.7"/>
<path d="M9.69629 0.349609H19.0117C19.7621 0.349609 20.0804 0.351904 20.376 0.422852C20.6462 0.487732 20.9046 0.595062 21.1416 0.740234C21.4008 0.899068 21.6277 1.12278 22.1582 1.65332L26.3467 5.8418C26.8772 6.37234 27.1009 6.5992 27.2598 6.8584C27.4049 7.09539 27.5123 7.35378 27.5771 7.62402C27.6481 7.91961 27.6504 8.23793 27.6504 8.98828V26.3037C27.6504 27.3061 27.6496 28.0373 27.6025 28.6133C27.5558 29.1853 27.4645 29.5743 27.2998 29.8975C26.9921 30.5013 26.5013 30.9921 25.8975 31.2998C25.5743 31.4645 25.1853 31.5558 24.6133 31.6025C24.0373 31.6496 23.3061 31.6504 22.3037 31.6504H9.69629C8.69386 31.6504 7.96274 31.6496 7.38672 31.6025C6.81473 31.5558 6.42574 31.4645 6.10254 31.2998C5.49874 30.9921 5.00791 30.5013 4.7002 29.8975C4.53552 29.5743 4.44419 29.1853 4.39746 28.6133C4.35043 28.0373 4.34961 27.3061 4.34961 26.3037V5.69629C4.34961 4.69386 4.35043 3.96274 4.39746 3.38672C4.44419 2.81473 4.53552 2.42574 4.7002 2.10254C5.00791 1.49874 5.49874 1.00791 6.10254 0.700195C6.42574 0.535517 6.81473 0.444195 7.38672 0.397461C7.96274 0.350426 8.69386 0.349609 9.69629 0.349609Z" stroke="#F6F8F9" stroke-opacity="0.8" stroke-width="0.7"/>
</g>
</g>
<rect y="16" width="16" height="16" rx="4" fill="#6D778C"/>
<path d="M3.1276 22.7906C3.1276 22.9079 3.16454 23.0078 3.23841 23.0904C3.31662 23.1729 3.41657 23.2468 3.53823 23.312C3.6599 23.3728 3.79461 23.4337 3.94235 23.4945C4.09443 23.5553 4.24435 23.6249 4.39209 23.7031C4.53983 23.7769 4.67453 23.8704 4.7962 23.9833C4.91787 24.092 5.01564 24.2245 5.08951 24.3809C5.16772 24.533 5.20683 24.722 5.20683 24.948C5.20248 25.2348 5.13079 25.4803 4.99174 25.6845C4.85703 25.8887 4.67453 26.0474 4.44423 26.1603C4.21827 26.269 3.96625 26.3233 3.68815 26.3233C3.30576 26.3233 2.97986 26.2581 2.71046 26.1277C2.4915 26.0183 2.29407 25.8729 2.11817 25.6917C2.04938 25.6208 2.05711 25.508 2.12971 25.441L2.52375 25.0776C2.60323 25.0043 2.72767 25.0154 2.80291 25.093C2.90707 25.2005 3.01964 25.289 3.14064 25.3586C3.31445 25.4586 3.49261 25.5085 3.67511 25.5085C3.80547 25.5085 3.9141 25.4868 4.00101 25.4434C4.08791 25.3999 4.15309 25.3391 4.19655 25.2609C4.24435 25.1826 4.26824 25.0892 4.26824 24.9806C4.26824 24.8589 4.23131 24.7568 4.15744 24.6742C4.08357 24.5917 3.98363 24.5178 3.85761 24.4526C3.73595 24.3874 3.60124 24.3244 3.4535 24.2636C3.30576 24.1984 3.15802 24.1289 3.01028 24.055C2.86254 23.9768 2.72566 23.8856 2.59965 23.7813C2.47798 23.6726 2.38021 23.5401 2.30634 23.3837C2.23247 23.2273 2.19554 23.0404 2.19554 22.8231C2.19554 22.6406 2.2303 22.4712 2.29983 22.3147C2.3737 22.154 2.47581 22.0127 2.60617 21.8911C2.73653 21.7694 2.89079 21.6738 3.06894 21.6043C3.25145 21.5348 3.45133 21.5 3.66859 21.5C4.01187 21.5 4.31387 21.5695 4.57459 21.7086C4.78684 21.8199 4.97681 21.9605 5.14448 22.1304C5.21466 22.2015 5.2066 22.3158 5.1325 22.3828L4.73378 22.7432C4.6546 22.8147 4.53206 22.8039 4.45898 22.7262C4.36258 22.6236 4.26206 22.5364 4.15744 22.4647C4.00535 22.3604 3.84458 22.3082 3.67511 22.3082C3.56648 22.3082 3.47088 22.33 3.38832 22.3734C3.31011 22.4125 3.2471 22.469 3.1993 22.5429C3.1515 22.6124 3.1276 22.695 3.1276 22.7906Z" fill="#F6F8F9" fill-opacity="0.95"/>
<path d="M10.0176 26.0756C10.1957 26.2364 10.363 26.3494 10.5195 26.4145C10.6759 26.4797 10.828 26.5123 10.9757 26.5123C11.0279 26.5123 11.0822 26.508 11.1387 26.4993C11.2194 26.4877 11.3016 26.5464 11.3016 26.628V27.1115C11.3016 27.1899 11.2525 27.261 11.1765 27.2802C11.1443 27.2884 11.1122 27.2953 11.08 27.301C11.0061 27.3184 10.9192 27.327 10.8193 27.327C10.5673 27.327 10.3218 27.2749 10.0828 27.1706C9.84811 27.0707 9.61781 26.9208 9.39186 26.7209L8.71779 26.1279C8.62297 26.0445 8.6378 25.8927 8.74698 25.8292L9.24729 25.5383C9.31767 25.4974 9.40654 25.5073 9.46616 25.5628L10.0176 26.0756ZM9.69168 23.9116C9.69168 23.6944 9.65475 23.4923 9.58088 23.3055C9.51135 23.1186 9.40924 22.9557 9.27454 22.8166C9.14418 22.6732 8.98992 22.5624 8.81176 22.4842C8.63361 22.406 8.43807 22.3669 8.22515 22.3669C8.00788 22.3669 7.81017 22.406 7.63201 22.4842C7.45386 22.5624 7.29743 22.6732 7.16272 22.8166C7.03236 22.9557 6.93025 23.1186 6.85638 23.3055C6.78685 23.4923 6.75209 23.6944 6.75209 23.9116C6.75209 24.1289 6.78685 24.331 6.85638 24.5178C6.93025 24.7047 7.03236 24.8698 7.16272 25.0132C7.29743 25.1522 7.45386 25.2609 7.63201 25.3391C7.81017 25.4173 8.00788 25.4564 8.22515 25.4564C8.43807 25.4564 8.63361 25.4173 8.81176 25.3391C8.98992 25.2609 9.14418 25.1522 9.27454 25.0132C9.40924 24.8698 9.51135 24.7047 9.58088 24.5178C9.65475 24.331 9.69168 24.1289 9.69168 23.9116ZM5.80047 23.9116C5.80047 23.5857 5.85913 23.2772 5.97646 22.9861C6.09378 22.695 6.2589 22.4386 6.47182 22.217C6.68908 21.9954 6.94546 21.8216 7.24094 21.6955C7.53642 21.5652 7.86449 21.5 8.22515 21.5C8.58581 21.5 8.91388 21.5652 9.20936 21.6955C9.50484 21.8216 9.75904 21.9954 9.97196 22.217C10.1892 22.4386 10.3543 22.695 10.4673 22.9861C10.5846 23.2772 10.6433 23.5857 10.6433 23.9116C10.6433 24.2375 10.5846 24.5461 10.4673 24.8372C10.3543 25.1283 10.1892 25.3847 9.97196 25.6063C9.75904 25.8279 9.50484 26.0039 9.20936 26.1343C8.91388 26.2603 8.58581 26.3233 8.22515 26.3233C7.86449 26.3233 7.53642 26.2603 7.24094 26.1343C6.94546 26.0039 6.68908 25.8279 6.47182 25.6063C6.2589 25.3847 6.09378 25.1283 5.97646 24.8372C5.85913 24.5461 5.80047 24.2375 5.80047 23.9116Z" fill="#F6F8F9" fill-opacity="0.95"/>
<path d="M11.7805 26.1929C11.6784 26.1929 11.5956 26.1101 11.5956 26.008V21.8153C11.5956 21.7131 11.6784 21.6304 11.7805 21.6304H12.3362C12.4383 21.6304 12.5211 21.7131 12.5211 21.8153V25.1672C12.5211 25.2693 12.6039 25.3521 12.706 25.3521H14.07C14.1721 25.3521 14.2549 25.4349 14.2549 25.537V26.008C14.2549 26.1101 14.1721 26.1929 14.07 26.1929H11.7805Z" fill="#F6F8F9" fill-opacity="0.95"/>
<defs>
<filter id="filter0_d_6656_9589" x="18.0964" y="-2" width="12" height="12" filterUnits="userSpaceOnUse" color-interpolation-filters="sRGB">
<feFlood flood-opacity="0" result="BackgroundImageFix"/>
<feColorMatrix in="SourceAlpha" type="matrix" values="0 0 0 0 0 0 0 0 0 0 0 0 0 0 0 0 0 0 127 0" result="hardAlpha"/>
<feOffset/>
<feGaussianBlur stdDeviation="1"/>
<feComposite in2="hardAlpha" operator="out"/>
<feColorMatrix type="matrix" values="0 0 0 0 0 0 0 0 0 0 0 0 0 0 0 0 0 0 0.1 0"/>
<feBlend mode="normal" in2="BackgroundImageFix" result="effect1_dropShadow_6656_9589"/>
<feBlend mode="normal" in="SourceGraphic" in2="effect1_dropShadow_6656_9589" result="shape"/>
</filter>
<clipPath id="clip0_6656_9589">
<rect x="4" width="24" height="32" rx="3.55556" fill="white"/>
</clipPath>
</defs>
</svg>
