<svg width="32" height="32" viewBox="0 0 32 32" fill="none" xmlns="http://www.w3.org/2000/svg">
<rect x="2.35" y="5.35" width="26.3" height="21.3" rx="3.42778" fill="#6D778C"/>
<rect x="2.35" y="5.35" width="26.3" height="21.3" rx="3.42778" fill="#F6F8F9" fill-opacity="0.975"/>
<rect x="2.35" y="5.35" width="26.3" height="21.3" rx="3.42778" stroke="#6D778C" stroke-width="0.7"/>
<rect x="2.35" y="5.35" width="26.3" height="21.3" rx="3.42778" stroke="#F6F8F9" stroke-opacity="0.8" stroke-width="0.7"/>
<path d="M12.7864 18.7658V13.2304C12.7864 12.987 12.8511 12.8043 12.9804 12.6826C13.1097 12.5609 13.2645 12.5 13.4445 12.5C13.6018 12.5 13.7565 12.5431 13.9087 12.6293L18.5119 15.3152C18.6869 15.4167 18.8175 15.5194 18.9038 15.6234C18.99 15.7248 19.0331 15.8504 19.0331 16C19.0331 16.1446 18.99 16.2701 18.9038 16.3766C18.8175 16.4806 18.6869 16.5821 18.5119 16.681L13.9087 19.3668C13.7565 19.4556 13.6018 19.5 13.4445 19.5C13.2645 19.5 13.1097 19.4379 12.9804 19.3136C12.8511 19.1918 12.7864 19.0092 12.7864 18.7658Z" fill="#3A7EA0"/>
<path d="M12.7864 18.7658V13.2304C12.7864 12.987 12.8511 12.8043 12.9804 12.6826C13.1097 12.5609 13.2645 12.5 13.4445 12.5C13.6018 12.5 13.7565 12.5431 13.9087 12.6293L18.5119 15.3152C18.6869 15.4167 18.8175 15.5194 18.9038 15.6234C18.99 15.7248 19.0331 15.8504 19.0331 16C19.0331 16.1446 18.99 16.2701 18.9038 16.3766C18.8175 16.4806 18.6869 16.5821 18.5119 16.681L13.9087 19.3668C13.7565 19.4556 13.6018 19.5 13.4445 19.5C13.2645 19.5 13.1097 19.4379 12.9804 19.3136C12.8511 19.1918 12.7864 19.0092 12.7864 18.7658Z" fill="#F6F8F9" fill-opacity="0.15"/>
<path fill-rule="evenodd" clip-rule="evenodd" d="M4.5 8.36977C4.5 7.88941 4.88941 7.5 5.36977 7.5H7.21165C7.69201 7.5 8.08142 7.88941 8.08142 8.36977C8.08142 8.85014 7.69201 9.23955 7.21165 9.23955H5.36977C4.88941 9.23955 4.5 8.85014 4.5 8.36977Z" fill="#3A7EA0"/>
<path fill-rule="evenodd" clip-rule="evenodd" d="M4.5 8.36977C4.5 7.88941 4.88941 7.5 5.36977 7.5H7.21165C7.69201 7.5 8.08142 7.88941 8.08142 8.36977C8.08142 8.85014 7.69201 9.23955 7.21165 9.23955H5.36977C4.88941 9.23955 4.5 8.85014 4.5 8.36977Z" fill="#F6F8F9" fill-opacity="0.65"/>
<path fill-rule="evenodd" clip-rule="evenodd" d="M9.10449 8.36977C9.10449 7.88941 9.4939 7.5 9.97427 7.5H11.8161C12.2965 7.5 12.6859 7.88941 12.6859 8.36977C12.6859 8.85014 12.2965 9.23955 11.8161 9.23955H9.97427C9.4939 9.23955 9.10449 8.85014 9.10449 8.36977Z" fill="#3A7EA0"/>
<path fill-rule="evenodd" clip-rule="evenodd" d="M9.10449 8.36977C9.10449 7.88941 9.4939 7.5 9.97427 7.5H11.8161C12.2965 7.5 12.6859 7.88941 12.6859 8.36977C12.6859 8.85014 12.2965 9.23955 11.8161 9.23955H9.97427C9.4939 9.23955 9.10449 8.85014 9.10449 8.36977Z" fill="#F6F8F9" fill-opacity="0.65"/>
<path fill-rule="evenodd" clip-rule="evenodd" d="M13.7095 8.36977C13.7095 7.88941 14.0989 7.5 14.5792 7.5H16.4211C16.9015 7.5 17.2909 7.88941 17.2909 8.36977C17.2909 8.85014 16.9015 9.23955 16.4211 9.23955H14.5792C14.0989 9.23955 13.7095 8.85014 13.7095 8.36977Z" fill="#3A7EA0"/>
<path fill-rule="evenodd" clip-rule="evenodd" d="M13.7095 8.36977C13.7095 7.88941 14.0989 7.5 14.5792 7.5H16.4211C16.9015 7.5 17.2909 7.88941 17.2909 8.36977C17.2909 8.85014 16.9015 9.23955 16.4211 9.23955H14.5792C14.0989 9.23955 13.7095 8.85014 13.7095 8.36977Z" fill="#F6F8F9" fill-opacity="0.65"/>
<path fill-rule="evenodd" clip-rule="evenodd" d="M18.314 8.36977C18.314 7.88941 18.7034 7.5 19.1837 7.5H21.0256C21.506 7.5 21.8954 7.88941 21.8954 8.36977C21.8954 8.85014 21.506 9.23955 21.0256 9.23955H19.1837C18.7034 9.23955 18.314 8.85014 18.314 8.36977Z" fill="#3A7EA0"/>
<path fill-rule="evenodd" clip-rule="evenodd" d="M18.314 8.36977C18.314 7.88941 18.7034 7.5 19.1837 7.5H21.0256C21.506 7.5 21.8954 7.88941 21.8954 8.36977C21.8954 8.85014 21.506 9.23955 21.0256 9.23955H19.1837C18.7034 9.23955 18.314 8.85014 18.314 8.36977Z" fill="#F6F8F9" fill-opacity="0.65"/>
<path fill-rule="evenodd" clip-rule="evenodd" d="M22.9185 8.36977C22.9185 7.88941 23.3079 7.5 23.7882 7.5H25.6301C26.1105 7.5 26.4999 7.88941 26.4999 8.36977C26.4999 8.85014 26.1105 9.23955 25.6301 9.23955H23.7882C23.3079 9.23955 22.9185 8.85014 22.9185 8.36977Z" fill="#3A7EA0"/>
<path fill-rule="evenodd" clip-rule="evenodd" d="M22.9185 8.36977C22.9185 7.88941 23.3079 7.5 23.7882 7.5H25.6301C26.1105 7.5 26.4999 7.88941 26.4999 8.36977C26.4999 8.85014 26.1105 9.23955 25.6301 9.23955H23.7882C23.3079 9.23955 22.9185 8.85014 22.9185 8.36977Z" fill="#F6F8F9" fill-opacity="0.65"/>
<path fill-rule="evenodd" clip-rule="evenodd" d="M4.5 23.6298C4.5 23.1494 4.88941 22.76 5.36977 22.76H7.21165C7.69201 22.76 8.08142 23.1494 8.08142 23.6298C8.08142 24.1101 7.69201 24.4996 7.21165 24.4996H5.36977C4.88941 24.4996 4.5 24.1101 4.5 23.6298Z" fill="#3A7EA0"/>
<path fill-rule="evenodd" clip-rule="evenodd" d="M4.5 23.6298C4.5 23.1494 4.88941 22.76 5.36977 22.76H7.21165C7.69201 22.76 8.08142 23.1494 8.08142 23.6298C8.08142 24.1101 7.69201 24.4996 7.21165 24.4996H5.36977C4.88941 24.4996 4.5 24.1101 4.5 23.6298Z" fill="#F6F8F9" fill-opacity="0.65"/>
<path fill-rule="evenodd" clip-rule="evenodd" d="M9.10449 23.6298C9.10449 23.1494 9.4939 22.76 9.97427 22.76H11.8161C12.2965 22.76 12.6859 23.1494 12.6859 23.6298C12.6859 24.1101 12.2965 24.4996 11.8161 24.4996H9.97427C9.4939 24.4996 9.10449 24.1101 9.10449 23.6298Z" fill="#3A7EA0"/>
<path fill-rule="evenodd" clip-rule="evenodd" d="M9.10449 23.6298C9.10449 23.1494 9.4939 22.76 9.97427 22.76H11.8161C12.2965 22.76 12.6859 23.1494 12.6859 23.6298C12.6859 24.1101 12.2965 24.4996 11.8161 24.4996H9.97427C9.4939 24.4996 9.10449 24.1101 9.10449 23.6298Z" fill="#F6F8F9" fill-opacity="0.65"/>
<path fill-rule="evenodd" clip-rule="evenodd" d="M13.7095 23.6298C13.7095 23.1494 14.0989 22.76 14.5792 22.76H16.4211C16.9015 22.76 17.2909 23.1494 17.2909 23.6298C17.2909 24.1101 16.9015 24.4996 16.4211 24.4996H14.5792C14.0989 24.4996 13.7095 24.1101 13.7095 23.6298Z" fill="#3A7EA0"/>
<path fill-rule="evenodd" clip-rule="evenodd" d="M13.7095 23.6298C13.7095 23.1494 14.0989 22.76 14.5792 22.76H16.4211C16.9015 22.76 17.2909 23.1494 17.2909 23.6298C17.2909 24.1101 16.9015 24.4996 16.4211 24.4996H14.5792C14.0989 24.4996 13.7095 24.1101 13.7095 23.6298Z" fill="#F6F8F9" fill-opacity="0.65"/>
<path fill-rule="evenodd" clip-rule="evenodd" d="M18.314 23.6298C18.314 23.1494 18.7034 22.76 19.1837 22.76H21.0256C21.506 22.76 21.8954 23.1494 21.8954 23.6298C21.8954 24.1101 21.506 24.4996 21.0256 24.4996H19.1837C18.7034 24.4996 18.314 24.1101 18.314 23.6298Z" fill="#3A7EA0"/>
<path fill-rule="evenodd" clip-rule="evenodd" d="M18.314 23.6298C18.314 23.1494 18.7034 22.76 19.1837 22.76H21.0256C21.506 22.76 21.8954 23.1494 21.8954 23.6298C21.8954 24.1101 21.506 24.4996 21.0256 24.4996H19.1837C18.7034 24.4996 18.314 24.1101 18.314 23.6298Z" fill="#F6F8F9" fill-opacity="0.65"/>
<path fill-rule="evenodd" clip-rule="evenodd" d="M22.9185 23.6298C22.9185 23.1494 23.3079 22.76 23.7882 22.76H25.6301C26.1105 22.76 26.4999 23.1494 26.4999 23.6298C26.4999 24.1101 26.1105 24.4996 25.6301 24.4996H23.7882C23.3079 24.4996 22.9185 24.1101 22.9185 23.6298Z" fill="#3A7EA0"/>
<path fill-rule="evenodd" clip-rule="evenodd" d="M22.9185 23.6298C22.9185 23.1494 23.3079 22.76 23.7882 22.76H25.6301C26.1105 22.76 26.4999 23.1494 26.4999 23.6298C26.4999 24.1101 26.1105 24.4996 25.6301 24.4996H23.7882C23.3079 24.4996 22.9185 24.1101 22.9185 23.6298Z" fill="#F6F8F9" fill-opacity="0.65"/>
</svg>
