<svg width="32" height="32" viewBox="0 0 32 32" fill="none" xmlns="http://www.w3.org/2000/svg">
<rect x="2.85" y="5.85" width="26.3" height="21.3" rx="3.42778" fill="#6D778C"/>
<rect x="2.85" y="5.85" width="26.3" height="21.3" rx="3.42778" fill="#F6F8F9" fill-opacity="0.975"/>
<rect x="2.85" y="5.85" width="26.3" height="21.3" rx="3.42778" stroke="#6D778C" stroke-width="0.7"/>
<rect x="2.85" y="5.85" width="26.3" height="21.3" rx="3.42778" stroke="#F6F8F9" stroke-opacity="0.8" stroke-width="0.7"/>
<path d="M11.1501 13.8098C11.548 14.0383 11.9865 14.1525 12.4655 14.1525C12.9446 14.1525 13.3794 14.0383 13.77 13.8098C14.1606 13.574 14.4738 13.2571 14.7096 12.8591C14.9454 12.4612 15.0633 12.0227 15.0633 11.5437C15.0633 11.072 14.9454 10.6372 14.7096 10.2392C14.4738 9.84128 14.1606 9.52439 13.77 9.28856C13.3794 9.05273 12.9446 8.93481 12.4655 8.93481C11.9865 8.93481 11.548 9.05273 11.1501 9.28856C10.7595 9.52439 10.4463 9.84128 10.2104 10.2392C9.9746 10.6372 9.85669 11.072 9.85669 11.5437C9.85669 12.0227 9.9746 12.4612 10.2104 12.8591C10.4463 13.2571 10.7595 13.574 11.1501 13.8098Z" fill="#9B6F02"/>
<path d="M11.1501 13.8098C11.548 14.0383 11.9865 14.1525 12.4655 14.1525C12.9446 14.1525 13.3794 14.0383 13.77 13.8098C14.1606 13.574 14.4738 13.2571 14.7096 12.8591C14.9454 12.4612 15.0633 12.0227 15.0633 11.5437C15.0633 11.072 14.9454 10.6372 14.7096 10.2392C14.4738 9.84128 14.1606 9.52439 13.77 9.28856C13.3794 9.05273 12.9446 8.93481 12.4655 8.93481C11.9865 8.93481 11.548 9.05273 11.1501 9.28856C10.7595 9.52439 10.4463 9.84128 10.2104 10.2392C9.9746 10.6372 9.85669 11.072 9.85669 11.5437C9.85669 12.0227 9.9746 12.4612 10.2104 12.8591C10.4463 13.2571 10.7595 13.574 11.1501 13.8098Z" fill="#F6F8F9" fill-opacity="0.15"/>
<path d="M8.96908 18.1188C9.48821 17.3845 9.74777 17.0174 10.0663 16.8862C10.3452 16.7713 10.6548 16.7713 10.9338 16.8862C11.2522 17.0174 11.5118 17.3845 12.0309 18.1188L13.9066 20.7717C14.6415 21.8111 15.0089 22.3308 14.9998 22.7657C14.9919 23.1441 14.8237 23.4989 14.5416 23.7321C14.2173 24.0001 13.6035 24.0001 12.3757 24.0001H8.62431C7.39655 24.0001 6.78266 24.0001 6.45844 23.7321C6.17628 23.4989 6.00807 23.1441 6.00016 22.7657C5.99108 22.3308 6.35852 21.8111 7.09338 20.7717L8.96908 18.1188Z" fill="#5A8228"/>
<path d="M8.96908 18.1188C9.48821 17.3845 9.74777 17.0174 10.0663 16.8862C10.3452 16.7713 10.6548 16.7713 10.9338 16.8862C11.2522 17.0174 11.5118 17.3845 12.0309 18.1188L13.9066 20.7717C14.6415 21.8111 15.0089 22.3308 14.9998 22.7657C14.9919 23.1441 14.8237 23.4989 14.5416 23.7321C14.2173 24.0001 13.6035 24.0001 12.3757 24.0001H8.62431C7.39655 24.0001 6.78266 24.0001 6.45844 23.7321C6.17628 23.4989 6.00807 23.1441 6.00016 22.7657C5.99108 22.3308 6.35852 21.8111 7.09338 20.7717L8.96908 18.1188Z" fill="#F6F8F9" fill-opacity="0.55"/>
<path d="M17.2241 13.6237C17.7696 12.713 18.0424 12.2577 18.3925 12.102C18.6982 11.966 19.0447 11.966 19.3504 12.102C19.7005 12.2577 19.9733 12.713 20.5188 13.6237L24.9064 20.9476C25.5036 21.9446 25.8022 22.443 25.7689 22.8541C25.7399 23.2124 25.5629 23.5405 25.283 23.7545C24.962 24 24.3943 24 23.259 24H14.4839C13.3486 24 12.7809 24 12.4599 23.7545C12.18 23.5405 12.003 23.2124 11.9739 22.8541C11.9406 22.443 12.2393 21.9446 12.8365 20.9476L17.2241 13.6237Z" fill="#5A8228"/>
</svg>
