<svg width="32" height="32" viewBox="0 0 32 32" fill="none" xmlns="http://www.w3.org/2000/svg">
<rect x="2.85" y="4.85" width="26.3" height="21.3" rx="3.42778" fill="#6D778C"/>
<rect x="2.85" y="4.85" width="26.3" height="21.3" rx="3.42778" fill="#F6F8F9" fill-opacity="0.975"/>
<rect x="2.85" y="4.85" width="26.3" height="21.3" rx="3.42778" stroke="#6D778C" stroke-width="0.7"/>
<rect x="2.85" y="4.85" width="26.3" height="21.3" rx="3.42778" stroke="#F6F8F9" stroke-opacity="0.8" stroke-width="0.7"/>
<path d="M12.8394 8.48883C13.3043 8.48883 13.681 8.86569 13.6812 9.33063V21.647C13.681 22.112 13.3043 22.4888 12.8394 22.4888C12.3744 22.4887 11.9977 22.1119 11.9976 21.647V9.33063C11.9977 8.86574 12.3744 8.48891 12.8394 8.48883ZM19.0503 10.3834C19.5153 10.3834 19.8921 10.7611 19.8921 11.2261V19.7515C19.8921 20.2166 19.5153 20.5942 19.0503 20.5943C18.5852 20.5943 18.2085 20.2166 18.2085 19.7515V11.2261C18.2085 10.7611 18.5852 10.3834 19.0503 10.3834ZM15.9448 12.2779C16.4099 12.2779 16.7866 12.6556 16.7866 13.1207V17.857C16.7866 18.3221 16.4099 18.6998 15.9448 18.6998C15.4797 18.6998 15.103 18.3221 15.103 17.857V13.1207C15.103 12.6556 15.4797 12.2779 15.9448 12.2779ZM9.73389 13.2261C10.199 13.2261 10.5767 13.6029 10.5767 14.0679V16.9097C10.5767 17.3748 10.199 17.7515 9.73389 17.7515C9.26895 17.7514 8.89209 17.3747 8.89209 16.9097V14.0679C8.89209 13.603 9.26895 13.2263 9.73389 13.2261ZM22.1558 14.1734C22.6207 14.1736 22.9976 14.5502 22.9976 15.0152V15.9625C22.9976 16.4274 22.6207 16.8041 22.1558 16.8043C21.6907 16.8043 21.313 16.4275 21.313 15.9625V15.0152C21.313 14.5501 21.6907 14.1734 22.1558 14.1734Z" fill="#E32C39"/>
<path d="M12.8394 8.48883C13.3043 8.48883 13.681 8.86569 13.6812 9.33063V21.647C13.681 22.112 13.3043 22.4888 12.8394 22.4888C12.3744 22.4887 11.9977 22.1119 11.9976 21.647V9.33063C11.9977 8.86574 12.3744 8.48891 12.8394 8.48883ZM19.0503 10.3834C19.5153 10.3834 19.8921 10.7611 19.8921 11.2261V19.7515C19.8921 20.2166 19.5153 20.5942 19.0503 20.5943C18.5852 20.5943 18.2085 20.2166 18.2085 19.7515V11.2261C18.2085 10.7611 18.5852 10.3834 19.0503 10.3834ZM15.9448 12.2779C16.4099 12.2779 16.7866 12.6556 16.7866 13.1207V17.857C16.7866 18.3221 16.4099 18.6998 15.9448 18.6998C15.4797 18.6998 15.103 18.3221 15.103 17.857V13.1207C15.103 12.6556 15.4797 12.2779 15.9448 12.2779ZM9.73389 13.2261C10.199 13.2261 10.5767 13.6029 10.5767 14.0679V16.9097C10.5767 17.3748 10.199 17.7515 9.73389 17.7515C9.26895 17.7514 8.89209 17.3747 8.89209 16.9097V14.0679C8.89209 13.603 9.26895 13.2263 9.73389 13.2261ZM22.1558 14.1734C22.6207 14.1736 22.9976 14.5502 22.9976 15.0152V15.9625C22.9976 16.4274 22.6207 16.8041 22.1558 16.8043C21.6907 16.8043 21.313 16.4275 21.313 15.9625V15.0152C21.313 14.5501 21.6907 14.1734 22.1558 14.1734Z" fill="#F6F8F9" fill-opacity="0.45"/>
</svg>
