<svg width="32" height="32" viewBox="0 0 32 32" fill="none" xmlns="http://www.w3.org/2000/svg">
<path d="M8.41971 9.72627H27.6765C27.6133 8.64807 27.3035 7.81312 26.7472 7.22142C26.1271 6.55381 25.2155 6.22001 24.0125 6.22001H13.5891C13.1856 6.22001 12.8456 6.1637 12.5691 6.05109C12.2927 5.93848 11.9975 5.74946 11.6837 5.48403L11.0448 4.91696C10.7833 4.6837 10.533 4.50272 10.2939 4.37402C10.0548 4.23728 9.79328 4.14076 9.50935 4.08446C9.22541 4.02815 8.88917 4 8.50063 4H5.32877C4.28269 4 3.46451 4.32576 2.87422 4.97729C2.29141 5.62077 2 6.57794 2 7.84882V19.6543L3.50711 13.5704C4.03303 11.4473 6.23248 9.72627 8.41971 9.72627Z" fill="#6D778C"/>
<path d="M3.18775 25.9607C3.63628 26.6536 4.46578 27 5.67624 27H19.6556L20.0364 25.5719H18.0115C17.8098 25.5719 17.6571 25.5044 17.5534 25.3695C17.4498 25.2346 17.4239 25.0697 17.4759 24.8748C17.5279 24.6798 17.6407 24.5187 17.8143 24.3912C17.9899 24.2563 18.1786 24.1888 18.3803 24.1888H20.4052L20.849 22.5247H18.8241C18.6224 22.5247 18.4697 22.4572 18.366 22.3223C18.2624 22.1873 18.2375 22.0187 18.2915 21.8163C18.3415 21.6289 18.4533 21.4714 18.6269 21.344C18.8025 21.2091 18.9912 21.1416 19.1929 21.1416H21.2178L21.6616 19.4774H19.6367C19.435 19.4774 19.2823 19.41 19.1786 19.275C19.077 19.1326 19.0521 18.9639 19.1041 18.769C19.1541 18.5816 19.2659 18.4242 19.4395 18.2968C19.6151 18.1618 19.8038 18.0944 20.0055 18.0944H22.0304L22.4742 16.4302H20.4493C20.2476 16.4302 20.0949 16.3627 19.9912 16.2278C19.8896 16.0854 19.8647 15.9167 19.9167 15.7218C19.9667 15.5344 20.0785 15.377 20.2521 15.2495C20.4277 15.1146 20.6164 15.0471 20.8181 15.0471H22.843L23.7909 11.4926H7.98224C6.79995 11.4926 5.61106 12.4229 5.32678 13.5705L3.00817 22.9303C2.67729 24.266 2.73715 25.2761 3.18775 25.9607Z" fill="#6D778C"/>
<path d="M25.2339 11.4926L24.6939 13.5179H26.7188C26.9205 13.5179 27.0732 13.5853 27.1768 13.7203C27.2825 13.8477 27.3093 14.0089 27.2574 14.2038C27.2054 14.3987 27.0916 14.5636 26.916 14.6985C26.7403 14.8335 26.5517 14.9009 26.3499 14.9009H24.325L23.8813 16.5651H25.9062C26.1079 16.5651 26.2606 16.6326 26.3642 16.7675C26.4699 16.895 26.4967 17.0561 26.4448 17.251C26.3928 17.4459 26.279 17.6108 26.1034 17.7458C25.9277 17.8807 25.7391 17.9482 25.5373 17.9482H23.5124L23.0687 19.6124H25.0936C25.2953 19.6124 25.448 19.6798 25.5516 19.8148C25.6573 19.9422 25.6841 20.1034 25.6322 20.2983C25.5802 20.4932 25.4664 20.6581 25.2908 20.793C25.1151 20.928 24.9265 20.9954 24.7247 20.9954H22.6998L22.2561 22.6596H24.281C24.4827 22.6596 24.6354 22.7271 24.739 22.862C24.8447 22.9894 24.8715 23.1506 24.8196 23.3455C24.7676 23.5404 24.6538 23.7053 24.4782 23.8403C24.3025 23.9752 24.1139 24.0427 23.9122 24.0427H21.8872L21.0986 27H24.2927C25.3612 27 26.2801 26.6536 27.0496 25.9607C27.8169 25.2761 28.366 24.266 28.6969 22.9303L31.0155 13.5705C31.2998 12.4229 30.5718 11.4926 29.3895 11.4926H25.2339Z" fill="#6D778C"/>
</svg>
