<svg width="16" height="17" viewBox="0 0 16 17" fill="none" xmlns="http://www.w3.org/2000/svg">
<rect y="0.5" width="16" height="16" rx="4" fill="#5A8228"/>
<path fill-rule="evenodd" clip-rule="evenodd" d="M3.45605 7.35698C3.45605 7.25621 3.53774 7.17452 3.63851 7.17452H4.8792C5.53584 7.17452 6.06898 7.76099 6.06898 8.48329V9.605C6.06898 9.70576 5.9873 9.78745 5.88653 9.78745H4.63468C3.98412 9.78745 3.45605 9.20653 3.45605 8.49094V7.35698Z" fill="#F6F8F9" fill-opacity="0.95"/>
<path fill-rule="evenodd" clip-rule="evenodd" d="M3.45605 10.5505C3.45605 10.4498 3.53774 10.3681 3.63851 10.3681H4.8792C5.53584 10.3681 6.06898 10.9545 6.06898 11.6768V12.7985C6.06898 12.8993 5.9873 12.981 5.88653 12.981H4.63468C3.98412 12.981 3.45605 12.4001 3.45605 11.6846V10.5505Z" fill="#F6F8F9" fill-opacity="0.95"/>
<path fill-rule="evenodd" clip-rule="evenodd" d="M12.7466 4.16345C12.7466 4.06268 12.6649 3.98099 12.5641 3.98099H11.3234C10.6668 3.98099 10.1336 4.56738 10.1336 5.28976V6.41146C10.1336 6.51223 10.2153 6.59392 10.3161 6.59392H11.568C12.2185 6.59392 12.7466 6.01292 12.7466 5.29741V4.16345Z" fill="#F6F8F9" fill-opacity="0.95"/>
<path fill-rule="evenodd" clip-rule="evenodd" d="M6.94001 4.16345C6.94001 4.06268 7.0217 3.98099 7.12247 3.98099H8.36315C9.0198 3.98099 9.55294 4.56738 9.55294 5.28976V6.41146C9.55294 6.51223 9.47125 6.59392 9.37048 6.59392H8.11863C7.46808 6.59392 6.94001 6.01292 6.94001 5.29741V4.16345Z" fill="#F6F8F9" fill-opacity="0.95"/>
<path fill-rule="evenodd" clip-rule="evenodd" d="M6.94001 7.35698C6.94001 7.25621 7.0217 7.17452 7.12247 7.17452H8.36315C9.0198 7.17452 9.55294 7.76099 9.55294 8.48329V9.605C9.55294 9.70576 9.47125 9.78745 9.37048 9.78745H8.11863C7.46808 9.78745 6.94001 9.20653 6.94001 8.49094V7.35698Z" fill="#F6F8F9" fill-opacity="0.95"/>
<path fill-rule="evenodd" clip-rule="evenodd" d="M12.7466 7.35698C12.7466 7.25621 12.6649 7.17452 12.5641 7.17452H11.3234C10.6668 7.17452 10.1336 7.76099 10.1336 8.48329V9.605C10.1336 9.70576 10.2153 9.78745 10.3161 9.78745H11.568C12.2185 9.78745 12.7466 9.20653 12.7466 8.49094V7.35698Z" fill="#F6F8F9" fill-opacity="0.95"/>
<path fill-rule="evenodd" clip-rule="evenodd" d="M6.94001 10.5505C6.94001 10.4498 7.0217 10.3681 7.12247 10.3681H8.36315C9.0198 10.3681 9.55294 10.9545 9.55294 11.6768V12.7985C9.55294 12.8993 9.47125 12.981 9.37048 12.981H8.11863C7.46808 12.981 6.94001 12.4001 6.94001 11.6846V10.5505Z" fill="#F6F8F9" fill-opacity="0.95"/>
<path fill-rule="evenodd" clip-rule="evenodd" d="M12.7466 10.5505C12.7466 10.4498 12.6649 10.3681 12.5641 10.3681H11.3234C10.6668 10.3681 10.1336 10.9545 10.1336 11.6768V12.7985C10.1336 12.8993 10.2153 12.981 10.3161 12.981H11.568C12.2185 12.981 12.7466 12.4001 12.7466 11.6846V10.5505Z" fill="#F6F8F9" fill-opacity="0.95"/>
</svg>
