<svg width="16" height="17" viewBox="0 0 16 17" fill="none" xmlns="http://www.w3.org/2000/svg">
<rect y="0.5" width="16" height="16" rx="4" fill="#6D778C"/>
<path d="M4.31151 12.5C3.85038 12.5 3.50149 12.3847 3.26486 12.1542C3.02823 11.9175 2.90991 11.5717 2.90991 11.1166V5.87429C2.90991 5.41923 3.02823 5.07641 3.26486 4.84585C3.50149 4.61528 3.85038 4.5 4.31151 4.5H11.6835C12.1446 4.5 12.4935 4.61528 12.7302 4.84585C12.9668 5.07641 13.0851 5.41923 13.0851 5.87429V11.1166C13.0851 11.5717 12.9668 11.9175 12.7302 12.1542C12.4935 12.3847 12.1446 12.5 11.6835 12.5H4.31151ZM4.39342 11.5717H11.6016C11.7715 11.5717 11.905 11.5231 12.0021 11.4261C12.1052 11.329 12.1568 11.1955 12.1568 11.0256V10.2065L10.3638 8.57736C10.1697 8.38927 9.94518 8.29522 9.69034 8.29522C9.44158 8.29522 9.21405 8.38623 9.00775 8.56826L6.97817 10.3794L6.15906 9.64221C5.95883 9.47232 5.75557 9.38737 5.54928 9.38737C5.35512 9.38737 5.16095 9.46928 4.96679 9.63311L3.84734 10.5796V11.0256C3.84734 11.1955 3.89588 11.329 3.99296 11.4261C4.09004 11.5231 4.22353 11.5717 4.39342 11.5717ZM6.25007 8.58646C6.54131 8.58646 6.79008 8.48332 6.99638 8.27702C7.20874 8.06466 7.31492 7.80982 7.31492 7.51251C7.31492 7.22127 7.20874 6.97251 6.99638 6.76621C6.79008 6.55385 6.54131 6.44767 6.25007 6.44767C5.95276 6.44767 5.69793 6.55385 5.48556 6.76621C5.27927 6.97251 5.17613 7.22127 5.17613 7.51251C5.17613 7.80982 5.27927 8.06466 5.48556 8.27702C5.69793 8.48332 5.95276 8.58646 6.25007 8.58646Z" fill="#F6F8F9" fill-opacity="0.95"/>
</svg>
