<svg width="16" height="17" viewBox="0 0 16 17" fill="none" xmlns="http://www.w3.org/2000/svg">
<rect y="0.5" width="16" height="16" rx="4" fill="#5A8228"/>
<path d="M3.09546 6.68838C2.84644 6.68838 2.65161 6.61807 2.51099 6.47744C2.37036 6.33389 2.30005 6.1332 2.30005 5.87539V4.91299C2.30005 4.6581 2.37036 4.45889 2.51099 4.31533C2.65161 4.17178 2.84644 4.1 3.09546 4.1H4.89282C5.14185 4.1 5.33667 4.17178 5.4773 4.31533C5.61792 4.45889 5.68823 4.6581 5.68823 4.91299V5.87539C5.68823 6.1332 5.61792 6.33389 5.4773 6.47744C5.33667 6.61807 5.14185 6.68838 4.89282 6.68838H3.09546ZM7.06372 6.68838C6.8147 6.68838 6.61987 6.61807 6.47925 6.47744C6.33862 6.33389 6.26831 6.1332 6.26831 5.87539V4.91299C6.26831 4.6581 6.33862 4.45889 6.47925 4.31533C6.61987 4.17178 6.8147 4.1 7.06372 4.1H8.86108C9.11011 4.1 9.30347 4.17178 9.44116 4.31533C9.58179 4.45889 9.6521 4.6581 9.6521 4.91299V5.87539C9.6521 6.1332 9.58179 6.33389 9.44116 6.47744C9.30347 6.61807 9.11011 6.68838 8.86108 6.68838H7.06372ZM11.0408 6.68838C10.7888 6.68838 10.5925 6.61807 10.4519 6.47744C10.3113 6.33389 10.241 6.1332 10.241 5.87539V4.91299C10.241 4.6581 10.3113 4.45889 10.4519 4.31533C10.5925 4.17178 10.7888 4.1 11.0408 4.1H12.8337C13.0828 4.1 13.2776 4.17178 13.4182 4.31533C13.5588 4.45889 13.6292 4.6581 13.6292 4.91299V5.87539C13.6292 6.1332 13.5588 6.33389 13.4182 6.47744C13.2776 6.61807 13.0828 6.68838 12.8337 6.68838H11.0408ZM3.09546 9.77334C2.84644 9.77334 2.65161 9.70303 2.51099 9.5624C2.37036 9.41885 2.30005 9.21963 2.30005 8.96475V7.99795C2.30005 7.74014 2.37036 7.54092 2.51099 7.40029C2.65161 7.25674 2.84644 7.18496 3.09546 7.18496H4.89282C5.14185 7.18496 5.33667 7.25674 5.4773 7.40029C5.61792 7.54092 5.68823 7.74014 5.68823 7.99795V8.96475C5.68823 9.21963 5.61792 9.41885 5.4773 9.5624C5.33667 9.70303 5.14185 9.77334 4.89282 9.77334H3.09546ZM7.06372 9.77334C6.8147 9.77334 6.61987 9.70303 6.47925 9.5624C6.33862 9.41885 6.26831 9.21963 6.26831 8.96475V7.99795C6.26831 7.74014 6.33862 7.54092 6.47925 7.40029C6.61987 7.25674 6.8147 7.18496 7.06372 7.18496H8.86108C9.11011 7.18496 9.30347 7.25674 9.44116 7.40029C9.58179 7.54092 9.6521 7.74014 9.6521 7.99795V8.96475C9.6521 9.21963 9.58179 9.41885 9.44116 9.5624C9.30347 9.70303 9.11011 9.77334 8.86108 9.77334H7.06372ZM11.0408 9.77334C10.7888 9.77334 10.5925 9.70303 10.4519 9.5624C10.3113 9.41885 10.241 9.21963 10.241 8.96475V7.99795C10.241 7.74014 10.3113 7.54092 10.4519 7.40029C10.5925 7.25674 10.7888 7.18496 11.0408 7.18496H12.8337C13.0828 7.18496 13.2776 7.25674 13.4182 7.40029C13.5588 7.54092 13.6292 7.74014 13.6292 7.99795V8.96475C13.6292 9.21963 13.5588 9.41885 13.4182 9.5624C13.2776 9.70303 13.0828 9.77334 12.8337 9.77334H11.0408ZM3.09546 12.8627C2.84644 12.8627 2.65161 12.7909 2.51099 12.6474C2.37036 12.5067 2.30005 12.3061 2.30005 12.0453V11.0873C2.30005 10.8266 2.37036 10.6259 2.51099 10.4853C2.65161 10.3417 2.84644 10.2699 3.09546 10.2699H4.89282C5.14185 10.2699 5.33667 10.3417 5.4773 10.4853C5.61792 10.6259 5.68823 10.8266 5.68823 11.0873V12.0453C5.68823 12.3061 5.61792 12.5067 5.4773 12.6474C5.33667 12.7909 5.14185 12.8627 4.89282 12.8627H3.09546ZM7.06372 12.8627C6.8147 12.8627 6.61987 12.7909 6.47925 12.6474C6.33862 12.5067 6.26831 12.3061 6.26831 12.0453V11.0873C6.26831 10.8266 6.33862 10.6259 6.47925 10.4853C6.61987 10.3417 6.8147 10.2699 7.06372 10.2699H8.86108C9.11011 10.2699 9.30347 10.3417 9.44116 10.4853C9.58179 10.6259 9.6521 10.8266 9.6521 11.0873V12.0453C9.6521 12.3061 9.58179 12.5067 9.44116 12.6474C9.30347 12.7909 9.11011 12.8627 8.86108 12.8627H7.06372ZM11.0408 12.8627C10.7888 12.8627 10.5925 12.7909 10.4519 12.6474C10.3113 12.5067 10.241 12.3061 10.241 12.0453V11.0873C10.241 10.8266 10.3113 10.6259 10.4519 10.4853C10.5925 10.3417 10.7888 10.2699 11.0408 10.2699H12.8337C13.0828 10.2699 13.2776 10.3417 13.4182 10.4853C13.5588 10.6259 13.6292 10.8266 13.6292 11.0873V12.0453C13.6292 12.3061 13.5588 12.5067 13.4182 12.6474C13.2776 12.7909 13.0828 12.8627 12.8337 12.8627H11.0408Z" fill="#F6F8F9" fill-opacity="0.95"/>
</svg>
