<svg width="16" height="17" viewBox="0 0 16 17" fill="none" xmlns="http://www.w3.org/2000/svg">
<rect y="0.5" width="16" height="16" rx="4" fill="#6D778C"/>
<path d="M5 11.6221V5.23708C5 4.98686 5.06331 4.80146 5.18992 4.68088C5.31654 4.56029 5.46727 4.5 5.64212 4.5C5.79888 4.5 5.95564 4.54371 6.1124 4.63114L11.4528 7.75129C11.6458 7.86283 11.7845 7.96835 11.8689 8.06783C11.9563 8.16731 12 8.2879 12 8.42959C12 8.56826 11.9563 8.68885 11.8689 8.79134C11.7845 8.89083 11.6458 8.99634 11.4528 9.10788L6.1124 12.228C5.95564 12.3155 5.79888 12.3592 5.64212 12.3592C5.46727 12.3592 5.31654 12.2974 5.18992 12.1738C5.06331 12.0532 5 11.8693 5 11.6221Z" fill="#F6F8F9" fill-opacity="0.95"/>
</svg>
