<svg width="16" height="17" viewBox="0 0 16 17" fill="none" xmlns="http://www.w3.org/2000/svg">
<rect y="0.5" width="16" height="16" rx="4" fill="#6D778C"/>
<path d="M5.37218 13.8062C4.83644 13.8062 4.43215 13.6681 4.15929 13.3919C3.88643 13.1157 3.75 12.7081 3.75 12.1691V4.63715C3.75 4.10142 3.88643 3.69546 4.15929 3.41927C4.43215 3.13976 4.83644 3 5.37218 3H7.64822V6.77344C7.64822 7.39236 7.95768 7.70182 8.57661 7.70182H12.3101V12.1691C12.3101 12.7048 12.1737 13.1108 11.9008 13.3869C11.628 13.6665 11.2237 13.8062 10.6879 13.8062H5.37218ZM8.66645 6.97309C8.47678 6.97309 8.38195 6.87826 8.38195 6.68859V3.04991C8.49508 3.06322 8.60822 3.10981 8.72135 3.18967C8.83782 3.26953 8.95761 3.37269 9.08073 3.49913L11.806 6.26432C11.9358 6.39742 12.0389 6.52054 12.1155 6.63368C12.1953 6.74682 12.2419 6.85995 12.2552 6.97309H8.66645Z" fill="#F6F8F9" fill-opacity="0.95"/>
</svg>
