<svg width="16" height="17" viewBox="0 0 16 17" fill="none" xmlns="http://www.w3.org/2000/svg">
<rect y="0.5" width="16" height="16" rx="4" fill="#6D778C"/>
<path d="M5.15739 6.14735H12.3787C12.355 5.74303 12.2388 5.42992 12.0302 5.20803C11.7976 4.95768 11.4558 4.8325 11.0047 4.8325H7.0959C6.94459 4.8325 6.8171 4.81139 6.71342 4.76916C6.60975 4.72693 6.49907 4.65605 6.38139 4.55651L6.14182 4.34386C6.04375 4.25639 5.94988 4.18852 5.86022 4.14026C5.77055 4.08898 5.67248 4.05279 5.56601 4.03167C5.45953 4.01056 5.33344 4 5.18774 4H3.99829C3.60601 4 3.29919 4.12216 3.07783 4.36648C2.85928 4.60779 2.75 4.96673 2.75 5.44331V9.87038L3.31516 7.5889C3.51239 6.79276 4.33718 6.14735 5.15739 6.14735Z" fill="#F6F8F9" fill-opacity="0.95"/>
<path d="M3.19541 12.2352C3.36361 12.4951 3.67467 12.625 4.12859 12.625H9.37085L9.51366 12.0895H8.75432C8.67867 12.0895 8.62142 12.0642 8.58254 12.0136C8.54367 11.963 8.53397 11.9011 8.55346 11.828C8.57295 11.7549 8.61526 11.6945 8.68037 11.6467C8.74623 11.5961 8.81698 11.5708 8.89262 11.5708H9.65196L9.81838 10.9467H9.05904C8.9834 10.9467 8.92614 10.9214 8.88726 10.8708C8.84839 10.8202 8.83907 10.757 8.85931 10.6811C8.87805 10.6108 8.91998 10.5518 8.98509 10.504C9.05095 10.4534 9.12171 10.4281 9.19735 10.4281H9.95669L10.1231 9.80403H9.36377C9.28812 9.80403 9.23086 9.77873 9.19199 9.72813C9.15386 9.67472 9.14455 9.61147 9.16404 9.53838C9.18278 9.46811 9.2247 9.40907 9.28982 9.36128C9.35568 9.31068 9.42643 9.28538 9.50207 9.28538H10.2614L10.4278 8.66132H9.66849C9.59285 8.66132 9.53559 8.63602 9.49671 8.58542C9.45859 8.53201 9.44927 8.46876 9.46876 8.39567C9.4875 8.32539 9.52943 8.26636 9.59454 8.21857C9.6604 8.16797 9.73115 8.14267 9.8068 8.14267H10.5661L10.9216 6.80971H4.99334C4.54998 6.80971 4.10415 7.15857 3.99754 7.58892L3.12806 11.0989C3.00398 11.5998 3.02643 11.9785 3.19541 12.2352Z" fill="#F6F8F9" fill-opacity="0.95"/>
<path d="M11.4627 6.80971L11.2602 7.5692H12.0195C12.0952 7.5692 12.1524 7.5945 12.1913 7.6451C12.2309 7.69289 12.241 7.75333 12.2215 7.82642C12.202 7.89951 12.1593 7.96135 12.0935 8.01195C12.0276 8.06255 11.9569 8.08785 11.8812 8.08785H11.1219L10.9555 8.71192H11.7148C11.7905 8.71192 11.8477 8.73722 11.8866 8.78782C11.9262 8.83561 11.9363 8.89604 11.9168 8.96913C11.8973 9.04222 11.8546 9.10407 11.7888 9.15467C11.7229 9.20527 11.6521 9.23057 11.5765 9.23057H10.8172L10.6507 9.85463H11.4101C11.4857 9.85463 11.543 9.87993 11.5819 9.93053C11.6215 9.97832 11.6316 10.0388 11.6121 10.1118C11.5926 10.1849 11.5499 10.2468 11.484 10.2974C11.4182 10.348 11.3474 10.3733 11.2718 10.3733H10.5124L10.346 10.9973H11.1054C11.181 10.9973 11.2383 11.0226 11.2771 11.0732C11.3168 11.121 11.3268 11.1815 11.3073 11.2546C11.2879 11.3277 11.2452 11.3895 11.1793 11.4401C11.1135 11.4907 11.0427 11.516 10.9671 11.516H10.2077L9.91198 12.625H11.1098C11.5105 12.625 11.8551 12.4951 12.1436 12.2352C12.4313 11.9785 12.6372 11.5998 12.7613 11.0989L13.6308 7.58893C13.7374 7.15858 13.4644 6.80971 13.0211 6.80971H11.4627Z" fill="#F6F8F9" fill-opacity="0.95"/>
</svg>
