<svg width="32" height="32" viewBox="0 0 32 32" fill="none" xmlns="http://www.w3.org/2000/svg">
<rect x="4.35" y="0.35" width="23.3" height="31.3" rx="3.20556" fill="white"/>
<rect x="4.35" y="0.35" width="23.3" height="31.3" rx="3.20556" stroke="#3677CC" stroke-width="0.7"/>
<rect x="4.35" y="0.35" width="23.3" height="31.3" rx="3.20556" stroke="#F6F8F9" stroke-opacity="0.8" stroke-width="0.7"/>
<path fill-rule="evenodd" clip-rule="evenodd" d="M7.58374 7.2623C7.58374 6.77138 7.98171 6.37341 8.47263 6.37341H16.4726C16.9635 6.37341 17.3615 6.77138 17.3615 7.2623C17.3615 7.75322 16.9635 8.15118 16.4726 8.15118H8.47263C7.98171 8.15118 7.58374 7.75322 7.58374 7.2623Z" fill="#3677CC"/>
<path fill-rule="evenodd" clip-rule="evenodd" d="M7.58374 7.2623C7.58374 6.77138 7.98171 6.37341 8.47263 6.37341H16.4726C16.9635 6.37341 17.3615 6.77138 17.3615 7.2623C17.3615 7.75322 16.9635 8.15118 16.4726 8.15118H8.47263C7.98171 8.15118 7.58374 7.75322 7.58374 7.2623Z" fill="#F6F8F9" fill-opacity="0.15"/>
<path fill-rule="evenodd" clip-rule="evenodd" d="M7.58374 10.2685C7.58374 9.77761 7.98171 9.37964 8.47263 9.37964H23.5273C24.0182 9.37964 24.4162 9.77761 24.4162 10.2685C24.4162 10.7594 24.0182 11.1574 23.5273 11.1574H8.47263C7.98171 11.1574 7.58374 10.7594 7.58374 10.2685ZM7.58374 12.9352C7.58374 12.4443 7.98171 12.0463 8.47263 12.0463H23.5273C24.0182 12.0463 24.4162 12.4443 24.4162 12.9352C24.4162 13.4261 24.0182 13.8241 23.5273 13.8241H8.47263C7.98171 13.8241 7.58374 13.4261 7.58374 12.9352ZM7.58374 15.6019C7.58374 15.1109 7.98171 14.713 8.47263 14.713H23.5273C24.0182 14.713 24.4162 15.1109 24.4162 15.6019C24.4162 16.0928 24.0182 16.4907 23.5273 16.4907H8.47263C7.98171 16.4907 7.58374 16.0928 7.58374 15.6019ZM7.58374 18.2685C7.58374 17.7776 7.98171 17.3796 8.47263 17.3796H23.5273C24.0182 17.3796 24.4162 17.7776 24.4162 18.2685C24.4162 18.7594 24.0182 19.1574 23.5273 19.1574H8.47263C7.98171 19.1574 7.58374 18.7594 7.58374 18.2685Z" fill="#3677CC"/>
<path fill-rule="evenodd" clip-rule="evenodd" d="M7.58374 10.2685C7.58374 9.77761 7.98171 9.37964 8.47263 9.37964H23.5273C24.0182 9.37964 24.4162 9.77761 24.4162 10.2685C24.4162 10.7594 24.0182 11.1574 23.5273 11.1574H8.47263C7.98171 11.1574 7.58374 10.7594 7.58374 10.2685ZM7.58374 12.9352C7.58374 12.4443 7.98171 12.0463 8.47263 12.0463H23.5273C24.0182 12.0463 24.4162 12.4443 24.4162 12.9352C24.4162 13.4261 24.0182 13.8241 23.5273 13.8241H8.47263C7.98171 13.8241 7.58374 13.4261 7.58374 12.9352ZM7.58374 15.6019C7.58374 15.1109 7.98171 14.713 8.47263 14.713H23.5273C24.0182 14.713 24.4162 15.1109 24.4162 15.6019C24.4162 16.0928 24.0182 16.4907 23.5273 16.4907H8.47263C7.98171 16.4907 7.58374 16.0928 7.58374 15.6019ZM7.58374 18.2685C7.58374 17.7776 7.98171 17.3796 8.47263 17.3796H23.5273C24.0182 17.3796 24.4162 17.7776 24.4162 18.2685C24.4162 18.7594 24.0182 19.1574 23.5273 19.1574H8.47263C7.98171 19.1574 7.58374 18.7594 7.58374 18.2685Z" fill="#F6F8F9" fill-opacity="0.8"/>
<path fill-rule="evenodd" clip-rule="evenodd" d="M7.58374 20.9666C7.58374 20.4757 7.98171 20.0777 8.47263 20.0777H23.5273C24.0182 20.0777 24.4162 20.4757 24.4162 20.9666C24.4162 21.4575 24.0182 21.8555 23.5273 21.8555H8.47263C7.98171 21.8555 7.58374 21.4575 7.58374 20.9666ZM7.58374 23.6333C7.58374 23.1424 7.98171 22.7444 8.47263 22.7444H23.5273C24.0182 22.7444 24.4162 23.1424 24.4162 23.6333C24.4162 24.1242 24.0182 24.5222 23.5273 24.5222H8.47263C7.98171 24.5222 7.58374 24.1242 7.58374 23.6333ZM7.58374 26.3C7.58374 25.809 7.98171 25.4111 8.47263 25.4111H23.5273C24.0182 25.4111 24.4162 25.809 24.4162 26.3C24.4162 26.7909 24.0182 27.1888 23.5273 27.1888H8.47263C7.98171 27.1888 7.58374 26.7909 7.58374 26.3ZM7.58374 28.9666C7.58374 28.4757 7.98171 28.0777 8.47263 28.0777H23.5273C24.0182 28.0777 24.4162 28.4757 24.4162 28.9666C24.4162 29.4575 24.0182 29.8555 23.5273 29.8555H8.47263C7.98171 29.8555 7.58374 29.4575 7.58374 28.9666Z" fill="#3677CC"/>
<path fill-rule="evenodd" clip-rule="evenodd" d="M7.58374 20.9666C7.58374 20.4757 7.98171 20.0777 8.47263 20.0777H23.5273C24.0182 20.0777 24.4162 20.4757 24.4162 20.9666C24.4162 21.4575 24.0182 21.8555 23.5273 21.8555H8.47263C7.98171 21.8555 7.58374 21.4575 7.58374 20.9666ZM7.58374 23.6333C7.58374 23.1424 7.98171 22.7444 8.47263 22.7444H23.5273C24.0182 22.7444 24.4162 23.1424 24.4162 23.6333C24.4162 24.1242 24.0182 24.5222 23.5273 24.5222H8.47263C7.98171 24.5222 7.58374 24.1242 7.58374 23.6333ZM7.58374 26.3C7.58374 25.809 7.98171 25.4111 8.47263 25.4111H23.5273C24.0182 25.4111 24.4162 25.809 24.4162 26.3C24.4162 26.7909 24.0182 27.1888 23.5273 27.1888H8.47263C7.98171 27.1888 7.58374 26.7909 7.58374 26.3ZM7.58374 28.9666C7.58374 28.4757 7.98171 28.0777 8.47263 28.0777H23.5273C24.0182 28.0777 24.4162 28.4757 24.4162 28.9666C24.4162 29.4575 24.0182 29.8555 23.5273 29.8555H8.47263C7.98171 29.8555 7.58374 29.4575 7.58374 28.9666Z" fill="#F6F8F9" fill-opacity="0.8"/>
<rect y="16" width="16" height="16" rx="4" fill="#3677CC"/>
<path d="M10.1114 28.8117C10.5494 28.6889 10.9687 28.4648 11.2439 28.0688C11.5156 27.6811 11.5921 27.1892 11.5921 26.7159V19.7816C11.5921 19.6588 11.5854 19.5358 11.5706 19.4143C11.7881 19.4999 11.9557 19.6412 12.0735 19.8384C12.2124 20.0626 12.2819 20.3578 12.2819 20.7241V27.7674C12.2819 28.2632 12.1603 28.6342 11.9172 28.8805C11.674 29.1268 11.3077 29.2499 10.8183 29.2499H8.15784C8.22085 29.2389 8.28402 29.2275 8.34733 29.2159C8.90251 29.1167 9.48924 28.982 10.107 28.813L10.1114 28.8117Z" fill="#F6F8F9" fill-opacity="0.95"/>
<path fill-rule="evenodd" clip-rule="evenodd" d="M3.71826 27.6206V20.5679C3.71826 20.1384 3.83352 19.8132 4.06403 19.5922C4.2977 19.3711 4.60716 19.2495 4.9924 19.2274C5.56078 19.1927 6.09917 19.1453 6.60756 19.0853C7.11595 19.0222 7.60224 18.9496 8.06642 18.8675C8.53376 18.7854 8.98847 18.6938 9.43055 18.5927C9.88526 18.4854 10.2342 18.5391 10.4773 18.7538C10.7205 18.9685 10.842 19.3111 10.842 19.7816V26.7159C10.842 27.1296 10.771 27.4375 10.6289 27.6396C10.4868 27.8448 10.2468 27.9948 9.90894 28.0895C9.30898 28.2537 8.74375 28.3832 8.21326 28.4779C7.68276 28.5758 7.1649 28.65 6.65966 28.7006C6.15443 28.7511 5.63657 28.7906 5.10607 28.819C4.66715 28.8442 4.32612 28.7527 4.08298 28.5443C3.83983 28.339 3.71826 28.0311 3.71826 27.6206ZM5.45324 21.8484C6.1488 21.8041 6.78618 21.7361 7.36533 21.6444C7.50584 21.6215 7.64615 21.5976 7.78592 21.5728C7.93219 21.5469 8.03797 21.4195 8.03797 21.2713C8.03797 21.0793 7.86426 20.9348 7.67562 20.967C7.56726 20.9854 7.45833 21.0034 7.34882 21.0209C6.77548 21.1122 6.14195 21.18 5.44821 21.2241C5.34432 21.2308 5.26166 21.2632 5.20853 21.3277C5.15829 21.3887 5.13367 21.4621 5.13367 21.5458C5.13367 21.6308 5.16236 21.7048 5.21963 21.7657L5.22044 21.7665C5.28251 21.8285 5.36138 21.8554 5.45324 21.8484ZM5.45301 23.421C6.14866 23.3767 6.78612 23.3087 7.36533 23.2169C7.94704 23.1221 8.52261 23.0114 9.0917 22.885C9.20718 22.8593 9.29368 22.8189 9.33695 22.7561C9.37949 22.6958 9.40052 22.6266 9.40052 22.5499C9.40052 22.4635 9.36758 22.389 9.30351 22.3285C9.23452 22.2633 9.13805 22.2481 9.0239 22.2716L9.02317 22.2718C8.48087 22.3948 7.92276 22.502 7.34882 22.5934C6.77548 22.6848 6.14195 22.7526 5.44821 22.7967C5.34432 22.8034 5.26166 22.8358 5.20853 22.9003C5.15853 22.961 5.13367 23.0327 5.13367 23.1136C5.13367 23.2014 5.16203 23.2771 5.21959 23.3383L5.22125 23.3398C5.28312 23.3981 5.36118 23.4246 5.45207 23.4211L5.45301 23.421ZM5.45317 24.9935C6.14877 24.9461 6.78616 24.8765 7.36529 24.7848C7.94708 24.6931 8.52254 24.584 9.0917 24.4575C9.20745 24.4318 9.29404 24.3897 9.33724 24.3235C9.37936 24.2636 9.40052 24.1962 9.40052 24.1225C9.40052 24.036 9.36758 23.9615 9.30351 23.901C9.23452 23.8359 9.13805 23.8207 9.0239 23.8442L9.02337 23.8443C8.481 23.9641 7.92282 24.0698 7.34882 24.1612C6.77543 24.2526 6.14188 24.322 5.44811 24.3693C5.34426 24.376 5.26164 24.4083 5.20853 24.4728C5.15853 24.5335 5.13367 24.6052 5.13367 24.6861C5.13367 24.7739 5.16203 24.8497 5.21959 24.9108L5.22125 24.9124C5.28312 24.9706 5.36118 24.9971 5.45207 24.9936L5.45317 24.9935ZM7.36533 26.3464C6.78619 26.4382 6.14881 26.5062 5.45325 26.5504C5.36139 26.5574 5.28251 26.5306 5.22044 26.4685L5.21964 26.4677C5.16237 26.4068 5.13367 26.3328 5.13367 26.2478C5.13367 26.1641 5.15829 26.0908 5.20853 26.0297C5.26166 25.9652 5.34435 25.9329 5.44824 25.9262C6.14198 25.882 6.77548 25.8142 7.34882 25.7229C7.45833 25.7054 7.56726 25.6875 7.67562 25.669C7.86426 25.6368 8.03797 25.7813 8.03797 25.9733C8.03797 26.1215 7.93219 26.249 7.78592 26.2749C7.64615 26.2996 7.50584 26.3235 7.36533 26.3464Z" fill="#F6F8F9" fill-opacity="0.95"/>
</svg>
