<svg width="32" height="32" viewBox="0 0 32 32" fill="none" xmlns="http://www.w3.org/2000/svg">
<g clip-path="url(#clip0_6603_3411)">
<rect x="3.5" y="2.5" width="25" height="28" rx="3.77778" fill="white"/>
<path fill-rule="evenodd" clip-rule="evenodd" d="M6.55554 6.50011C6.55554 5.97851 6.97838 5.55566 7.49999 5.55566L10.5 5.55566C11.0216 5.55566 11.4444 5.97851 11.4444 6.50011C11.4444 7.02171 11.0216 7.44455 10.5 7.44455L7.49999 7.44455C6.97838 7.44455 6.55554 7.02171 6.55554 6.50011Z" fill="#00A95F"/>
<path fill-rule="evenodd" clip-rule="evenodd" d="M6.55554 10.5001C6.55554 9.97851 6.97838 9.55566 7.49999 9.55566L10.5 9.55566C11.0216 9.55566 11.4444 9.97851 11.4444 10.5001C11.4444 11.0217 11.0216 11.4446 10.5 11.4446H7.49999C6.97838 11.4446 6.55554 11.0217 6.55554 10.5001Z" fill="#00A95F" fill-opacity="0.4"/>
<path fill-rule="evenodd" clip-rule="evenodd" d="M6.55554 14.5001C6.55554 13.9785 6.97838 13.5557 7.49999 13.5557L10.5 13.5557C11.0216 13.5557 11.4444 13.9785 11.4444 14.5001C11.4444 15.0217 11.0216 15.4446 10.5 15.4446H7.49999C6.97838 15.4446 6.55554 15.0217 6.55554 14.5001Z" fill="#00A95F" fill-opacity="0.4"/>
<path fill-rule="evenodd" clip-rule="evenodd" d="M6.55554 18.5001C6.55554 17.9785 6.97838 17.5557 7.49999 17.5557H10.5C11.0216 17.5557 11.4444 17.9785 11.4444 18.5001C11.4444 19.0217 11.0216 19.4446 10.5 19.4446H7.49999C6.97838 19.4446 6.55554 19.0217 6.55554 18.5001Z" fill="#00A95F" fill-opacity="0.4"/>
<path fill-rule="evenodd" clip-rule="evenodd" d="M6.55554 22.5001C6.55554 21.9785 6.97838 21.5557 7.49999 21.5557H10.5C11.0216 21.5557 11.4444 21.9785 11.4444 22.5001C11.4444 23.0217 11.0216 23.4446 10.5 23.4446H7.49999C6.97838 23.4446 6.55554 23.0217 6.55554 22.5001Z" fill="#00A95F" fill-opacity="0.4"/>
<path fill-rule="evenodd" clip-rule="evenodd" d="M6.55554 26.5001C6.55554 25.9785 6.97838 25.5557 7.49999 25.5557H10.5C11.0216 25.5557 11.4444 25.9785 11.4444 26.5001C11.4444 27.0217 11.0216 27.4446 10.5 27.4446H7.49999C6.97838 27.4446 6.55554 27.0217 6.55554 26.5001Z" fill="#00A95F" fill-opacity="0.4"/>
<path fill-rule="evenodd" clip-rule="evenodd" d="M13.4443 6.50011C13.4443 5.97851 13.8672 5.55566 14.3888 5.55566H17.3888C17.9104 5.55566 18.3332 5.97851 18.3332 6.50011C18.3332 7.02171 17.9104 7.44455 17.3888 7.44455H14.3888C13.8672 7.44455 13.4443 7.02171 13.4443 6.50011Z" fill="#00A95F"/>
<path fill-rule="evenodd" clip-rule="evenodd" d="M13.4443 10.5001C13.4443 9.97851 13.8672 9.55566 14.3888 9.55566H17.3888C17.9104 9.55566 18.3332 9.97851 18.3332 10.5001C18.3332 11.0217 17.9104 11.4446 17.3888 11.4446H14.3888C13.8672 11.4446 13.4443 11.0217 13.4443 10.5001Z" fill="#00A95F" fill-opacity="0.4"/>
<path fill-rule="evenodd" clip-rule="evenodd" d="M13.4443 14.5001C13.4443 13.9785 13.8672 13.5557 14.3888 13.5557H17.3888C17.9104 13.5557 18.3332 13.9785 18.3332 14.5001C18.3332 15.0217 17.9104 15.4446 17.3888 15.4446H14.3888C13.8672 15.4446 13.4443 15.0217 13.4443 14.5001Z" fill="#00A95F" fill-opacity="0.4"/>
<path fill-rule="evenodd" clip-rule="evenodd" d="M13.4443 18.5001C13.4443 17.9785 13.8672 17.5557 14.3888 17.5557H17.3888C17.9104 17.5557 18.3332 17.9785 18.3332 18.5001C18.3332 19.0217 17.9104 19.4446 17.3888 19.4446H14.3888C13.8672 19.4446 13.4443 19.0217 13.4443 18.5001Z" fill="#00A95F" fill-opacity="0.4"/>
<path fill-rule="evenodd" clip-rule="evenodd" d="M13.4443 22.5001C13.4443 21.9785 13.8672 21.5557 14.3888 21.5557H17.3888C17.9104 21.5557 18.3332 21.9785 18.3332 22.5001C18.3332 23.0217 17.9104 23.4446 17.3888 23.4446H14.3888C13.8672 23.4446 13.4443 23.0217 13.4443 22.5001Z" fill="#00A95F" fill-opacity="0.4"/>
<path fill-rule="evenodd" clip-rule="evenodd" d="M13.4443 26.5001C13.4443 25.9785 13.8672 25.5557 14.3888 25.5557H17.3888C17.9104 25.5557 18.3332 25.9785 18.3332 26.5001C18.3332 27.0217 17.9104 27.4446 17.3888 27.4446H14.3888C13.8672 27.4446 13.4443 27.0217 13.4443 26.5001Z" fill="#00A95F" fill-opacity="0.4"/>
<path fill-rule="evenodd" clip-rule="evenodd" d="M20.333 6.50011C20.333 5.97851 20.7558 5.55566 21.2775 5.55566H24.2775C24.7991 5.55566 25.2219 5.97851 25.2219 6.50011C25.2219 7.02171 24.7991 7.44455 24.2775 7.44455H21.2775C20.7558 7.44455 20.333 7.02171 20.333 6.50011Z" fill="#00A95F"/>
<path fill-rule="evenodd" clip-rule="evenodd" d="M20.333 10.5001C20.333 9.97851 20.7558 9.55566 21.2775 9.55566H24.2775C24.7991 9.55566 25.2219 9.97851 25.2219 10.5001C25.2219 11.0217 24.7991 11.4446 24.2775 11.4446H21.2775C20.7558 11.4446 20.333 11.0217 20.333 10.5001Z" fill="#00A95F" fill-opacity="0.4"/>
<path fill-rule="evenodd" clip-rule="evenodd" d="M20.333 14.5001C20.333 13.9785 20.7558 13.5557 21.2775 13.5557H24.2775C24.7991 13.5557 25.2219 13.9785 25.2219 14.5001C25.2219 15.0217 24.7991 15.4446 24.2775 15.4446H21.2775C20.7558 15.4446 20.333 15.0217 20.333 14.5001Z" fill="#00A95F" fill-opacity="0.4"/>
<path fill-rule="evenodd" clip-rule="evenodd" d="M20.333 18.5001C20.333 17.9785 20.7558 17.5557 21.2775 17.5557H24.2775C24.7991 17.5557 25.2219 17.9785 25.2219 18.5001C25.2219 19.0217 24.7991 19.4446 24.2775 19.4446H21.2775C20.7558 19.4446 20.333 19.0217 20.333 18.5001Z" fill="#00A95F" fill-opacity="0.4"/>
<path fill-rule="evenodd" clip-rule="evenodd" d="M20.333 22.5001C20.333 21.9785 20.7558 21.5557 21.2775 21.5557H24.2775C24.7991 21.5557 25.2219 21.9785 25.2219 22.5001C25.2219 23.0217 24.7991 23.4446 24.2775 23.4446H21.2775C20.7558 23.4446 20.333 23.0217 20.333 22.5001Z" fill="#00A95F" fill-opacity="0.4"/>
<path fill-rule="evenodd" clip-rule="evenodd" d="M20.333 26.5001C20.333 25.9785 20.7558 25.5557 21.2775 25.5557H24.2775C24.7991 25.5557 25.2219 25.9785 25.2219 26.5001C25.2219 27.0217 24.7991 27.4446 24.2775 27.4446H21.2775C20.7558 27.4446 20.333 27.0217 20.333 26.5001Z" fill="#00A95F" fill-opacity="0.4"/>
<rect x="3.5" y="2.5" width="25" height="28" fill="url(#paint0_linear_6603_3411)" fill-opacity="0.4"/>
</g>
<rect x="3.85" y="2.85" width="24.3" height="27.3" rx="3.42778" stroke="#99DDBF" stroke-width="0.7"/>
<rect x="3.85" y="2.85" width="24.3" height="27.3" rx="3.42778" stroke="url(#paint1_linear_6603_3411)" stroke-opacity="0.23" stroke-width="0.7"/>
<g filter="url(#filter0_d_6603_3411)">
<rect y="16" width="16" height="16" rx="4" fill="#00894D"/>
<rect y="16" width="16" height="16" rx="4" fill="white" fill-opacity="0.1"/>
<path fill-rule="evenodd" clip-rule="evenodd" d="M2.69873 22.6664C2.69873 22.5489 2.79403 22.4536 2.9116 22.4536H4.35906C5.12515 22.4536 5.74715 23.1378 5.74715 23.9805V25.2891C5.74715 25.4067 5.65184 25.502 5.53428 25.502H4.07379C3.31481 25.502 2.69873 24.8242 2.69873 23.9894V22.6664Z" fill="white" fill-opacity="0.95"/>
<path fill-rule="evenodd" clip-rule="evenodd" d="M2.69873 26.3922C2.69873 26.2747 2.79403 26.1794 2.9116 26.1794H4.35906C5.12515 26.1794 5.74715 26.8636 5.74715 27.7063V29.0149C5.74715 29.1325 5.65184 29.2278 5.53428 29.2278H4.07379C3.31481 29.2278 2.69873 28.55 2.69873 27.7153V26.3922Z" fill="white" fill-opacity="0.95"/>
<path fill-rule="evenodd" clip-rule="evenodd" d="M13.5376 18.9406C13.5376 18.8231 13.4423 18.7278 13.3248 18.7278H11.8773C11.1112 18.7278 10.4892 19.4119 10.4892 20.2547V21.5633C10.4892 21.6809 10.5845 21.7762 10.7021 21.7762H12.1627C12.9216 21.7762 13.5376 21.0984 13.5376 20.2636V18.9406Z" fill="white" fill-opacity="0.95"/>
<path fill-rule="evenodd" clip-rule="evenodd" d="M6.76334 18.9406C6.76334 18.8231 6.85865 18.7278 6.97621 18.7278H8.42368C9.18976 18.7278 9.81176 19.4119 9.81176 20.2547V21.5633C9.81176 21.6809 9.71646 21.7762 9.5989 21.7762H8.13841C7.37942 21.7762 6.76334 21.0984 6.76334 20.2636V18.9406Z" fill="white" fill-opacity="0.95"/>
<path fill-rule="evenodd" clip-rule="evenodd" d="M6.76334 22.6664C6.76334 22.5489 6.85865 22.4536 6.97621 22.4536H8.42368C9.18976 22.4536 9.81176 23.1378 9.81176 23.9805V25.2891C9.81176 25.4067 9.71646 25.502 9.5989 25.502H8.13841C7.37942 25.502 6.76334 24.8242 6.76334 23.9894V22.6664Z" fill="white" fill-opacity="0.95"/>
<path fill-rule="evenodd" clip-rule="evenodd" d="M13.5376 22.6664C13.5376 22.5489 13.4423 22.4536 13.3248 22.4536H11.8773C11.1112 22.4536 10.4892 23.1378 10.4892 23.9805V25.2891C10.4892 25.4067 10.5845 25.502 10.7021 25.502H12.1627C12.9216 25.502 13.5376 24.8242 13.5376 23.9894V22.6664Z" fill="white" fill-opacity="0.95"/>
<path fill-rule="evenodd" clip-rule="evenodd" d="M6.76334 26.3922C6.76334 26.2747 6.85865 26.1794 6.97621 26.1794H8.42368C9.18976 26.1794 9.81176 26.8636 9.81176 27.7063V29.0149C9.81176 29.1325 9.71646 29.2278 9.5989 29.2278H8.13841C7.37942 29.2278 6.76334 28.55 6.76334 27.7153V26.3922Z" fill="white" fill-opacity="0.95"/>
<path fill-rule="evenodd" clip-rule="evenodd" d="M13.5376 26.3922C13.5376 26.2747 13.4423 26.1794 13.3248 26.1794H11.8773C11.1112 26.1794 10.4892 26.8636 10.4892 27.7063V29.0149C10.4892 29.1325 10.5845 29.2278 10.7021 29.2278H12.1627C12.9216 29.2278 13.5376 28.55 13.5376 27.7153V26.3922Z" fill="white" fill-opacity="0.95"/>
</g>
<defs>
<filter id="filter0_d_6603_3411" x="0" y="14" width="18" height="18" filterUnits="userSpaceOnUse" color-interpolation-filters="sRGB">
<feFlood flood-opacity="0" result="BackgroundImageFix"/>
<feColorMatrix in="SourceAlpha" type="matrix" values="0 0 0 0 0 0 0 0 0 0 0 0 0 0 0 0 0 0 127 0" result="hardAlpha"/>
<feOffset dx="1" dy="-1"/>
<feGaussianBlur stdDeviation="0.5"/>
<feComposite in2="hardAlpha" operator="out"/>
<feColorMatrix type="matrix" values="0 0 0 0 0 0 0 0 0 0 0 0 0 0 0 0 0 0 0.04 0"/>
<feBlend mode="normal" in2="BackgroundImageFix" result="effect1_dropShadow_6603_3411"/>
<feBlend mode="normal" in="SourceGraphic" in2="effect1_dropShadow_6603_3411" result="shape"/>
</filter>
<linearGradient id="paint0_linear_6603_3411" x1="16" y1="2.5" x2="16" y2="30.5" gradientUnits="userSpaceOnUse">
<stop stop-color="white" stop-opacity="0"/>
<stop offset="1" stop-color="white"/>
</linearGradient>
<linearGradient id="paint1_linear_6603_3411" x1="16" y1="2.5" x2="16" y2="30.5" gradientUnits="userSpaceOnUse">
<stop stop-color="white" stop-opacity="0"/>
<stop offset="1" stop-color="white"/>
</linearGradient>
<clipPath id="clip0_6603_3411">
<rect x="3.5" y="2.5" width="25" height="28" rx="3.77778" fill="white"/>
</clipPath>
</defs>
</svg>
