<svg width="16" height="17" viewBox="0 0 16 17" fill="none" xmlns="http://www.w3.org/2000/svg">
<rect y="0.5" width="16" height="16" rx="4" fill="#6D778C"/>
<path fill-rule="evenodd" clip-rule="evenodd" d="M5.91963 3.5C6.25183 3.5 6.52114 3.7693 6.52114 4.1015V12.8985C6.52114 13.2307 6.25183 13.5 5.91963 13.5C5.58743 13.5 5.31813 13.2307 5.31813 12.8985V4.1015C5.31813 3.7693 5.58743 3.5 5.91963 3.5ZM10.3558 4.85338C10.688 4.85338 10.9573 5.12268 10.9573 5.45488V11.5451C10.9573 11.8773 10.688 12.1466 10.3558 12.1466C10.0236 12.1466 9.75434 11.8773 9.75434 11.5451V5.45488C9.75434 5.12268 10.0236 4.85338 10.3558 4.85338ZM8.13765 6.20677C8.46985 6.20677 8.73915 6.47607 8.73915 6.80827V10.1917C8.73915 10.5239 8.46985 10.7932 8.13765 10.7932C7.80545 10.7932 7.53615 10.5239 7.53615 10.1917V6.80827C7.53615 6.47607 7.80545 6.20677 8.13765 6.20677ZM13.1754 8.16165C13.1754 7.82945 12.9061 7.56015 12.5739 7.56015C12.2417 7.56015 11.9724 7.82945 11.9724 8.16165V8.83834C11.9724 9.17054 12.2417 9.43985 12.5739 9.43985C12.9061 9.43985 13.1754 9.17054 13.1754 8.83834V8.16165ZM4.30312 7.48497C4.30312 7.15276 4.03382 6.88346 3.70161 6.88346C3.36941 6.88346 3.10011 7.15276 3.10011 7.48497V9.51504C3.10011 9.84724 3.36941 10.1165 3.70161 10.1165C4.03382 10.1165 4.30312 9.84724 4.30312 9.51504V7.48497Z" fill="#F6F8F9" fill-opacity="0.95"/>
</svg>
