<svg width="16" height="17" viewBox="0 0 16 17" fill="none" xmlns="http://www.w3.org/2000/svg">
<rect y="0.5" width="16" height="16" rx="4" fill="#3677CC"/>
<path d="M10.1114 13.3117C10.5494 13.1889 10.9687 12.9648 11.2439 12.5688C11.5156 12.1811 11.5921 11.6892 11.5921 11.2159V4.28162C11.5921 4.15884 11.5854 4.03584 11.5706 3.91431C11.7881 3.99986 11.9557 4.14122 12.0735 4.33839C12.2124 4.56259 12.2819 4.85784 12.2819 5.22413V12.2674C12.2819 12.7632 12.1603 13.1342 11.9172 13.3805C11.674 13.6268 11.3077 13.7499 10.8183 13.7499H8.15784C8.22085 13.7389 8.28402 13.7275 8.34733 13.7159C8.90251 13.6167 9.48924 13.482 10.107 13.313L10.1114 13.3117Z" fill="#F6F8F9" fill-opacity="0.95"/>
<path fill-rule="evenodd" clip-rule="evenodd" d="M3.71826 12.1206V5.06789C3.71826 4.63844 3.83352 4.3132 4.06403 4.09216C4.2977 3.87112 4.60716 3.74955 4.9924 3.72744C5.56078 3.69271 6.09917 3.64534 6.60756 3.58535C7.11595 3.52219 7.60224 3.44956 8.06642 3.36746C8.53376 3.28536 8.98847 3.19379 9.43055 3.09274C9.88526 2.98538 10.2342 3.03906 10.4773 3.25379C10.7205 3.46851 10.842 3.81112 10.842 4.28162V11.2159C10.842 11.6296 10.771 11.9375 10.6289 12.1396C10.4868 12.3448 10.2468 12.4948 9.90894 12.5895C9.30898 12.7537 8.74375 12.8832 8.21326 12.9779C7.68276 13.0758 7.1649 13.15 6.65966 13.2006C6.15443 13.2511 5.63657 13.2906 5.10607 13.319C4.66715 13.3442 4.32612 13.2527 4.08298 13.0443C3.83983 12.839 3.71826 12.5311 3.71826 12.1206ZM5.45324 6.34841C6.1488 6.30414 6.78618 6.23614 7.36533 6.14437C7.50584 6.12146 7.64615 6.0976 7.78592 6.07284C7.93219 6.04694 8.03797 5.91947 8.03797 5.77126C8.03797 5.57933 7.86426 5.43478 7.67562 5.46696C7.56726 5.48544 7.45833 5.50341 7.34882 5.52086C6.77548 5.61221 6.14195 5.67999 5.44821 5.72414C5.34432 5.73084 5.26166 5.76321 5.20853 5.82772C5.15829 5.88873 5.13367 5.96211 5.13367 6.04575C5.13367 6.13079 5.16236 6.20482 5.21963 6.26567L5.22044 6.26647C5.28251 6.32855 5.36138 6.35542 5.45324 6.34841ZM5.45301 7.92101C6.14866 7.87674 6.78612 7.80874 7.36533 7.71695C7.94704 7.6221 8.52261 7.51142 9.0917 7.38496C9.20718 7.3593 9.29368 7.31888 9.33695 7.25611C9.37949 7.19577 9.40052 7.12661 9.40052 7.04995C9.40052 6.96348 9.36758 6.889 9.30351 6.82849C9.23452 6.76333 9.13805 6.74814 9.0239 6.77165L9.02317 6.77181C8.48087 6.89478 7.92276 7.00199 7.34882 7.09344C6.77548 7.18479 6.14195 7.25257 5.44821 7.29672C5.34432 7.30342 5.26166 7.33579 5.20853 7.4003C5.15853 7.46101 5.13367 7.53269 5.13367 7.6136C5.13367 7.70135 5.16203 7.77712 5.21959 7.83828L5.22125 7.83984C5.28312 7.89807 5.36118 7.92456 5.45207 7.92107L5.45301 7.92101ZM5.45317 9.49353C6.14877 9.44611 6.78616 9.37653 7.36529 9.28475C7.94708 9.19306 8.52254 9.08397 9.0917 8.9575C9.20745 8.93177 9.29404 8.88967 9.33724 8.8235C9.37936 8.76358 9.40052 8.69622 9.40052 8.62249C9.40052 8.53602 9.36758 8.46154 9.30351 8.40102C9.23452 8.33586 9.13805 8.32069 9.0239 8.34419L9.02337 8.3443C8.481 8.46413 7.92282 8.56978 7.34882 8.66124C6.77543 8.7526 6.14188 8.82196 5.44811 8.86926C5.34426 8.87598 5.26164 8.90834 5.20853 8.97283C5.15853 9.03355 5.13367 9.10523 5.13367 9.18614C5.13367 9.27389 5.16203 9.34966 5.21959 9.41082L5.22125 9.41238C5.28312 9.47061 5.36118 9.4971 5.45207 9.49361L5.45317 9.49353ZM7.36533 10.8464C6.78619 10.9382 6.14881 11.0062 5.45325 11.0504C5.36139 11.0574 5.28251 11.0306 5.22044 10.9685L5.21964 10.9677C5.16237 10.9068 5.13367 10.8328 5.13367 10.7478C5.13367 10.6641 5.15829 10.5908 5.20853 10.5297C5.26166 10.4652 5.34435 10.4329 5.44824 10.4262C6.14198 10.382 6.77548 10.3142 7.34882 10.2229C7.45833 10.2054 7.56726 10.1875 7.67562 10.169C7.86426 10.1368 8.03797 10.2813 8.03797 10.4733C8.03797 10.6215 7.93219 10.749 7.78592 10.7749C7.64615 10.7996 7.50584 10.8235 7.36533 10.8464Z" fill="#F6F8F9" fill-opacity="0.95"/>
</svg>
