<svg width="32" height="32" viewBox="0 0 32 32" fill="none" xmlns="http://www.w3.org/2000/svg">
<rect x="4.35" y="0.35" width="23.3" height="31.3" rx="3.20556" fill="white"/>
<rect x="4.35" y="0.35" width="23.3" height="31.3" rx="3.20556" stroke="#6D778C" stroke-width="0.7"/>
<rect x="4.35" y="0.35" width="23.3" height="31.3" rx="3.20556" stroke="#F6F8F9" stroke-opacity="0.8" stroke-width="0.7"/>
<path fill-rule="evenodd" clip-rule="evenodd" d="M7.11108 4C7.11108 3.50908 7.50905 3.11111 7.99997 3.11111H24C24.4909 3.11111 24.8889 3.50908 24.8889 4C24.8889 4.49092 24.4909 4.88889 24 4.88889H7.99997C7.50905 4.88889 7.11108 4.49092 7.11108 4Z" fill="#6D778C"/>
<path fill-rule="evenodd" clip-rule="evenodd" d="M7.11108 4C7.11108 3.50908 7.50905 3.11111 7.99997 3.11111H24C24.4909 3.11111 24.8889 3.50908 24.8889 4C24.8889 4.49092 24.4909 4.88889 24 4.88889H7.99997C7.50905 4.88889 7.11108 4.49092 7.11108 4Z" fill="#F6F8F9" fill-opacity="0.8"/>
<path fill-rule="evenodd" clip-rule="evenodd" d="M7.11108 7C7.11108 6.50908 7.50905 6.11111 7.99997 6.11111H24C24.4909 6.11111 24.8889 6.50908 24.8889 7C24.8889 7.49092 24.4909 7.88889 24 7.88889H7.99997C7.50905 7.88889 7.11108 7.49092 7.11108 7Z" fill="#6D778C"/>
<path fill-rule="evenodd" clip-rule="evenodd" d="M7.11108 7C7.11108 6.50908 7.50905 6.11111 7.99997 6.11111H24C24.4909 6.11111 24.8889 6.50908 24.8889 7C24.8889 7.49092 24.4909 7.88889 24 7.88889H7.99997C7.50905 7.88889 7.11108 7.49092 7.11108 7Z" fill="#F6F8F9" fill-opacity="0.8"/>
<path fill-rule="evenodd" clip-rule="evenodd" d="M7.11108 10C7.11108 9.50908 7.50905 9.11111 7.99997 9.11111H24C24.4909 9.11111 24.8889 9.50908 24.8889 10C24.8889 10.4909 24.4909 10.8889 24 10.8889H7.99997C7.50905 10.8889 7.11108 10.4909 7.11108 10Z" fill="#6D778C"/>
<path fill-rule="evenodd" clip-rule="evenodd" d="M7.11108 10C7.11108 9.50908 7.50905 9.11111 7.99997 9.11111H24C24.4909 9.11111 24.8889 9.50908 24.8889 10C24.8889 10.4909 24.4909 10.8889 24 10.8889H7.99997C7.50905 10.8889 7.11108 10.4909 7.11108 10Z" fill="#F6F8F9" fill-opacity="0.8"/>
<path fill-rule="evenodd" clip-rule="evenodd" d="M7.11108 13C7.11108 12.5091 7.50905 12.1111 7.99997 12.1111H24C24.4909 12.1111 24.8889 12.5091 24.8889 13C24.8889 13.4909 24.4909 13.8889 24 13.8889H7.99997C7.50905 13.8889 7.11108 13.4909 7.11108 13Z" fill="#6D778C"/>
<path fill-rule="evenodd" clip-rule="evenodd" d="M7.11108 13C7.11108 12.5091 7.50905 12.1111 7.99997 12.1111H24C24.4909 12.1111 24.8889 12.5091 24.8889 13C24.8889 13.4909 24.4909 13.8889 24 13.8889H7.99997C7.50905 13.8889 7.11108 13.4909 7.11108 13Z" fill="#F6F8F9" fill-opacity="0.8"/>
<path fill-rule="evenodd" clip-rule="evenodd" d="M7.11108 16C7.11108 15.5091 7.50905 15.1111 7.99997 15.1111H24C24.4909 15.1111 24.8889 15.5091 24.8889 16C24.8889 16.4909 24.4909 16.8889 24 16.8889H7.99997C7.50905 16.8889 7.11108 16.4909 7.11108 16Z" fill="#6D778C"/>
<path fill-rule="evenodd" clip-rule="evenodd" d="M7.11108 16C7.11108 15.5091 7.50905 15.1111 7.99997 15.1111H24C24.4909 15.1111 24.8889 15.5091 24.8889 16C24.8889 16.4909 24.4909 16.8889 24 16.8889H7.99997C7.50905 16.8889 7.11108 16.4909 7.11108 16Z" fill="#F6F8F9" fill-opacity="0.8"/>
<path fill-rule="evenodd" clip-rule="evenodd" d="M7.11108 19C7.11108 18.5091 7.50905 18.1111 7.99997 18.1111H24C24.4909 18.1111 24.8889 18.5091 24.8889 19C24.8889 19.4909 24.4909 19.8889 24 19.8889H7.99997C7.50905 19.8889 7.11108 19.4909 7.11108 19Z" fill="#6D778C"/>
<path fill-rule="evenodd" clip-rule="evenodd" d="M7.11108 19C7.11108 18.5091 7.50905 18.1111 7.99997 18.1111H24C24.4909 18.1111 24.8889 18.5091 24.8889 19C24.8889 19.4909 24.4909 19.8889 24 19.8889H7.99997C7.50905 19.8889 7.11108 19.4909 7.11108 19Z" fill="#F6F8F9" fill-opacity="0.8"/>
<path fill-rule="evenodd" clip-rule="evenodd" d="M7.11108 22C7.11108 21.5091 7.50905 21.1111 7.99997 21.1111H24C24.4909 21.1111 24.8889 21.5091 24.8889 22C24.8889 22.4909 24.4909 22.8889 24 22.8889H7.99997C7.50905 22.8889 7.11108 22.4909 7.11108 22Z" fill="#6D778C"/>
<path fill-rule="evenodd" clip-rule="evenodd" d="M7.11108 22C7.11108 21.5091 7.50905 21.1111 7.99997 21.1111H24C24.4909 21.1111 24.8889 21.5091 24.8889 22C24.8889 22.4909 24.4909 22.8889 24 22.8889H7.99997C7.50905 22.8889 7.11108 22.4909 7.11108 22Z" fill="#F6F8F9" fill-opacity="0.8"/>
<path fill-rule="evenodd" clip-rule="evenodd" d="M7.11108 25C7.11108 24.5091 7.50905 24.1111 7.99997 24.1111H24C24.4909 24.1111 24.8889 24.5091 24.8889 25C24.8889 25.4909 24.4909 25.8889 24 25.8889H7.99997C7.50905 25.8889 7.11108 25.4909 7.11108 25Z" fill="#6D778C"/>
<path fill-rule="evenodd" clip-rule="evenodd" d="M7.11108 25C7.11108 24.5091 7.50905 24.1111 7.99997 24.1111H24C24.4909 24.1111 24.8889 24.5091 24.8889 25C24.8889 25.4909 24.4909 25.8889 24 25.8889H7.99997C7.50905 25.8889 7.11108 25.4909 7.11108 25Z" fill="#F6F8F9" fill-opacity="0.8"/>
<path fill-rule="evenodd" clip-rule="evenodd" d="M7.11108 28C7.11108 27.5091 7.50905 27.1111 7.99997 27.1111H24C24.4909 27.1111 24.8889 27.5091 24.8889 28C24.8889 28.4909 24.4909 28.8889 24 28.8889H7.99997C7.50905 28.8889 7.11108 28.4909 7.11108 28Z" fill="#6D778C"/>
<path fill-rule="evenodd" clip-rule="evenodd" d="M7.11108 28C7.11108 27.5091 7.50905 27.1111 7.99997 27.1111H24C24.4909 27.1111 24.8889 27.5091 24.8889 28C24.8889 28.4909 24.4909 28.8889 24 28.8889H7.99997C7.50905 28.8889 7.11108 28.4909 7.11108 28Z" fill="#F6F8F9" fill-opacity="0.8"/>
<rect y="16" width="16" height="16" rx="4" fill="#6D778C"/>
<path d="M1.9561 26.5C1.84565 26.5 1.7561 26.4104 1.7561 26.3V21.5609C1.7561 21.4504 1.84565 21.3609 1.9561 21.3609H3.45201C4.58261 21.3609 5.27272 21.9409 5.27272 22.8953C5.27272 23.8423 4.58261 24.4223 3.45201 24.4223H2.89861C2.84338 24.4223 2.79861 24.4671 2.79861 24.5223V26.3C2.79861 26.4104 2.70907 26.5 2.59861 26.5H1.9561ZM3.49606 22.2272H2.89861C2.84338 22.2272 2.79861 22.272 2.79861 22.3272V23.456C2.79861 23.5112 2.84338 23.556 2.89861 23.556H3.49606C3.93655 23.556 4.20085 23.2991 4.20085 22.8806C4.20085 22.4915 3.93655 22.2272 3.49606 22.2272Z" fill="#F6F8F9" fill-opacity="0.95"/>
<path d="M6.18812 26.5C6.07767 26.5 5.98812 26.4104 5.98812 26.3V21.5609C5.98812 21.4504 6.07767 21.3609 6.18812 21.3609H8.00706C9.63689 21.3609 10.7381 22.5429 10.7381 23.9304C10.7381 25.318 9.63689 26.5 8.00706 26.5H6.18812ZM8.02174 22.3079H7.13063C7.0754 22.3079 7.03063 22.3527 7.03063 22.4079V25.4529C7.03063 25.5082 7.0754 25.5529 7.13063 25.5529H8.02174C8.97615 25.5529 9.66626 24.8408 9.66626 23.9304C9.66626 23.0127 8.97615 22.3079 8.02174 22.3079Z" fill="#F6F8F9" fill-opacity="0.95"/>
<path d="M11.7967 26.5C11.6862 26.5 11.5967 26.4104 11.5967 26.3V21.5609C11.5967 21.4504 11.6862 21.3609 11.7967 21.3609H14.3921C14.5025 21.3609 14.5921 21.4504 14.5921 21.5609V22.0272C14.5921 22.1376 14.5025 22.2272 14.3921 22.2272H12.7392C12.684 22.2272 12.6392 22.272 12.6392 22.3272V23.3459C12.6392 23.4011 12.684 23.4459 12.7392 23.4459H14.0984C14.2088 23.4459 14.2984 23.5354 14.2984 23.6459V24.1122C14.2984 24.2227 14.2088 24.3122 14.0984 24.3122H12.7392C12.684 24.3122 12.6392 24.357 12.6392 24.4122V26.3C12.6392 26.4104 12.5497 26.5 12.4392 26.5H11.7967Z" fill="#F6F8F9" fill-opacity="0.95"/>
</svg>
