<svg width="32" height="32" viewBox="0 0 32 32" fill="none" xmlns="http://www.w3.org/2000/svg">
<g clip-path="url(#clip0_6656_9590)">
<mask id="mask0_6656_9590" style="mask-type:alpha" maskUnits="userSpaceOnUse" x="4" y="0" width="24" height="32">
<path d="M4.38802 1.94379C4 2.70532 4 3.70221 4 5.696V26.304C4 28.2978 4 29.2947 4.38802 30.0562C4.72933 30.7261 5.27394 31.2707 5.94379 31.612C6.70532 32 7.70221 32 9.696 32H22.304C24.2978 32 25.2947 32 26.0562 31.612C26.7261 31.2707 27.2707 30.7261 27.612 30.0562C28 29.2947 28 28.2978 28 26.304V8.98822C28 8.25445 28 7.88757 27.9171 7.5423C27.8436 7.2362 27.7224 6.94356 27.5579 6.67515C27.3724 6.3724 27.113 6.11297 26.5941 5.59411L22.4059 1.40589C21.887 0.887032 21.6276 0.627605 21.3249 0.442079C21.0564 0.277593 20.7638 0.15638 20.4577 0.0828902C20.1124 0 19.7455 0 19.0118 0H9.696C7.70221 0 6.70532 0 5.94379 0.388017C5.27394 0.729326 4.72933 1.27394 4.38802 1.94379Z" fill="#D9D9D9"/>
</mask>
<g mask="url(#mask0_6656_9590)">
<path d="M4.38802 1.94379C4 2.70532 4 3.70221 4 5.696V26.304C4 28.2978 4 29.2947 4.38802 30.0562C4.72933 30.7261 5.27394 31.2707 5.94379 31.612C6.70532 32 7.70221 32 9.696 32H22.304C24.2978 32 25.2947 32 26.0562 31.612C26.7261 31.2707 27.2707 30.7261 27.612 30.0562C28 29.2947 28 28.2978 28 26.304V8.98822C28 8.25445 28 7.88757 27.9171 7.5423C27.8436 7.2362 27.7224 6.94356 27.5579 6.67515C27.3724 6.3724 27.113 6.11297 26.5941 5.59411L22.4059 1.40589C21.887 0.887032 21.6276 0.627605 21.3249 0.442079C21.0564 0.277593 20.7638 0.15638 20.4577 0.0828902C20.1124 0 19.7455 0 19.0118 0H9.696C7.70221 0 6.70532 0 5.94379 0.388017C5.27394 0.729326 4.72933 1.27394 4.38802 1.94379Z" fill="white"/>
<g filter="url(#filter0_d_6656_9590)">
<mask id="path-4-inside-1_6656_9590" fill="white">
<path d="M20.0964 4.44V0H28.0964V8H23.6564C21.6903 8 20.0964 6.40613 20.0964 4.44Z"/>
</mask>
<path d="M20.0964 4.44V0H28.0964V8H23.6564C21.6903 8 20.0964 6.40613 20.0964 4.44Z" fill="#6D778C"/>
<path d="M20.0964 4.44V0H28.0964V8H23.6564C21.6903 8 20.0964 6.40613 20.0964 4.44Z" fill="#F6F8F9" fill-opacity="0.9"/>
<path d="M20.0964 0V-0.7H19.3964V0H20.0964ZM28.0964 8V8.7H28.7964V8H28.0964ZM28.0964 0H28.7964V-0.7H28.0964V0ZM20.0964 0H19.3964V4.44H20.0964H20.7964V0H20.0964ZM23.6564 8V8.7H28.0964V8V7.3H23.6564V8ZM20.0964 0V0.7H28.0964V0V-0.7H20.0964V0ZM28.0964 0H27.3964V8H28.0964H28.7964V0H28.0964ZM20.0964 4.44H19.3964C19.3964 6.79273 21.3037 8.7 23.6564 8.7V8V7.3C22.0769 7.3 20.7964 6.01953 20.7964 4.44H20.0964Z" fill="#6D778C" mask="url(#path-4-inside-1_6656_9590)"/>
<path d="M20.0964 0V-0.7H19.3964V0H20.0964ZM28.0964 8V8.7H28.7964V8H28.0964ZM28.0964 0H28.7964V-0.7H28.0964V0ZM20.0964 0H19.3964V4.44H20.0964H20.7964V0H20.0964ZM23.6564 8V8.7H28.0964V8V7.3H23.6564V8ZM20.0964 0V0.7H28.0964V0V-0.7H20.0964V0ZM28.0964 0H27.3964V8H28.0964H28.7964V0H28.0964ZM20.0964 4.44H19.3964C19.3964 6.79273 21.3037 8.7 23.6564 8.7V8V7.3C22.0769 7.3 20.7964 6.01953 20.7964 4.44H20.0964Z" fill="#F6F8F9" fill-opacity="0.8" mask="url(#path-4-inside-1_6656_9590)"/>
</g>
<path d="M9.69629 0.349609H19.0117C19.7621 0.349609 20.0804 0.351904 20.376 0.422852C20.6462 0.487732 20.9046 0.595062 21.1416 0.740234C21.4008 0.899068 21.6277 1.12278 22.1582 1.65332L26.3467 5.8418C26.8772 6.37234 27.1009 6.5992 27.2598 6.8584C27.4049 7.09539 27.5123 7.35378 27.5771 7.62402C27.6481 7.91961 27.6504 8.23793 27.6504 8.98828V26.3037C27.6504 27.3061 27.6496 28.0373 27.6025 28.6133C27.5558 29.1853 27.4645 29.5743 27.2998 29.8975C26.9921 30.5013 26.5013 30.9921 25.8975 31.2998C25.5743 31.4645 25.1853 31.5558 24.6133 31.6025C24.0373 31.6496 23.3061 31.6504 22.3037 31.6504H9.69629C8.69386 31.6504 7.96274 31.6496 7.38672 31.6025C6.81473 31.5558 6.42574 31.4645 6.10254 31.2998C5.49874 30.9921 5.00791 30.5013 4.7002 29.8975C4.53552 29.5743 4.44419 29.1853 4.39746 28.6133C4.35043 28.0373 4.34961 27.3061 4.34961 26.3037V5.69629C4.34961 4.69386 4.35043 3.96274 4.39746 3.38672C4.44419 2.81473 4.53552 2.42574 4.7002 2.10254C5.00791 1.49874 5.49874 1.00791 6.10254 0.700195C6.42574 0.535517 6.81473 0.444195 7.38672 0.397461C7.96274 0.350426 8.69386 0.349609 9.69629 0.349609Z" stroke="#6D778C" stroke-width="0.7"/>
<path d="M9.69629 0.349609H19.0117C19.7621 0.349609 20.0804 0.351904 20.376 0.422852C20.6462 0.487732 20.9046 0.595062 21.1416 0.740234C21.4008 0.899068 21.6277 1.12278 22.1582 1.65332L26.3467 5.8418C26.8772 6.37234 27.1009 6.5992 27.2598 6.8584C27.4049 7.09539 27.5123 7.35378 27.5771 7.62402C27.6481 7.91961 27.6504 8.23793 27.6504 8.98828V26.3037C27.6504 27.3061 27.6496 28.0373 27.6025 28.6133C27.5558 29.1853 27.4645 29.5743 27.2998 29.8975C26.9921 30.5013 26.5013 30.9921 25.8975 31.2998C25.5743 31.4645 25.1853 31.5558 24.6133 31.6025C24.0373 31.6496 23.3061 31.6504 22.3037 31.6504H9.69629C8.69386 31.6504 7.96274 31.6496 7.38672 31.6025C6.81473 31.5558 6.42574 31.4645 6.10254 31.2998C5.49874 30.9921 5.00791 30.5013 4.7002 29.8975C4.53552 29.5743 4.44419 29.1853 4.39746 28.6133C4.35043 28.0373 4.34961 27.3061 4.34961 26.3037V5.69629C4.34961 4.69386 4.35043 3.96274 4.39746 3.38672C4.44419 2.81473 4.53552 2.42574 4.7002 2.10254C5.00791 1.49874 5.49874 1.00791 6.10254 0.700195C6.42574 0.535517 6.81473 0.444195 7.38672 0.397461C7.96274 0.350426 8.69386 0.349609 9.69629 0.349609Z" stroke="#F6F8F9" stroke-opacity="0.8" stroke-width="0.7"/>
</g>
<path d="M11.6121 21.3931C11.2829 21.3931 10.9972 21.3212 10.755 21.1774C10.5128 21.0336 10.3254 20.8406 10.193 20.5984C10.0643 20.3562 10 20.0875 10 19.7923C10 19.5047 10.0757 19.2304 10.2271 18.9693L14.6206 11.3117C14.7682 11.043 14.9669 10.8406 15.2167 10.7044C15.4664 10.5681 15.7275 10.5 16 10.5C16.2725 10.5 16.5317 10.5681 16.7777 10.7044C17.0237 10.8368 17.2242 11.0393 17.3794 11.3117L21.7729 18.9693C21.8486 19.0979 21.9054 19.2323 21.9432 19.3723C21.9811 19.5123 22 19.6523 22 19.7923C22 20.0875 21.9338 20.3562 21.8013 20.5984C21.6689 20.8406 21.4816 21.0336 21.2394 21.1774C21.0009 21.3212 20.7171 21.3931 20.3879 21.3931H11.6121ZM16.0057 17.5047C16.3425 17.5047 16.5147 17.3288 16.5222 16.9768L16.6131 14.1272C16.6206 13.9532 16.5658 13.8113 16.4484 13.7015C16.3311 13.588 16.1816 13.5312 16 13.5312C15.8146 13.5312 15.6651 13.588 15.5516 13.7015C15.438 13.8113 15.3851 13.9513 15.3926 14.1216L15.4721 16.9825C15.4834 17.3307 15.6613 17.5047 16.0057 17.5047ZM16.0057 19.4574C16.1949 19.4574 16.3576 19.3969 16.4939 19.2758C16.6301 19.1547 16.6982 18.9995 16.6982 18.8103C16.6982 18.6249 16.6301 18.4697 16.4939 18.3448C16.3576 18.22 16.1949 18.1575 16.0057 18.1575C15.8127 18.1575 15.6481 18.22 15.5118 18.3448C15.3756 18.4697 15.3075 18.6249 15.3075 18.8103C15.3075 18.9995 15.3756 19.1547 15.5118 19.2758C15.6518 19.3969 15.8165 19.4574 16.0057 19.4574Z" fill="#A75400"/>
</g>
<defs>
<filter id="filter0_d_6656_9590" x="18.0964" y="-2" width="12" height="12" filterUnits="userSpaceOnUse" color-interpolation-filters="sRGB">
<feFlood flood-opacity="0" result="BackgroundImageFix"/>
<feColorMatrix in="SourceAlpha" type="matrix" values="0 0 0 0 0 0 0 0 0 0 0 0 0 0 0 0 0 0 127 0" result="hardAlpha"/>
<feOffset/>
<feGaussianBlur stdDeviation="1"/>
<feComposite in2="hardAlpha" operator="out"/>
<feColorMatrix type="matrix" values="0 0 0 0 0 0 0 0 0 0 0 0 0 0 0 0 0 0 0.1 0"/>
<feBlend mode="normal" in2="BackgroundImageFix" result="effect1_dropShadow_6656_9590"/>
<feBlend mode="normal" in="SourceGraphic" in2="effect1_dropShadow_6656_9590" result="shape"/>
</filter>
<clipPath id="clip0_6656_9590">
<rect x="4" width="24" height="32" rx="3.55556" fill="white"/>
</clipPath>
</defs>
</svg>
