<svg width="122" height="40" viewBox="0 0 122 40" fill="none" xmlns="http://www.w3.org/2000/svg">
<path d="M31.6765 13.7263H12.4197C10.2325 13.7263 8.03303 15.4473 7.50711 17.5704L6 23.6543V11.8488C6 10.5779 6.29141 9.62077 6.87422 8.97729C7.46451 8.32576 8.28269 8 9.32877 8H12.5006C12.8892 8 13.2254 8.02815 13.5093 8.08446C13.7933 8.14076 14.0548 8.23728 14.2939 8.37402C14.533 8.50272 14.7833 8.6837 15.0448 8.91696L15.6837 9.48403C15.9975 9.74946 16.2927 9.93848 16.5691 10.0511C16.8456 10.1637 17.1856 10.22 17.5891 10.22H28.0125C29.2155 10.22 30.1271 10.5538 30.7472 11.2214C31.3035 11.8131 31.6133 12.6481 31.6765 13.7263Z" fill="#C83F49"/>
<path d="M9.67656 31C8.46609 31 7.6366 30.6536 7.18806 29.9607C6.73746 29.2761 6.6776 28.266 7.00848 26.9303L9.32709 17.5705C9.61138 16.4229 10.8003 15.4926 11.9826 15.4926H33.3898C34.5721 15.4926 35.3001 16.4229 35.0158 17.5705L32.6972 26.9303C32.3663 28.266 31.8172 29.2761 31.0499 29.9607C30.2805 30.6536 29.3615 31 28.293 31H9.67656Z" fill="#2845C1"/>
<rect x="14" y="26" width="12" height="9" rx="4.5" fill="#EEF1F4"/>
<rect x="14" y="26" width="12" height="9" rx="4.5" fill="url(#paint0_linear_3435_94)" fill-opacity="0.1"/>
<path d="M22.9901 33.2782C22.7635 33.3485 22.5616 33.3864 22.3842 33.3864C21.7931 33.3864 21.3941 32.9103 21.1921 31.9527H21.1675C20.6798 32.986 19.9951 33.5 19.133 33.5C18.4877 33.5 17.9704 33.2349 17.5813 32.6993C17.1921 32.1637 17 31.4928 17 30.6812C17 29.7344 17.2217 28.977 17.6601 28.3873C18.0985 27.7976 18.6946 27.5 19.4483 27.5C19.8522 27.5 20.2167 27.6244 20.532 27.8679C20.8473 28.1168 21.0887 28.463 21.2562 28.9121H21.2759L21.6256 27.6136H22.8867L21.8325 30.4919C21.9507 31.1628 22.0739 31.6226 22.2118 31.8661C22.33 32.1096 22.4975 32.234 22.7044 32.234C22.8227 32.234 22.9163 32.2124 23 32.1745L22.9901 33.2782ZM20.8916 30.4432C20.7882 29.8318 20.6207 29.3557 20.3941 29.0311C20.1724 28.7011 19.9015 28.5388 19.5911 28.5388C19.1872 28.5388 18.8621 28.739 18.6207 29.1339C18.3793 29.5343 18.2709 30.0266 18.2709 30.6055C18.2709 31.1357 18.3645 31.5739 18.5764 31.931C18.7833 32.2881 19.064 32.4612 19.4138 32.4612C19.7094 32.4612 19.9803 32.3043 20.2217 32.0068C20.468 31.6984 20.67 31.2493 20.8325 30.6596L20.8916 30.4432Z" fill="#C83F49"/>
<path d="M62.9111 15.2864C63.9592 15.2864 64.8937 15.4988 65.7139 15.9241C66.4871 16.3037 67.1304 16.8138 67.6434 17.4537C67.7121 17.5394 67.6942 17.6641 67.6067 17.7304L65.953 18.985C65.8606 19.055 65.7288 19.0318 65.6586 18.9395C65.3841 18.5784 65.0298 18.2795 64.5967 18.0432C64.1106 17.7699 63.5408 17.6331 62.8877 17.6331C62.3563 17.6331 61.8627 17.7316 61.4072 17.929C60.9668 18.1264 60.5866 18.3999 60.2676 18.7493C59.9486 19.0986 59.6979 19.5089 59.5156 19.9797C59.3334 20.4354 59.2422 20.9369 59.2422 21.4836C59.2422 22.2127 59.4018 22.8737 59.7207 23.4661C60.0397 24.0433 60.4727 24.4991 61.0195 24.8333C61.5664 25.1674 62.2045 25.3342 62.9336 25.3342C63.5564 25.3342 64.1106 25.1975 64.5967 24.9241C65.0298 24.6878 65.3841 24.3896 65.6586 24.0287C65.7288 23.9365 65.8606 23.9132 65.953 23.9833L67.6051 25.2366C67.6932 25.3034 67.7106 25.4293 67.6406 25.5149C67.128 26.141 66.4855 26.6503 65.7139 27.0432C64.8937 27.4685 63.9592 27.6818 62.9111 27.6819C61.6199 27.6819 60.5033 27.4002 59.5615 26.8381C58.6197 26.2609 57.8905 25.5016 57.374 24.5598C56.8728 23.618 56.6221 22.5925 56.6221 21.4836C56.6221 20.6484 56.7662 19.8587 57.0547 19.1145C57.3433 18.3702 57.7617 17.7093 58.3086 17.1321C58.8554 16.555 59.5155 16.1063 60.29 15.7874C61.0648 15.4532 61.9389 15.2864 62.9111 15.2864Z" fill="#2845C1"/>
<path fill-rule="evenodd" clip-rule="evenodd" d="M93.3818 15.2864C94.1716 15.2864 94.8856 15.415 95.5234 15.6731C96.1614 15.9313 96.7084 16.2888 97.1641 16.7444C97.635 17.2001 97.9923 17.7397 98.2354 18.3625C98.4783 18.9852 98.5996 19.661 98.5996 20.3899C98.5996 20.6633 98.5851 20.9295 98.5547 21.1877C98.5327 21.3747 98.5065 21.5378 98.4764 21.677C98.4574 21.7652 98.3779 21.8254 98.2877 21.8254H90.2901C90.174 21.8254 90.082 21.9241 90.0942 22.0396C90.1581 22.6436 90.3041 23.1646 90.5342 23.6028C90.8531 24.2103 91.3008 24.6662 91.8779 24.97C92.4552 25.2738 93.1087 25.426 93.8379 25.426C94.5214 25.426 95.1368 25.2893 95.6836 25.0159C96.1764 24.7761 96.5814 24.466 96.899 24.086C96.9718 23.9988 97.1013 23.9811 97.1901 24.0519L98.6768 25.237C98.7612 25.3043 98.7773 25.4266 98.7098 25.5108C98.1952 26.1535 97.5428 26.6722 96.7539 27.0667C95.9033 27.4767 94.9387 27.6819 93.8604 27.6819C92.5236 27.6819 91.3842 27.4002 90.4424 26.8381C89.5007 26.2609 88.7795 25.5015 88.2783 24.5598C87.777 23.618 87.5264 22.5925 87.5264 21.4836C87.5264 20.6179 87.6549 19.8128 87.9131 19.0686C88.1865 18.3243 88.5739 17.6707 89.0752 17.1086C89.5764 16.5315 90.1919 16.0839 90.9209 15.7649C91.65 15.4459 92.4704 15.2864 93.3818 15.2864ZM93.3135 17.3596C92.6451 17.3596 92.0599 17.5119 91.5586 17.8157C91.0728 18.1194 90.7005 18.5673 90.4424 19.1594C90.3587 19.3464 90.2895 19.5481 90.2334 19.764C90.2015 19.8866 90.2966 20.0032 90.4234 20.0032H95.9293C96.0423 20.0032 96.1336 19.9096 96.1218 19.7973C96.0839 19.4369 95.9762 19.0955 95.7969 18.7727C95.5843 18.3475 95.2733 18.0055 94.8633 17.7473C94.4531 17.4891 93.9363 17.3596 93.3135 17.3596Z" fill="#2845C1"/>
<path d="M112.805 15.2864C113.64 15.2864 114.415 15.4687 115.129 15.8333C115.793 16.1655 116.326 16.5796 116.725 17.0758C116.791 17.1573 116.776 17.2753 116.697 17.3432L115.293 18.541C115.204 18.6165 115.071 18.6004 114.997 18.5101C114.738 18.191 114.44 17.9214 114.104 17.7014C113.709 17.4433 113.276 17.3137 112.805 17.3137C112.471 17.3138 112.182 17.3749 111.939 17.4963C111.712 17.6179 111.537 17.7774 111.415 17.9749C111.309 18.1723 111.256 18.3929 111.256 18.636C111.256 19.0003 111.385 19.3042 111.643 19.5471C111.916 19.775 112.266 19.9728 112.691 20.1399C113.117 20.3069 113.564 20.4894 114.035 20.6868C114.521 20.8691 114.977 21.0969 115.402 21.3704C115.828 21.6286 116.17 21.9777 116.428 22.4182C116.701 22.8434 116.838 23.3824 116.838 24.0354C116.838 24.8099 116.648 25.471 116.269 26.0178C115.904 26.5493 115.418 26.9597 114.811 27.2483C114.203 27.5369 113.534 27.6819 112.805 27.6819C111.818 27.6819 110.959 27.4994 110.23 27.135C109.559 26.7851 108.964 26.325 108.447 25.7557C108.373 25.6747 108.382 25.5496 108.465 25.4773L109.868 24.2422C109.954 24.1668 110.085 24.1786 110.159 24.265C110.49 24.6482 110.855 24.9671 111.256 25.2209C111.711 25.5094 112.22 25.6536 112.782 25.6536C113.314 25.6536 113.717 25.5168 113.99 25.2434C114.279 24.9549 114.423 24.6055 114.423 24.1956C114.423 23.8159 114.286 23.5123 114.013 23.2844C113.754 23.0566 113.413 22.8587 112.987 22.6917C112.562 22.5246 112.106 22.3495 111.62 22.1672C111.149 21.9698 110.701 21.7346 110.275 21.4612C109.85 21.1878 109.501 20.8385 109.228 20.4133C108.969 19.9728 108.84 19.4104 108.84 18.7268C108.84 18.0888 109.008 17.5118 109.342 16.9954C109.676 16.4637 110.139 16.0453 110.731 15.7415C111.339 15.4377 112.03 15.2864 112.805 15.2864Z" fill="#2845C1"/>
<path d="M50.001 13.4233C50.001 13.5337 49.9114 13.6233 49.801 13.6233H44.0027C43.8923 13.6233 43.8027 13.7128 43.8027 13.8233V17.729C43.8027 17.8394 43.8923 17.929 44.0027 17.929H48.8889C48.9993 17.929 49.0889 18.0185 49.0889 18.129V20.0766C49.0889 20.1871 48.9993 20.2766 48.8889 20.2766H44.0027C43.8923 20.2766 43.8027 20.3662 43.8027 20.4766V27.0258C43.8027 27.1363 43.7132 27.2258 43.6027 27.2258H41.2C41.0895 27.2258 41 27.1363 41 27.0258V11.4756C41 11.3652 41.0895 11.2756 41.2 11.2756H49.801C49.9114 11.2756 50.001 11.3652 50.001 11.4756V13.4233Z" fill="#2845C1"/>
<path d="M54.4697 27.0258C54.4697 27.1363 54.3802 27.2258 54.2697 27.2258H52.1639C52.0534 27.2258 51.9639 27.1363 51.9639 27.0258V15.9415C51.9639 15.831 52.0534 15.7415 52.1639 15.7415H54.2697C54.3802 15.7415 54.4697 15.831 54.4697 15.9415V27.0258Z" fill="#2845C1"/>
<path d="M71.9727 16.5386C71.9727 16.6287 72.0837 16.674 72.1493 16.6122C72.5262 16.2568 72.9607 15.9589 73.4531 15.719C74.0456 15.4304 74.7374 15.2864 75.5273 15.2864C76.3779 15.2864 77.1374 15.476 77.8057 15.8557C78.4892 16.2355 79.0289 16.7979 79.4238 17.5422C79.8186 18.2865 80.0156 19.2211 80.0156 20.345V27.0258C80.0156 27.1363 79.9261 27.2258 79.8156 27.2258H77.6863C77.5759 27.2258 77.4863 27.1363 77.4863 27.0258V20.4358C77.4863 19.5547 77.2584 18.8711 76.8027 18.385C76.347 17.8838 75.7244 17.6331 74.9346 17.6331C74.4334 17.6331 73.993 17.7316 73.6133 17.929C73.2335 18.1112 72.9062 18.3474 72.6328 18.636C72.3934 18.9036 72.1868 19.1845 72.0127 19.4783C71.9861 19.5232 71.9727 19.5746 71.9727 19.6268V27.0258C71.9727 27.1363 71.8831 27.2258 71.7727 27.2258H69.6658C69.5554 27.2258 69.4658 27.1363 69.4658 27.0258V10.337C69.4658 10.2265 69.5554 10.137 69.6658 10.137H71.7727C71.8831 10.137 71.9727 10.2265 71.9727 10.337V16.5386Z" fill="#2845C1"/>
<path d="M85.374 27.0258C85.374 27.1363 85.2845 27.2258 85.174 27.2258H83.0682C82.9577 27.2258 82.8682 27.1363 82.8682 27.0258V15.9415C82.8682 15.831 82.9577 15.7415 83.0682 15.7415H85.174C85.2845 15.7415 85.374 15.831 85.374 15.9415V27.0258Z" fill="#2845C1"/>
<path d="M106.6 15.5139C106.797 15.5139 106.979 15.5294 107.146 15.5598C107.259 15.5803 107.365 15.604 107.464 15.6313C107.547 15.6541 107.602 15.7312 107.602 15.8173V17.8779C107.602 18.008 107.479 18.1035 107.352 18.0776C107.248 18.0564 107.141 18.0375 107.032 18.0208C106.85 17.9904 106.629 17.9749 106.371 17.9749C105.9 17.9749 105.475 18.0506 105.096 18.2024C104.731 18.3543 104.412 18.5595 104.139 18.8176C103.937 18.9972 103.759 19.1936 103.607 19.4064C103.502 19.5538 103.455 19.7337 103.455 19.915V27.0258C103.455 27.1363 103.366 27.2258 103.255 27.2258H101.148C101.038 27.2258 100.948 27.1363 100.948 27.0258V15.9415C100.948 15.831 101.038 15.7415 101.148 15.7415H103.255C103.366 15.7415 103.455 15.831 103.455 15.9415V16.7459C103.455 16.837 103.568 16.8815 103.632 16.8166C103.759 16.6877 103.89 16.5649 104.024 16.4485C104.359 16.1599 104.739 15.932 105.164 15.7649C105.589 15.5978 106.068 15.5139 106.6 15.5139Z" fill="#2845C1"/>
<path d="M53.2393 10.0002C53.5429 10.0002 53.8166 10.076 54.0596 10.2278C54.3178 10.3797 54.5156 10.5848 54.6523 10.843C54.8042 11.0861 54.8799 11.3595 54.8799 11.6633C54.8799 11.9671 54.8042 12.2479 54.6523 12.5061C54.5156 12.7643 54.3178 12.9694 54.0596 13.1213C53.8166 13.258 53.543 13.3264 53.2393 13.3264C52.9356 13.3263 52.6546 13.258 52.3965 13.1213C52.1383 12.9694 51.9331 12.7643 51.7812 12.5061C51.6295 12.248 51.5537 11.967 51.5537 11.6633C51.5537 11.2076 51.7132 10.8202 52.0322 10.5012C52.3663 10.1672 52.7686 10.0004 53.2393 10.0002Z" fill="#2845C1"/>
<path d="M84.1436 10.0002C84.4473 10.0002 84.7208 10.0759 84.9639 10.2278C85.2221 10.3797 85.4199 10.5848 85.5566 10.843C85.7085 11.086 85.7842 11.3596 85.7842 11.6633C85.7842 11.967 85.7084 12.248 85.5566 12.5061C85.4199 12.7643 85.2221 12.9694 84.9639 13.1213C84.7208 13.258 84.4473 13.3264 84.1436 13.3264C83.8398 13.3264 83.559 13.258 83.3008 13.1213C83.0425 12.9694 82.8375 12.7643 82.6855 12.5061C82.5337 12.2479 82.458 11.9671 82.458 11.6633C82.458 11.2076 82.6175 10.8202 82.9365 10.5012C83.2706 10.1672 83.6728 10.0003 84.1436 10.0002Z" fill="#2845C1"/>
<defs>
<linearGradient id="paint0_linear_3435_94" x1="20" y1="26" x2="20" y2="35" gradientUnits="userSpaceOnUse">
<stop stop-color="#C83F49"/>
<stop offset="1" stop-color="#EEF1F4"/>
</linearGradient>
</defs>
</svg>
