<svg width="64" height="26" viewBox="0 0 64 26" fill="none" xmlns="http://www.w3.org/2000/svg">
<g clip-path="url(#clip0_7771_15979)">
<path d="M63.4259 19.6175C63.4259 20.1333 63.4259 20.3912 63.3731 20.6274C63.2756 21.0639 63.0469 21.4602 62.7177 21.763C62.5395 21.9269 62.3162 22.0559 61.8696 22.3139L59.9192 23.4406C59.4723 23.6988 59.2488 23.8279 59.0177 23.9003C58.5905 24.0343 58.1326 24.0343 57.7055 23.9003C57.4744 23.8279 57.2509 23.6988 56.804 23.4406L55.4779 22.6746C54.9159 22.3499 54.6348 22.1875 54.5043 21.9996C54.2603 21.6483 54.2605 21.1823 54.5049 20.8313C54.6356 20.6435 54.9168 20.4814 55.4792 20.1572L56.8083 19.3911C57.2557 19.1333 57.4793 19.0044 57.6578 18.8405C57.9875 18.5376 58.2167 18.1411 58.3144 17.7041C58.3673 17.4677 58.3673 17.2095 58.3673 16.6932V15.1651C58.3673 14.5163 58.3673 14.1919 58.4647 13.9849C58.6468 13.598 59.0502 13.365 59.4763 13.4008C59.7042 13.42 59.9852 13.5822 60.5471 13.9066L61.869 14.6698C62.3157 14.9277 62.5391 15.0567 62.7173 15.2206C63.0467 15.5234 63.2755 15.9198 63.3731 16.3564C63.4259 16.5927 63.4259 16.8506 63.4259 17.3665V19.6175Z" fill="#C83F49"/>
<path fill-rule="evenodd" clip-rule="evenodd" d="M52.1227 10.0913C54.0237 10.0913 55.2764 11.3056 55.4296 13.0311C55.4634 13.4125 55.483 13.8298 55.4161 14.2062C55.3942 14.3293 55.2848 14.4154 55.1598 14.4154H50.4038C50.3227 14.4154 50.2598 14.4872 50.2735 14.5671C50.4893 15.8206 51.1794 16.3447 52.2824 16.3447C52.6047 16.3447 52.9343 16.2299 53.1712 16.1233C53.3024 16.0642 53.3687 16.0345 53.4122 16.0248C53.5046 16.0041 53.5644 16.0079 53.6538 16.0395C53.6958 16.0543 53.745 16.0841 53.8434 16.1435L54.2508 16.3894C54.5156 16.549 54.6484 16.6286 54.7029 16.7099C54.8054 16.8634 54.8021 17.0598 54.6943 17.2097C54.6371 17.2891 54.5058 17.3625 54.2429 17.5088C54.0455 17.6186 53.8437 17.7185 53.633 17.7938C52.9051 18.0543 52.1282 18.0627 51.3458 17.8972C49.3995 17.4855 48.3644 15.875 48.3644 14.038C48.3645 11.8759 49.7285 10.0914 52.1227 10.0913ZM52.0793 11.6003C51.1906 11.6004 50.5851 12.0639 50.3482 12.9186C50.3253 13.0011 50.3898 13.0807 50.4754 13.0807H53.5357C53.6121 13.0806 53.6738 13.0164 53.6642 12.9406C53.5771 12.2499 53.0446 11.6003 52.0793 11.6003Z" fill="#2845C1"/>
<path d="M27.0483 7.27437C28.4287 7.27441 29.5109 7.83538 30.3491 8.7076C30.4132 8.77435 30.4455 8.80771 30.4647 8.84951C30.4989 8.9242 30.4955 9.02087 30.4562 9.09297C30.4341 9.13343 30.3969 9.16737 30.3222 9.23489L29.401 10.0674C29.3152 10.1449 29.272 10.1842 29.2303 10.202C29.1493 10.2366 29.0681 10.2321 28.9911 10.1891C28.9515 10.1671 28.9094 10.1201 28.8253 10.0264C28.2997 9.4409 27.7178 9.07156 27.0624 9.07156C26.3381 9.07169 25.8599 9.53539 25.8598 10.1439C25.8598 10.9189 26.6772 11.2755 27.6234 11.6878C28.924 12.2546 30.4683 12.9276 30.4684 14.9409C30.4394 16.8538 28.9612 17.9987 27.0918 17.9988C25.5333 17.9988 24.444 17.4813 23.583 16.5778C23.5199 16.5115 23.4882 16.478 23.4693 16.4365C23.4356 16.3625 23.4388 16.2671 23.4772 16.1955C23.4988 16.1552 23.5355 16.1211 23.6087 16.0536L24.5226 15.2112C24.6088 15.1317 24.652 15.0918 24.6927 15.0736C24.7735 15.0376 24.8496 15.0396 24.9282 15.0803C24.9678 15.1009 25.0139 15.1485 25.1056 15.2437C25.6733 15.8326 26.3698 16.1728 27.0771 16.1728C27.8886 16.1728 28.3812 15.7381 28.3813 15.0137C28.3813 14.22 27.551 13.8546 26.5951 13.4342C25.2993 12.8644 23.7734 12.193 23.7733 10.2167C23.7733 8.60804 25.1064 7.27437 27.0483 7.27437Z" fill="#2845C1"/>
<path d="M33.0816 10.4051C33.1877 10.4051 33.2407 10.4052 33.2834 10.4198C33.3629 10.447 33.4257 10.5091 33.4529 10.5886C33.4675 10.6314 33.4676 10.6848 33.4676 10.7911V14.55C33.4677 15.6077 34.0181 16.2596 35.0323 16.2597C36.0322 16.2597 36.5829 15.6077 36.583 14.55V10.7911C36.583 10.6848 36.583 10.6314 36.5977 10.5886C36.6249 10.5091 36.6877 10.447 36.7671 10.4198C36.8099 10.4052 36.8629 10.4051 36.969 10.4051H38.0523C38.1585 10.4051 38.212 10.4051 38.2548 10.4198C38.3341 10.447 38.3964 10.5093 38.4236 10.5886C38.4382 10.6314 38.4383 10.6848 38.4383 10.7911V14.4625C38.4383 16.6508 37.163 17.9987 35.0182 17.9988C32.8734 17.9988 31.6123 16.6508 31.6123 14.4625V10.7911C31.6123 10.6848 31.6123 10.6314 31.627 10.5886C31.6541 10.5093 31.7165 10.447 31.7958 10.4198C31.8386 10.4051 31.892 10.4051 31.9983 10.4051H33.0816Z" fill="#2845C1"/>
<path fill-rule="evenodd" clip-rule="evenodd" d="M18.6864 10.109C20.8021 10.109 21.8892 11.3699 21.8892 12.9785V17.3173C21.8892 17.4233 21.8891 17.4765 21.8746 17.5192C21.8474 17.5986 21.7846 17.6614 21.7051 17.6886C21.6624 17.7032 21.6092 17.7033 21.5033 17.7033H20.4346C20.3284 17.7033 20.2749 17.7033 20.2321 17.6886C20.1527 17.6614 20.0905 17.5986 20.0633 17.5192C20.0487 17.4764 20.0486 17.4234 20.0486 17.3173V17.2415C20.0486 17.1766 20.0485 17.144 20.0413 17.1302C20.0267 17.1027 19.999 17.0907 19.9691 17.099C19.954 17.1033 19.9286 17.127 19.8786 17.1742C19.3908 17.6343 18.6201 17.9204 17.8606 17.9205C16.3969 17.9205 15.3967 17.08 15.3966 15.7324C15.3966 14.6311 16.2515 13.8046 17.8165 13.5437L19.8627 13.1981C19.9699 13.18 20.0486 13.0873 20.0486 12.9785C20.0486 12.2105 19.4687 11.7178 18.6282 11.7178C18.0616 11.7178 17.5966 11.9303 17.2329 12.2885C17.1368 12.3832 17.0884 12.4305 17.0519 12.4494C16.9763 12.4885 16.9134 12.4922 16.8335 12.4628C16.7949 12.4487 16.7508 12.415 16.6628 12.3478L15.9276 11.7869C15.849 11.7269 15.8096 11.6967 15.7838 11.6566C15.7392 11.5871 15.7297 11.4822 15.7612 11.4058C15.7794 11.3617 15.8085 11.3298 15.8664 11.2664C16.5273 10.542 17.5043 10.109 18.6864 10.109ZM19.8241 14.4943L18.3095 14.747C17.5416 14.8774 17.2227 15.1958 17.2225 15.6449C17.2225 16.1377 17.6142 16.4567 18.2374 16.4567C18.9727 16.4566 19.5305 16.1571 19.9012 15.6939C19.9264 15.6624 19.9392 15.6465 19.9618 15.6082C19.9962 15.5498 20.0329 15.4453 20.0425 15.3782C20.0487 15.3344 20.0486 15.2998 20.0486 15.2308V14.6846C20.0486 14.623 20.0483 14.5923 20.0394 14.5689C20.0228 14.5254 19.9854 14.4932 19.9397 14.4839C19.9152 14.479 19.8848 14.4842 19.8241 14.4943Z" fill="#2845C1"/>
<path d="M45.2967 8.57914C45.4029 8.57914 45.4564 8.57917 45.4992 8.59382C45.5785 8.62109 45.6408 8.68332 45.668 8.76265C45.6826 8.8054 45.6827 8.85848 45.6827 8.96451V10.2717C45.6827 10.3083 45.6825 10.3267 45.6876 10.3415C45.697 10.3689 45.7188 10.3902 45.7463 10.3996C45.7611 10.4046 45.7794 10.4051 45.816 10.4051H47.5288C47.6349 10.4051 47.6879 10.4051 47.7307 10.4198C47.8101 10.447 47.8723 10.5092 47.8995 10.5886C47.9142 10.6314 47.9142 10.6848 47.9142 10.7911V11.6713C47.9142 11.7774 47.9141 11.8304 47.8995 11.8732C47.8723 11.9526 47.8101 12.0154 47.7307 12.0426C47.6879 12.0572 47.6348 12.0573 47.5288 12.0573H45.816C45.7794 12.0573 45.7611 12.0572 45.7463 12.0622C45.7189 12.0716 45.697 12.0929 45.6876 12.1203C45.6825 12.1351 45.6827 12.1539 45.6827 12.1906V15.0424C45.6827 15.8539 46.1173 16.1728 46.8419 16.1728C47.126 16.1728 47.3557 16.1547 47.5459 16.1208C47.6769 16.0976 47.7423 16.0861 47.7766 16.0927C47.8485 16.1066 47.8904 16.1412 47.9166 16.2095C47.9291 16.2421 47.9289 16.2989 47.9289 16.412V17.3706C47.9289 17.4389 47.9286 17.4731 47.9191 17.5082C47.9029 17.5673 47.8551 17.6323 47.8035 17.6654C47.7728 17.685 47.7464 17.6935 47.6934 17.71C47.3789 17.8083 47.0056 17.8538 46.5232 17.8538C44.6972 17.8538 43.8274 16.8249 43.8274 15.0424V12.1906C43.8274 12.1539 43.8276 12.1351 43.8225 12.1203C43.813 12.0929 43.7912 12.0716 43.7638 12.0622C43.749 12.0572 43.7306 12.0573 43.694 12.0573H42.8511C42.7451 12.0573 42.692 12.0572 42.6492 12.0426C42.5698 12.0154 42.507 11.9526 42.4798 11.8732C42.4652 11.8304 42.4651 11.7773 42.4651 11.6713V10.7911C42.4651 10.6848 42.4652 10.6314 42.4798 10.5886C42.507 10.5091 42.5698 10.447 42.6492 10.4198C42.692 10.4052 42.745 10.4051 42.8511 10.4051H43.694C43.7306 10.4051 43.749 10.4046 43.7638 10.3996C43.7912 10.3902 43.8131 10.3689 43.8225 10.3415C43.8276 10.3267 43.8274 10.3083 43.8274 10.2717V8.96451C43.8274 8.85851 43.8275 8.80539 43.8421 8.76265C43.8693 8.6832 43.9321 8.62102 44.0115 8.59382C44.0543 8.57921 44.1073 8.57914 44.2134 8.57914H45.2967Z" fill="#2845C1"/>
<path d="M10.4969 7.60347C10.6271 7.59288 10.7502 7.66445 10.8058 7.7827C10.8355 7.84596 10.8357 7.94515 10.8357 8.14299V15.7141C10.8357 15.767 10.8358 15.7936 10.8431 15.815C10.8567 15.8546 10.8878 15.8858 10.9275 15.8994C10.9489 15.9067 10.9754 15.9067 11.0284 15.9067H14.2013C14.3074 15.9067 14.3605 15.9068 14.4032 15.9214C14.4825 15.9486 14.5448 16.011 14.572 16.0903C14.5867 16.133 14.5867 16.1865 14.5867 16.2927V17.3326C14.5867 17.4387 14.5867 17.4917 14.572 17.5345C14.5448 17.6139 14.4827 17.6767 14.4032 17.7039C14.3605 17.7185 14.3073 17.7186 14.2013 17.7186H9.25388C9.14764 17.7186 9.09419 17.7186 9.0514 17.7039C8.972 17.6767 8.90977 17.6139 8.88258 17.5345C8.86796 17.4917 8.86789 17.4387 8.86789 17.3326V9.01834C8.86789 8.87045 8.86801 8.79609 8.88319 8.7284C8.91128 8.6034 8.97706 8.49005 9.07159 8.40358C9.12277 8.35678 9.1868 8.31985 9.31505 8.24637L10.1696 7.75701C10.3413 7.65863 10.4272 7.60914 10.4969 7.60347Z" fill="#2845C1"/>
<path d="M41.3506 10.4051C41.4567 10.4051 41.5097 10.4052 41.5525 10.4198C41.6319 10.447 41.6947 10.5091 41.7219 10.5886C41.7366 10.6314 41.7366 10.6848 41.7366 10.7911V17.3235C41.7366 17.4295 41.7365 17.4826 41.7219 17.5253C41.6947 17.6048 41.6319 17.6669 41.5525 17.6941C41.5097 17.7087 41.4567 17.7088 41.3506 17.7088H40.282C40.1757 17.7088 40.1223 17.7088 40.0795 17.6941C40.0001 17.6669 39.9378 17.6047 39.9106 17.5253C39.896 17.4826 39.896 17.4295 39.896 17.3235V10.7911C39.896 10.6848 39.896 10.6314 39.9106 10.5886C39.9378 10.5092 40.0001 10.447 40.0795 10.4198C40.1223 10.4051 40.1757 10.4051 40.282 10.4051H41.3506Z" fill="#2845C1"/>
<path d="M5.0894 1.1867C5.51644 1.05287 5.97448 1.05281 6.4015 1.1867C6.63253 1.25916 6.85582 1.38863 7.30254 1.6467L8.62872 2.41255C9.19079 2.73725 9.47203 2.89994 9.60255 3.08787C9.8464 3.43915 9.84622 3.90523 9.60194 4.25623C9.47119 4.44396 9.18971 4.60566 8.62749 4.92971L7.29826 5.69618C6.85114 5.95389 6.6276 6.0829 6.44922 6.24671C6.11946 6.54958 5.88998 6.94632 5.79225 7.38326C5.73941 7.61961 5.73964 7.87775 5.73964 8.39379V9.92244C5.73964 10.571 5.73973 10.8955 5.64238 11.1024C5.46034 11.4893 5.05667 11.7223 4.63062 11.6866C4.40267 11.6675 4.12141 11.5051 3.55953 11.1807L2.23763 10.4173C1.79099 10.1594 1.56738 10.0306 1.3892 9.86678C1.0599 9.56394 0.831048 9.16745 0.733454 8.73084C0.680657 8.49461 0.680847 8.23666 0.680847 7.72092V5.46985C0.680847 4.95415 0.680686 4.69612 0.733454 4.45992C0.83101 4.02338 1.05999 3.62683 1.3892 3.32399C1.56729 3.16021 1.79065 3.03132 2.23702 2.77346L4.18775 1.6467C4.63463 1.38855 4.8583 1.25915 5.0894 1.1867Z" fill="#2845C1"/>
<path d="M40.8233 6.72384C41.4755 6.72384 42.0119 7.27491 42.0119 7.92706C42.0117 8.57908 41.4754 9.12967 40.8233 9.12967C40.1713 9.12963 39.6209 8.57906 39.6207 7.92706C39.6207 7.27494 40.1712 6.72389 40.8233 6.72384Z" fill="#2845C1"/>
</g>
<defs>
<clipPath id="clip0_7771_15979">
<rect width="64" height="25.098" fill="white"/>
</clipPath>
</defs>
</svg>
