<svg xmlns="http://www.w3.org/2000/svg" width="192" height="48" fill="none"><path fill="#fff" d="m60.986 21.454 1.156-1.076c.833 1.059 1.819 1.605 2.94 1.605 1.293 0 2.04-.82 2.04-1.912 0-2.56-5.626-2.253-5.626-6.059 0-1.74 1.428-3.209 3.45-3.209 1.684 0 2.908.768 3.792 1.946l-1.19 1.041c-.697-1.007-1.547-1.553-2.584-1.553-1.105 0-1.836.751-1.836 1.74 0 2.578 5.627 2.254 5.627 6.077 0 2.031-1.581 3.363-3.655 3.363-1.768 0-3.077-.666-4.114-1.963Zm10.817-5.735H70.46l1.445-4.574h1.649l-1.751 4.574Zm4.818-3.465c-.56 0-1.02-.46-1.02-1.024a1.026 1.026 0 0 1 1.02-1.007c.56 0 1.003.46 1.003 1.007a1.01 1.01 0 0 1-1.003 1.024Zm-.73 10.838V14.49h1.444v8.602H75.89Zm3.767-4.3c0-2.51 1.717-4.643 4.403-4.643 1.24 0 2.26.46 3.043 1.297V10.29h1.445v12.801h-1.445v-.955c-.782.836-1.802 1.297-3.043 1.297-2.686 0-4.403-2.134-4.403-4.643Zm1.53 0c0 1.825 1.224 3.276 3.043 3.276 1.19 0 2.21-.58 2.873-1.604v-3.345c-.68-1.042-1.7-1.605-2.873-1.605-1.82 0-3.043 1.45-3.043 3.277Zm18.023 2.884c-.8 1.075-2.074 1.758-3.672 1.758-2.89 0-4.675-2.134-4.675-4.643 0-2.611 1.666-4.642 4.318-4.642 2.329 0 3.842 1.587 3.842 3.738 0 .34-.051.682-.102.921H92.36v.034c0 1.895 1.292 3.277 3.213 3.277a3.143 3.143 0 0 0 2.567-1.28l1.07.837Zm-4.012-6.281c-1.394 0-2.38.785-2.72 2.27h5.083c-.051-1.246-.952-2.27-2.363-2.27Zm6.274 7.697V14.49h1.445v.973c.697-.768 1.581-1.314 2.856-1.314 1.921 0 3.349 1.297 3.349 3.738v5.205h-1.462v-5.154c0-1.536-.85-2.424-2.176-2.424-1.241 0-2.023.717-2.567 1.622v5.956h-1.445Zm11.052-2.884V15.82h-1.615V14.49h1.615v-2.15h1.462v2.15h2.975v1.331h-2.975v4.387c0 1.348.68 1.724 1.717 1.724.561 0 .952-.069 1.275-.205v1.297c-.408.17-.867.239-1.479.239-1.904 0-2.975-.956-2.975-3.055Zm7.377-7.954c-.561 0-1.02-.46-1.02-1.024a1.024 1.024 0 0 1 1.02-1.007c.561 0 1.003.46 1.003 1.007a1.01 1.01 0 0 1-1.003 1.024Zm-.731 10.838V14.49h1.445v8.602h-1.445Zm3.377-8.602h1.615v-1.058c0-1.844 1.207-3.14 3.043-3.14.952 0 1.7.34 2.21.835l-.901 1.059a1.638 1.638 0 0 0-1.292-.58c-.935 0-1.598.682-1.598 1.792v1.092h2.975v1.331h-2.975v7.271h-1.462v-7.27h-1.615V14.49Zm8.543-2.236c-.561 0-1.02-.46-1.02-1.024a1.024 1.024 0 0 1 1.02-1.007c.561 0 1.003.46 1.003 1.007a1.01 1.01 0 0 1-1.003 1.024Zm-.731 10.838V14.49h1.445v8.602h-1.445Zm12.115-1.416c-.799 1.075-2.074 1.758-3.672 1.758-2.89 0-4.675-2.134-4.675-4.643 0-2.611 1.666-4.642 4.318-4.642 2.329 0 3.842 1.587 3.842 3.738 0 .34-.051.682-.102.921h-6.562v.034c0 1.895 1.292 3.277 3.213 3.277a3.143 3.143 0 0 0 2.567-1.28l1.071.837Zm-4.012-6.281c-1.394 0-2.38.785-2.72 2.27h5.083c-.051-1.246-.952-2.27-2.363-2.27Zm6.274 7.697V14.49h1.445v1.075c.629-.75 1.411-1.246 2.499-1.246.272 0 .527.034.731.103v1.502a3.1 3.1 0 0 0-.85-.12c-1.122 0-1.853.58-2.38 1.451v5.837h-1.445Zm13.685.342c-1.683 0-2.822-.956-2.822-2.458 0-1.331.986-2.287 2.822-2.577l2.873-.478v-.598c0-1.195-.85-1.877-2.057-1.877-1.003 0-1.836.444-2.329 1.195l-1.088-.837c.748-1.024 1.955-1.655 3.451-1.655 2.176 0 3.468 1.28 3.468 3.174v5.77h-1.445V22c-.646.905-1.717 1.434-2.873 1.434Zm-1.377-2.51c0 .735.629 1.298 1.615 1.298 1.139 0 2.04-.598 2.635-1.588v-1.638l-2.533.444c-1.19.188-1.717.734-1.717 1.485Zm7.252-6.434h1.564l2.737 7.083 2.737-7.083h1.564l-3.349 8.602h-1.904l-3.349-8.602Zm17.856 7.186c-.799 1.075-2.074 1.758-3.672 1.758-2.89 0-4.675-2.134-4.675-4.643 0-2.611 1.666-4.642 4.318-4.642 2.329 0 3.842 1.587 3.842 3.738 0 .34-.051.682-.102.921h-6.562v.034c0 1.895 1.292 3.277 3.213 3.277a3.143 3.143 0 0 0 2.567-1.28l1.071.837Zm-4.012-6.281c-1.394 0-2.38.785-2.72 2.27h5.083c-.051-1.246-.952-2.27-2.363-2.27Zm10.185 6.673a2.891 2.891 0 0 0 2.431-1.28l1.156.888c-.799 1.075-2.04 1.758-3.604 1.758-2.839 0-4.658-2.134-4.658-4.643s1.819-4.642 4.658-4.642c1.547 0 2.805.7 3.604 1.758l-1.156.887a2.917 2.917 0 0 0-2.448-1.28c-1.836 0-3.145 1.45-3.145 3.277 0 1.843 1.309 3.277 3.162 3.277ZM61.854 40.161V27.51h4.158c2.772 0 4.464 1.428 4.464 3.777 0 2.331-1.692 3.76-4.464 3.76H64.41v5.114h-2.556Zm4.266-10.464h-1.71v3.162h1.71c1.08 0 1.728-.578 1.728-1.608 0-.958-.648-1.554-1.728-1.554Zm6.129 10.464v-9.109h2.286v.904c.594-.615 1.368-1.084 2.394-1.084.306 0 .576.054.792.126v2.404a3.922 3.922 0 0 0-1.008-.127c-1.116 0-1.836.614-2.178 1.175v5.71h-2.286Zm11.386-9.47c2.952 0 4.968 2.186 4.968 4.915 0 2.73-2.016 4.916-4.968 4.916s-4.968-2.187-4.968-4.916c0-2.729 2.016-4.915 4.968-4.915Zm.036 7.662c1.458 0 2.556-1.174 2.556-2.747 0-1.59-1.098-2.747-2.556-2.747-1.512 0-2.628 1.157-2.628 2.747 0 1.59 1.116 2.747 2.628 2.747Zm13.172-.235c1.44 0 2.574-.704 3.294-1.735l2.016 1.555c-1.152 1.572-3.024 2.584-5.31 2.584-3.978 0-6.696-3.072-6.696-6.687 0-3.614 2.718-6.686 6.696-6.686 2.286 0 4.158 1.03 5.31 2.566l-2.016 1.572c-.72-1.03-1.854-1.735-3.294-1.735-2.376 0-4.068 1.862-4.068 4.283 0 2.422 1.692 4.283 4.068 4.283Zm11.366-7.427c2.952 0 4.968 2.186 4.968 4.915 0 2.73-2.016 4.916-4.968 4.916s-4.968-2.187-4.968-4.916c0-2.729 2.016-4.915 4.968-4.915Zm.036 7.662c1.458 0 2.556-1.174 2.556-2.747 0-1.59-1.098-2.747-2.556-2.747-1.512 0-2.628 1.157-2.628 2.747 0 1.59 1.116 2.747 2.628 2.747Zm7.018 1.808v-9.109h2.286v.723c.63-.614 1.476-1.084 2.682-1.084 1.962 0 3.528 1.355 3.528 4.048v5.422h-2.322v-5.332c0-1.21-.666-1.97-1.782-1.97-1.152 0-1.764.777-2.106 1.356v5.946h-2.286Zm11.091 0v-9.109h2.286v.723c.63-.614 1.476-1.084 2.682-1.084 1.962 0 3.528 1.355 3.528 4.048v5.422h-2.322v-5.332c0-1.21-.666-1.97-1.782-1.97-1.152 0-1.764.777-2.106 1.356v5.946h-2.286Zm19.444-1.482c-.846 1.138-2.25 1.843-3.96 1.843-3.222 0-5.04-2.259-5.04-4.916 0-2.692 1.692-4.915 4.662-4.915 2.52 0 4.176 1.698 4.176 4.084 0 .506-.072.994-.144 1.301h-6.354c.144 1.5 1.188 2.386 2.736 2.386.99 0 1.8-.434 2.286-1.085l1.638 1.302Zm-4.338-6.073c-1.116 0-1.872.543-2.178 1.735h4.086c-.036-.903-.702-1.735-1.908-1.735Zm10.696 5.747c.882 0 1.584-.433 2.016-1.066l1.818 1.392c-.846 1.12-2.178 1.843-3.834 1.843-3.132 0-5.004-2.259-5.004-4.916 0-2.656 1.872-4.915 5.004-4.915 1.656 0 2.988.723 3.834 1.843l-1.818 1.392c-.432-.633-1.116-1.067-2.052-1.067-1.494 0-2.592 1.157-2.592 2.747 0 1.609 1.098 2.747 2.628 2.747Zm6.204-1.518V33.15h-1.692v-2.097h1.692v-2.277h2.304v2.277h2.772v2.097h-2.772v3.686c0 1.012.54 1.41 1.44 1.41.63 0 1.044-.072 1.35-.199v2.006c-.45.199-.99.29-1.746.29-2.268 0-3.348-1.284-3.348-3.507Z"/><path fill="#000091" d="M37.992 14.155 22.998 5.442 8.004 14.237a.607.607 0 0 0-.306.527V31.78a.67.67 0 0 0 .306.526l14.992 8.635L37.99 32.2a.667.667 0 0 0 .306-.526v-16.99a.608.608 0 0 0-.304-.53Z"/><path fill="#FCC63A" d="m17.641 14.656-5.029 8.663-4.557-9.212 5.39-3.125 4.49 3.173-.294.502Zm20.656 17.049V14.679a.604.604 0 0 0-.306-.526L22.998 5.442"/><path fill="#0063CB" d="M7.7 31.705 23 5.442v35.504l-14.996-8.64a.667.667 0 0 1-.306-.526V14.765l.002 16.94Zm24.67-20.819 5.457 3.168-4.489 9.187-5.387-9.273 4.418-3.083v.001Z"/><path fill="#fff" d="M42.606 11.348 23.416.284a.93.93 0 0 0-.832 0L3.394 11.348a.89.89 0 0 0-.394.698v22.088a.891.891 0 0 0 .394.703l19.189 11.064a.929.929 0 0 0 .832 0l19.191-11.064a.888.888 0 0 0 .394-.703V12.046a.893.893 0 0 0-.394-.698ZM13.789 29.176h.079c-.042 0-.079.007-.079.05 0 .1.151 0 .2.1a.91.91 0 0 0-.629.277c0 .05.1.05.151.05-.075.1-.226.05-.277.153a.176.176 0 0 0 .1.05c-.05 0-.1 0-.1.05v.153c-.126 0-.176.1-.277.15.2.153.327 0 .528 0-.528.201-.956.482-1.484.633-.1 0 0 .15-.1.15.151.101.227-.05.377-.05-.654.38-1.333.703-2.037 1.138a.353.353 0 0 0-.1.201h-.2c-.1.05-.05.177-.151.278.226.15.5-.2.654 0 .05 0-.1.05-.2.05-.05 0-.05.1-.1.1H9.99c-.1.076-.2.127-.2.278a.22.22 0 0 0-.226.1 9 9 0 0 0 3.144-.58 7.687 7.687 0 0 0 2.088-1.566.177.177 0 0 1 .05.1c-.147.439-.43.82-.806 1.084-.277.153-.478.38-.7.481a4.05 4.05 0 0 0-.428.277c-.632.198-1.281.337-1.939.414l-.305.044c-.225.033-.449.07-.671.109l-1.993-1.143a.648.648 0 0 1-.288-.413.568.568 0 0 0 .094-.063.267.267 0 0 0-.113-.071v-.653a12.74 12.74 0 0 0 3.038-.945 8.731 8.731 0 0 0-3.037-1.349v-1.52c.555.09 1.103.222 1.639.393a6.41 6.41 0 0 1 1.182.58c.147.14.307.268.478.379a.908.908 0 0 0 .8.05h.33a3.954 3.954 0 0 0 1.937-.909c0 .05.05.05.1.05-.078.4-.223.785-.428 1.137.003.05-.048.152.053.203Zm2.817 3.584c.251-.1.4-.277.629-.378-.05.05-.05.151-.1.201a3.71 3.71 0 0 0-.528.402 16 16 0 0 0-1.585 1.616c-.252.302-.528.58-.8.859-.096.09-.2.172-.31.246l-2.527-1.456c.36.03.721.013 1.076-.053.294-.084.58-.193.855-.329v.1c.7-.277 1.232-.909 1.937-1.136.025 0 .126.1.226.05a1.885 1.885 0 0 1 1.509-.702c0 .05 0 .1.05.1h.025c-.151.127-.327.251-.5.378-.057.053-.007.102.043.102Zm-8.908-6.188v-.187a5.795 5.795 0 0 1 1.588-.188c.158-.026.32-.026.478 0a5.84 5.84 0 0 0-2.066.375Zm30.6 5.109a.67.67 0 0 1-.306.526L27.913 38.08a32.214 32.214 0 0 1-3.408-1.189 2.847 2.847 0 0 1-.05-2.254c.08-.309.198-.607.352-.886.025-.025.05-.05.05-.076a.025.025 0 0 0 .025-.025 4.33 4.33 0 0 1 .377-.558l.015-.015.02-.02.015-.016c0-.025.025-.05.05-.076.025-.052.075-.077.1-.127a3.78 3.78 0 0 1 .579-.502c.213-.077.431-.136.654-.178.811.06 1.617.171 2.415.33a.753.753 0 0 1 .277.1c.301.06.612.041.905-.05a1.135 1.135 0 0 0 .855-.709 1.22 1.22 0 0 0 .05-1.064c-.178-.276-.013-.438.181-.592l.068-.055c.086-.06.164-.134.231-.216.126-.254-.1-.402-.151-.633-.05-.1-.226-.05-.327-.2.352-.152.855-.433.629-.861-.151-.228-.377-.633-.1-.86.352-.201.855-.152 1.006-.483a1.146 1.146 0 0 0-.292-1.088l-.075-.108a4.776 4.776 0 0 1-.211-.322 6.934 6.934 0 0 0-.528-.76 4.32 4.32 0 0 1-.528-1.014c-.151-.378.05-.708.05-1.087a6.397 6.397 0 0 0-.327-2.153c-.126-.354-.176-.734-.327-1.064a1.127 1.127 0 0 0-.226-.582.376.376 0 0 1 0-.329c.205-.145.399-.306.579-.482a.571.571 0 0 0-.2-.707c-.327-.152-.3.329-.528.43h-.151c-.05-.126.05-.177.151-.278 0-.05 0-.151-.05-.151-.2 0-.377-.052-.428-.152a3.956 3.956 0 0 0-1.861-1.291c.188.058.382.091.579.1.338.072.69.036 1.006-.1.227-.077.277-.482.377-.709a.806.806 0 0 0-.151-.634 2.192 2.192 0 0 0-.906-.759 9.094 9.094 0 0 1-.679-.354.952.952 0 0 0-.251-.127c-2.965-1.49-9.069-.2-9.534 0h-.009a8.23 8.23 0 0 0-1.249.477 3.92 3.92 0 0 0-2.365 2.475 3.84 3.84 0 0 0-1.333 1.515c-.428.804-1.056 1.515-.956 2.424.1.783.277 1.49.428 2.298.043.273.11.542.2.803.1.278 0 .632.151.859.075.15.025.328.227.43v.2c.05.05.05.1.151.1v.202c.435.424.807.91 1.107 1.44.1.276-.478.15-.7.05a5.983 5.983 0 0 1-1.132-.96.177.177 0 0 0-.051.1c.2.354.906.783.528 1.01-.2.1-.428-.151-.629.05-.05.077 0 .178 0 .278-.277-.2-.578-.1-.855-.2-.2-.05-.252-.429-.478-.429a15.135 15.135 0 0 0-1.811-.328 15.1 15.1 0 0 0-1.739-.161V14.766a.61.61 0 0 1 .306-.526l14.987-8.796 14.994 8.712a.606.606 0 0 1 .306.526V31.68Zm-7.954-8.295a.325.325 0 0 1-.282.15c-.1.085-.194.176-.282.274.1 0 0 .15.1.15-.205.224.077.697-.205.796-.37.1-.758.1-1.127 0a.721.721 0 0 1 .167-.016h.085a.38.38 0 0 0 .337-.133v-.2c0-.05-.051-.05-.1-.05a.16.16 0 0 1-.1.05.225.225 0 0 0-.154-.201.804.804 0 0 1-.718-.274.668.668 0 0 1 .436-.05c.128 0 .077-.225.231-.324h.154c.307-.373.871-.473.974-.846 0-.1-.282-.1-.487-.15a2.253 2.253 0 0 0-.82.05c-.36.05-.712.142-1.051.274.28-.206.592-.366.923-.472.232-.09.473-.158.718-.201l.132-.026.133-.027a.968.968 0 0 1 .556 0c.231.1.615.1.666.248.1.275-.154.548-.435.747-.057.08.149.136.149.231Z"/><path fill="#FCC63A" d="M55.56 0H30c-1.105 0-2 .899-2 2.008v9.34c0 1.108.895 2.007 2 2.007h25.56c1.105 0 2-.899 2-2.008V2.008a2.004 2.004 0 0 0-2-2.008Z"/><path fill="#161616" d="M30.562 11.213V2.325h2.921c.97 0 1.732.237 2.289.711.565.474.847 1.122.847 1.943 0 .813-.282 1.456-.847 1.93-.557.474-1.32.71-2.289.71h-1.125v3.594h-1.796Zm2.997-7.351h-1.201v2.221h1.2c.38 0 .675-.097.886-.29.22-.197.329-.476.329-.84 0-.338-.11-.605-.329-.8-.21-.194-.506-.291-.885-.291Zm4.671 7.35V2.326h2.707c.97 0 1.736.237 2.301.711.565.474.847 1.122.847 1.943 0 .532-.126.999-.379 1.396a2.4 2.4 0 0 1-1.037.902l2.782 3.936h-2.15L40.949 7.62h-.923v3.593H38.23Zm2.808-7.35h-1.012v2.221h1.012c.38 0 .674-.097.885-.29.21-.197.316-.476.316-.84 0-.338-.105-.605-.316-.8-.21-.194-.506-.291-.885-.291Zm9.511-1.79c.69 0 1.323.126 1.896.38.582.254 1.08.593 1.492 1.016.414.423.734.923.962 1.498a4.81 4.81 0 0 1 .341 1.803c0 .635-.114 1.24-.341 1.815a4.504 4.504 0 0 1-.962 1.486 4.67 4.67 0 0 1-1.492 1.015c-.598.26-1.244.39-1.896.382a4.721 4.721 0 0 1-3.402-1.397 4.504 4.504 0 0 1-.961-1.486 4.892 4.892 0 0 1-.342-1.815c0-.635.114-1.236.342-1.803a4.473 4.473 0 0 1 .961-1.498 4.72 4.72 0 0 1 3.402-1.397Zm0 7.706a2.79 2.79 0 0 0 1.138-.229c.354-.16.653-.371.898-.634.252-.271.45-.589.594-.953.145-.38.218-.785.215-1.193a3.193 3.193 0 0 0-.215-1.18 2.805 2.805 0 0 0-.595-.953A2.547 2.547 0 0 0 51.687 4a2.664 2.664 0 0 0-1.138-.24c-.413 0-.797.08-1.151.24a2.678 2.678 0 0 0-.91.635c-.254.276-.451.6-.582.952a3.193 3.193 0 0 0-.215 1.181c0 .423.071.82.215 1.193.143.364.337.682.581.953.253.262.557.474.91.634.355.153.739.23 1.152.23Z"/></svg>